<svg xmlns="http://www.w3.org/2000/svg" width="570" height="316.129" viewBox="0 0 570 316.129">
  <g id="connection" transform="translate(-0.011)">
    <path id="Path_1883" data-name="Path 1883" d="M605.664,424.474q-.953,2.053-1.9,4.051-1.478,3.1-2.918,6.087c-.427.881-.854,1.746-1.27,2.611-4.708,9.618-9.1,18.125-12.837,25.12a40.076,40.076,0,0,1-34.93,21.2l-83.014.9h-.876l-7.116.077-6.087.066-18.65.213h-.755l-9.5.1h-.29l-58.572.635-52.283.547-6.082.066-37.771.411h-.06l-24.5.263h-.263l-77.458.838-23.172.252a48.165,48.165,0,0,1-5.907-.3h0c-.668-.077-1.336-.164-2-.268a47.832,47.832,0,0,1-28.076-15.075,109.653,109.653,0,0,1-22.093-37.667q-1.056-3.005-1.971-6.087c-16.866-57.034,3.695-130.583,40.7-179.79q2.326-3.087,4.73-6.021l.038-.044c11.381-13.97,24.141-25.64,37.733-33.939,24.086-14.731,50.772-18.88,77.02-6.514,22.208,10.466,42.944,15.388,63.045,16.723,2.031.131,4.062.23,6.082.29,46.108,1.451,89.32-15.163,140.064-25.887,2.02-.427,4.045-.848,6.087-1.248,36.2-7.2,76.357-11,124.113-3.016a103.512,103.512,0,0,1,14.649,3.5q3.159,1.018,6.087,2.19c22.794,9.273,35.225,26.407,40.508,47.876q.75,2.989,1.3,6.082C656.835,300.372,629.4,373.626,605.664,424.474Z" transform="translate(-79.34 -171.825)" fill="#f2f2f2"/>
    <path id="Path_1884" data-name="Path 1884" d="M356.344,434.7a52.116,52.116,0,0,1-1.024,6.087h51.292V434.7ZM313.51,469.079l6.082-.049V453.992c-2.086-.093-4.116-.186-6.082-.285ZM186.008,434.7v6.087h108.66V434.7ZM651.127,248.825H610.62V200.949q-2.929-1.193-6.087-2.19v50.088H465.743v-50.6c-2.042.4-4.067.821-6.087,1.248v49.327H319.592v-23.44c-2.02-.06-4.051-.159-6.082-.29v23.73H173.446V214.886c-13.592,8.3-26.352,19.969-37.733,33.939h-.038v.044q-2.409,2.956-4.73,6.021h4.73V434.7H90.24q.909,3.082,1.971,6.087h43.458v51.248a47.628,47.628,0,0,0,6.678,1.527c.662.1,1.33.192,2,.268h0a48.158,48.158,0,0,0,5.907.3l23.172-.252v-53.1H313.51v51.571l6.082-.066V440.783H459.656v49.984l6.087-.066V440.783H604.505v2.611c.416-.865.843-1.73,1.27-2.611q1.44-2.978,2.918-6.087.947-2,1.9-4.051V254.928h41.833Q651.872,251.814,651.127,248.825ZM173.446,434.7V254.906H313.51V434.7Zm146.157,0V254.906H459.656V434.7Zm284.913,0H465.743V254.906H604.505Z" transform="translate(-84.268 -177.996)" opacity="0.1"/>
    <path id="Path_1885" data-name="Path 1885" d="M636.964,452.482a102.333,102.333,0,0,0-31.394-35.171,6.947,6.947,0,0,0-3.137-1.182c1.538-10.116,1.215-21.294-4.494-29.724-13.548-20-82.576.64-82.576.64-48.385-16.772-90.322,4.516-90.322,4.516s-53.547-8.386-78.06-1.932c-11.561,3.044-14.369,14.835-14.107,26.451h-.038a6.815,6.815,0,0,0-5.337,2.562c-6.52,8.145-26.215,33.233-25.679,38.077.646,5.808,21.935,81.284,20.971,117.736l297.4-3.284s4.927-73.352,17.249-113.5a6.809,6.809,0,0,0-.476-5.184Z" transform="translate(-180.024 -259.204)" fill="#3f3d56"/>
    <path id="Path_1886" data-name="Path 1886" d="M267.88,341.148l12.256-24.518,10.319,47.739.12,22.159Z" transform="translate(-121.236 -143.305)" opacity="0.1"/>
    <path id="Path_1887" data-name="Path 1887" d="M759.813,341.148,747.556,316.63,733.34,361.895l2.737,25.728Z" transform="translate(-331.901 -143.305)" opacity="0.1"/>
    <path id="Path_1888" data-name="Path 1888" d="M307.48,400.405l233.14-1.275,2.584,25.8-234.826-.646Z" transform="translate(-139.159 -180.644)" fill="#3f3d56"/>
    <path id="Path_1889" data-name="Path 1889" d="M307.48,400.405l233.14-1.275,2.584,25.8-234.826-.646Z" transform="translate(-139.159 -180.644)" opacity="0.1"/>
    <rect id="Rectangle_19" data-name="Rectangle 19" width="237.026" height="27.742" rx="10.47" transform="translate(168.244 241.778)" fill="#fff" opacity="0.1"/>
    <path id="Path_1890" data-name="Path 1890" d="M717.574,432.829s-.788-1.095-1.719-.5a59.347,59.347,0,0,0-4.576,5.589c-1.007,1.308-2.009,2.628-2.8,3.679-.98,1.292-1.642,2.19-1.642,2.19l-.394.739-2.392,4.472-2.25,4.2-.547,1.982,7.6,2.584L717.5,455.4l-.372-1.6-.066-.274.071-3.69.2-10.4.093-4.68v-.547Z" transform="translate(-360.809 -283.858)" fill="#ffe09c"/>
    <path id="Path_1891" data-name="Path 1891" d="M699.29,476.682s8.211,2.929,12.421,1.4a22.466,22.466,0,0,0,5.075-2.283s1.527-.8-.547-3.4c0,0-5.315,3.257-10.346,1.976l-5.031-1.286Z" transform="translate(-359.921 -302.07)" fill="#e7c4c3"/>
    <ellipse id="Ellipse_48" data-name="Ellipse 48" cx="2.688" cy="2.277" rx="2.688" ry="2.277" transform="translate(343.906 168.336) rotate(-30.37)" fill="#ff7f8e"/>
    <ellipse id="Ellipse_49" data-name="Ellipse 49" cx="2.688" cy="2.277" rx="2.688" ry="2.277" transform="translate(349.366 161.79) rotate(-30.37)" fill="#ff7f8e"/>
    <path id="Path_1892" data-name="Path 1892" d="M726.942,464.28a2.814,2.814,0,0,0-2.562.2,2.308,2.308,0,1,0,2.3,3.93c.088-.055.175-.109.257-.17l-.066-.274Z" transform="translate(-370.626 -298.302)" fill="#ff7f8e"/>
    <path id="Path_1893" data-name="Path 1893" d="M710.144,455.724a2.1,2.1,0,0,0-1.4-.974l-2.392,4.472a2.8,2.8,0,0,0,2.628-.175A2.507,2.507,0,0,0,710.144,455.724Z" transform="translate(-363.117 -294.087)" fill="#ff7f8e"/>
    <path id="Path_1894" data-name="Path 1894" d="M719.139,443.709a2.19,2.19,0,0,0-1.867-1.029c-1.007,1.308-2.009,2.628-2.8,3.679l.033.066a2.724,2.724,0,0,0,4.637-2.715Z" transform="translate(-366.792 -288.624)" fill="#ff7f8e"/>
    <path id="Path_1895" data-name="Path 1895" d="M728.927,436.9a3.077,3.077,0,0,0-.8.328,2.507,2.507,0,0,0-1.166,3.323,2.189,2.189,0,0,0,1.878,1.029Z" transform="translate(-372.321 -286.008)" fill="#ff7f8e"/>
    <path id="Path_1896" data-name="Path 1896" d="M707.128,468.023l-.438-.739a4.713,4.713,0,0,0,1.774-.985c.033-.033.06-.071.088-.1.547-.69.432.745.432.745S707.637,468.083,707.128,468.023Z" transform="translate(-363.271 -299.182)" fill="#94cc79"/>
    <path id="Path_1897" data-name="Path 1897" d="M718.928,465.93l-.438-.745a4.752,4.752,0,0,0,1.774-.985c0-.033.06-.066.088-.1.547-.684.432.744.432.744S719.437,465.991,718.928,465.93Z" transform="translate(-368.611 -298.233)" fill="#94cc79"/>
    <path id="Path_1898" data-name="Path 1898" d="M717.848,460.333l-.438-.744a4.752,4.752,0,0,0,1.774-.98c.027-.038.06-.071.087-.1.547-.69.432.739.432.739S718.357,460.382,717.848,460.333Z" transform="translate(-368.122 -295.701)" fill="#94cc79"/>
    <path id="Path_1899" data-name="Path 1899" d="M719.278,450.229l-.438-.744a4.751,4.751,0,0,0,1.774-.985c0-.033.06-.066.088-.1.547-.69.432.744.432.744S719.787,450.283,719.278,450.229Z" transform="translate(-368.77 -291.125)" fill="#94cc79"/>
    <path id="Path_1900" data-name="Path 1900" d="M726.052,438.01l-.432-.744a4.709,4.709,0,0,0,1.768-.985.789.789,0,0,0,.088-.1c.547-.684.438.744.438.744S726.562,438.065,726.052,438.01Z" transform="translate(-371.838 -285.596)" fill="#94cc79"/>
    <path id="Path_1901" data-name="Path 1901" d="M725.288,450.483l-.438-.744a4.708,4.708,0,0,0,1.774-.98c0-.038.06-.071.088-.1.547-.69.432.739.432.739S725.8,450.543,725.288,450.483Z" transform="translate(-371.49 -291.243)" fill="#94cc79"/>
    <path id="Path_1902" data-name="Path 1902" d="M696.64,456.146s-1.051,2.737,1.347,2.3a9.492,9.492,0,0,0,2.118-4.33s5.184-11.359,6.717-12.4c0,0,6.755-9.235,7.483-9.372,0,0,.235-.9-2.124,1s-7.527,9.213-7.527,9.213l-4.927,8.03-1.161,3.2Z" transform="translate(-358.618 -283.85)" fill="#e7c4c3"/>
    <path id="Path_1903" data-name="Path 1903" d="M696.64,456.146s-1.051,2.737,1.347,2.3a9.492,9.492,0,0,0,2.118-4.33s5.184-11.359,6.717-12.4c0,0,6.755-9.235,7.483-9.372,0,0,.235-.9-2.124,1s-7.527,9.213-7.527,9.213l-4.927,8.03-1.161,3.2Z" transform="translate(-358.618 -283.85)" fill="#fff" opacity="0.2"/>
    <path id="Path_1904" data-name="Path 1904" d="M548.08,577.336a65.825,65.825,0,0,0,3.328,8.682,80.613,80.613,0,0,0,11.1-3.164,31.211,31.211,0,0,0-2.3-3.137,11.013,11.013,0,0,0-3.137-2.409c-1.155-.5-2.578-.12-3.832-.055Q550.669,577.385,548.08,577.336Z" transform="translate(-291.485 -349.44)" fill="#fbbebe"/>
    <path id="Path_1905" data-name="Path 1905" d="M533.485,577.937c-1.883-.591-3.033-2.491-3.8-4.319s-1.385-3.832-2.841-5.167a1.691,1.691,0,0,0-1.281.964,16.078,16.078,0,0,1-.761,1.5c-.6.876-1.642,1.3-2.436,2.047s-1.237,1.878-2.064,2.628a8.278,8.278,0,0,1-3.87,1.489,24.723,24.723,0,0,0-6.065,2.244,10.171,10.171,0,0,1-2.244,1.007,8.29,8.29,0,0,1-2.628.088l-6.021-.427a4.8,4.8,0,0,0-1.609.066,2.934,2.934,0,0,0-1.916,3.027,4.708,4.708,0,0,0,1.9,3.246,12.847,12.847,0,0,0,3.438,1.735,101.266,101.266,0,0,0,16.17,4.62v1.193a27.839,27.839,0,0,0,12.311,2.868,1.951,1.951,0,0,0,.92-.159,1.993,1.993,0,0,0,.777-1.182,47.765,47.765,0,0,0,2.513-13.138,9.986,9.986,0,0,0-.257-3.377c-.328-1.095.8-.63-.246-1.057" transform="translate(-267.885 -345.547)" fill="#2f2e41"/>
    <path id="Path_1906" data-name="Path 1906" d="M677.708,540.291c-17.884,1.095-35.581-4.166-53.46-4.724a26.271,26.271,0,0,0-6.651.427,32.391,32.391,0,0,0-6.569,2.551c-9.607,4.467-19.537,8.167-29.461,11.862l-11.4,4.248a17.538,17.538,0,0,1-7.062,1.56c-1.095-.066-2.425-.23-3.033.673-1.856,2.737-.98,6.782.246,9.853.394,1,1.095,2.08,2.135,2.19a6.507,6.507,0,0,0,2.19-.547c2.075-.547,4.144.843,6.279,1.068,2.638.279,5.085-1.221,7.576-2.14,4.127-1.527,8.643-1.478,12.984-2.19,7.281-1.215,14.024-4.593,20.331-8.441,2.4-1.467,4.828-3.038,7.587-3.575,3.169-.619,6.427.2,9.541,1.095a219.608,219.608,0,0,1,21.863,7.445,100.857,100.857,0,0,0,11.43,4.171,41.346,41.346,0,0,0,25.608-1.494c2.857-1.133,5.972-3.131,6.136-6.218.093-1.763-1.275-3.284-2.19-4.817-.58-.969-1.166-1.932-1.806-2.863C686.882,545.9,683.138,539.968,677.708,540.291Z" transform="translate(-296.43 -330.64)" fill="#2f2e41"/>
    <path id="Path_1907" data-name="Path 1907" d="M677.708,540.291c-17.884,1.095-35.581-4.166-53.46-4.724a26.271,26.271,0,0,0-6.651.427,32.391,32.391,0,0,0-6.569,2.551c-9.607,4.467-19.537,8.167-29.461,11.862l-11.4,4.248a17.538,17.538,0,0,1-7.062,1.56c-1.095-.066-2.425-.23-3.033.673-1.856,2.737-.98,6.782.246,9.853.394,1,1.095,2.08,2.135,2.19a6.507,6.507,0,0,0,2.19-.547c2.075-.547,4.144.843,6.279,1.068,2.638.279,5.085-1.221,7.576-2.14,4.127-1.527,8.643-1.478,12.984-2.19,7.281-1.215,14.024-4.593,20.331-8.441,2.4-1.467,4.828-3.038,7.587-3.575,3.169-.619,6.427.2,9.541,1.095a219.608,219.608,0,0,1,21.863,7.445,100.857,100.857,0,0,0,11.43,4.171,41.346,41.346,0,0,0,25.608-1.494c2.857-1.133,5.972-3.131,6.136-6.218.093-1.763-1.275-3.284-2.19-4.817-.58-.969-1.166-1.932-1.806-2.863C686.882,545.9,683.138,539.968,677.708,540.291Z" transform="translate(-296.43 -330.64)" opacity="0.1"/>
    <path id="Path_1908" data-name="Path 1908" d="M610.8,573.014q4.193,1.429,8.474,2.633c1.593-2.617,4.576-4.439,5.255-7.428a.509.509,0,0,0-.323-.69,15.783,15.783,0,0,0-6.629-1.943c-1.839-.115-2.677,1.8-3.514,3.153C613.729,569.281,611.55,573.271,610.8,573.014Z" transform="translate(-319.871 -344.248)" fill="#fbbebe"/>
    <path id="Path_1909" data-name="Path 1909" d="M595.13,572.132a6.126,6.126,0,0,1-4.117-2.7c-.394-.69-.816-1.642-1.6-1.571s-1.095.925-1.237,1.642a46.643,46.643,0,0,1-2.3,7.954,14.928,14.928,0,0,1-4.927,6.5c-1.04.717-2.19,1.259-3.208,2.014A20.352,20.352,0,0,1,575,588.018a14.612,14.612,0,0,1-2.08.777,14.546,14.546,0,0,0-2.978,1.451,5.922,5.922,0,0,0-2.025,1.938,2.83,2.83,0,0,0-.17,2.737,2.934,2.934,0,0,0,1.987,1.358,8.469,8.469,0,0,0,2.469.066c3.257-.241,6.514-.547,9.771-.821a28.569,28.569,0,0,0,4.095-.547c.717-.175,1.412-.4,2.124-.586a17.873,17.873,0,0,1,3.722-.547,3.283,3.283,0,0,1,1.095.1c.755.246,1.286,1,2.069,1.149a3.285,3.285,0,0,0,1.473-.2,34.362,34.362,0,0,1,7.237-.755c1.095-.055,2.321-.257,2.814-1.215.613-1.193-.405-2.529-.8-3.832a11.574,11.574,0,0,1-.339-2.5,15.223,15.223,0,0,0-1.8-5.939c-.827-1.522-1.96-3.208-1.38-4.845a4.409,4.409,0,0,0,.547-1.642C602.64,571.541,596.613,572.444,595.13,572.132Z" transform="translate(-300.26 -345.277)" fill="#2f2e41"/>
    <path id="Path_1910" data-name="Path 1910" d="M714.365,478.822a14,14,0,0,1-7.116-7.078c-.3-.679-.547-1.385-.832-2.069a15.8,15.8,0,0,0-4.259-5.917,2.058,2.058,0,0,0-1.582-.668,1.7,1.7,0,0,0-1.16,1.248,4.961,4.961,0,0,0-.12,1.91,34.187,34.187,0,0,0,.777,4.467l.865,3.947a7.251,7.251,0,0,0,.547,1.763,6.142,6.142,0,0,0,1.451,1.741c.794.734,1.6,1.44,2.414,2.129a6.771,6.771,0,0,0,4.188,1.861c3.547.657,7.16,1.609,10.16,3.925-.038,0,0-2.649-.066-2.951a3.9,3.9,0,0,0-.761-2.118C717.693,479.807,715.783,479.462,714.365,478.822Z" transform="translate(-359.904 -297.86)" fill="#fbbebe"/>
    <path id="Path_1911" data-name="Path 1911" d="M714.365,478.822a14,14,0,0,1-7.116-7.078c-.3-.679-.547-1.385-.832-2.069a15.8,15.8,0,0,0-4.259-5.917,2.058,2.058,0,0,0-1.582-.668,1.7,1.7,0,0,0-1.16,1.248,4.961,4.961,0,0,0-.12,1.91,34.187,34.187,0,0,0,.777,4.467l.865,3.947a7.251,7.251,0,0,0,.547,1.763,6.142,6.142,0,0,0,1.451,1.741c.794.734,1.6,1.44,2.414,2.129a6.771,6.771,0,0,0,4.188,1.861c3.547.657,7.16,1.609,10.16,3.925-.038,0,0-2.649-.066-2.951a3.9,3.9,0,0,0-.761-2.118C717.693,479.807,715.783,479.462,714.365,478.822Z" transform="translate(-359.904 -297.86)" opacity="0.1"/>
    <ellipse id="Ellipse_50" data-name="Ellipse 50" cx="4.352" cy="4.374" rx="4.352" ry="4.374" transform="translate(386.527 141.991)" fill="#2f2e41"/>
    <path id="Path_1912" data-name="Path 1912" d="M763.609,423.725a4.743,4.743,0,0,0-3.438.5,4.652,4.652,0,0,0-1.177,1.6,23.121,23.121,0,0,0-2.261,5.326c-.389,1.6-.454,3.284-.936,4.839-.892,2.912-3.175,5.37-3.438,8.408-.115,1.358.115,2.951-.881,3.881a5.553,5.553,0,0,1-.777.547,5.913,5.913,0,0,0-1.713,1.763,5.7,5.7,0,0,1-1.215,1.681c-.887.657-2.354.586-2.792,1.6s.69,2.19.427,3.284c-.213.9-1.215,1.308-1.9,1.921a6.532,6.532,0,0,0-1.642,3.087,10.259,10.259,0,0,1-8.321-2.075c1.21,2.989,1.237,6.29,1.292,9.519a3.921,3.921,0,0,1-.766,2.951,51.78,51.78,0,0,1,10.22,1.779,7.087,7.087,0,0,0,4.456,0,7.178,7.178,0,0,0,2.042-1.642c1.839-1.867,3.766-3.9,4.215-6.487a36.518,36.518,0,0,0,.077-4.379,25.024,25.024,0,0,1,1.095-5.343,63.261,63.261,0,0,0,1.954-10.992c.2-2.288,2.19-4.133,3.219-6.186,1.971-3.865,3.98-7.894,4.127-12.234C765.541,425.641,765.049,423.884,763.609,423.725Z" transform="translate(-375.423 -280.004)" fill="#2f2e41"/>
    <path id="Path_1913" data-name="Path 1913" d="M763.609,423.725a4.743,4.743,0,0,0-3.438.5,4.652,4.652,0,0,0-1.177,1.6,23.121,23.121,0,0,0-2.261,5.326c-.389,1.6-.454,3.284-.936,4.839-.892,2.912-3.175,5.37-3.438,8.408-.115,1.358.115,2.951-.881,3.881a5.553,5.553,0,0,1-.777.547,5.913,5.913,0,0,0-1.713,1.763,5.7,5.7,0,0,1-1.215,1.681c-.887.657-2.354.586-2.792,1.6s.69,2.19.427,3.284c-.213.9-1.215,1.308-1.9,1.921a6.532,6.532,0,0,0-1.642,3.087,10.259,10.259,0,0,1-8.321-2.075c1.21,2.989,1.237,6.29,1.292,9.519a3.921,3.921,0,0,1-.766,2.951,51.78,51.78,0,0,1,10.22,1.779,7.087,7.087,0,0,0,4.456,0,7.178,7.178,0,0,0,2.042-1.642c1.839-1.867,3.766-3.9,4.215-6.487a36.518,36.518,0,0,0,.077-4.379,25.024,25.024,0,0,1,1.095-5.343,63.261,63.261,0,0,0,1.954-10.992c.2-2.288,2.19-4.133,3.219-6.186,1.971-3.865,3.98-7.894,4.127-12.234C765.541,425.641,765.049,423.884,763.609,423.725Z" transform="translate(-375.423 -280.004)" opacity="0.1"/>
    <path id="Path_1914" data-name="Path 1914" d="M707.128,520.7c-3.722-1.774-6.448-5.074-9.459-7.9-5.748-5.4-12.782-9.218-18.825-14.282-4.007-3.35-7.587-7.259-11.988-10.067a29.855,29.855,0,0,0-12.826-4.489,3.53,3.53,0,0,0-1.571.077A3.733,3.733,0,0,0,651,485.187a45.952,45.952,0,0,0-5.178,7.116c-7.664,13-18.546,23.949-27.562,36.03a1.642,1.642,0,0,0-.109,2.19l1.834,3.591c1.024,2.014,2.671,4.379,4.883,3.958a5.366,5.366,0,0,0,2.562-1.642l8.211-7.866,8.633-8.255c5.058-4.834,10.2-9.782,13.5-15.962,2.573,4.467,7.149,7.39,10.286,11.5,1.193,1.555,2.19,3.284,3.23,4.927,1.708,2.638,3.651,5.118,5.589,7.592l9.9,12.64a19.252,19.252,0,0,0,4.582,4.647c2.348,1.483,5.2,1.878,7.959,2.124a106.015,106.015,0,0,0,11.189.405c2.847-.049,5.781-.235,8.337-1.5s4.653-3.832,4.522-6.722a9.968,9.968,0,0,0-1.429-4.188C718.421,529.253,713.8,523.861,707.128,520.7Z" transform="translate(-323.031 -307.28)" fill="#2f2e41"/>
    <ellipse id="Ellipse_51" data-name="Ellipse 51" cx="3.345" cy="3.367" rx="3.345" ry="3.367" transform="translate(390.211 146.026)" fill="#e8e8f0"/>
    <path id="Path_1915" data-name="Path 1915" d="M793.142,420.841a6.377,6.377,0,0,1,.367,4.828,18.8,18.8,0,0,1-2.151,4.456,22.208,22.208,0,0,1-2.8,3.991c5.162.252,10.171-1.774,14.725-4.231,3.668-1.971,7.324-4.412,9.306-8.1a4.27,4.27,0,0,1-3.421-.629,12.712,12.712,0,0,1-2.617-2.441l-2.595-2.918a11.539,11.539,0,0,1-1.593-2.091,5.862,5.862,0,0,1-.684-3.383,19.214,19.214,0,0,1-3.432,2.846c-1.85,1.2-3.892,2.08-5.748,3.284-.657.422-2.124,1.095-1.746,1.965S792.633,419.921,793.142,420.841Z" transform="translate(-400.325 -273.978)" fill="#fbbebe"/>
    <path id="Path_1916" data-name="Path 1916" d="M793.142,420.841a6.377,6.377,0,0,1,.367,4.828,18.8,18.8,0,0,1-2.151,4.456,22.208,22.208,0,0,1-2.8,3.991c5.162.252,10.171-1.774,14.725-4.231,3.668-1.971,7.324-4.412,9.306-8.1a4.27,4.27,0,0,1-3.421-.629,12.712,12.712,0,0,1-2.617-2.441l-2.595-2.918a11.539,11.539,0,0,1-1.593-2.091,5.862,5.862,0,0,1-.684-3.383,19.214,19.214,0,0,1-3.432,2.846c-1.85,1.2-3.892,2.08-5.748,3.284-.657.422-2.124,1.095-1.746,1.965S792.633,419.921,793.142,420.841Z" transform="translate(-400.325 -273.978)" opacity="0.1"/>
    <path id="Path_1917" data-name="Path 1917" d="M780.237,429.972a4.357,4.357,0,0,0,0,5.047c.148.186.69,1.336.925,1.347a.914.914,0,0,0,.591-.3,39.449,39.449,0,0,0,3.284-3.9,7.22,7.22,0,0,1,4.166-2.737c2.02-.312,3.974.755,5.742,1.79a5.5,5.5,0,0,1,1.96,1.6,5.27,5.27,0,0,1,.646,2.19,103.461,103.461,0,0,1,.58,13.91,51.2,51.2,0,0,1-.657,10.034c-.328,1.708-.821,3.377-1.056,5.1a34.388,34.388,0,0,0-.2,4.571v6.394a16.294,16.294,0,0,0,.246,3.5,41.8,41.8,0,0,0,1.407,4.056,26.729,26.729,0,0,1,.936,4.8l.876,6.618c.274,2.086.476,4.379-.783,6.021-.547.755-1.319,1.363-1.894,2.118-2.19,2.814-1.473,6.837-2.376,10.28a12.87,12.87,0,0,1-4.193,6.432c-1.549,1.314-3.547,2.343-5.534,1.976-2.688-.5-4.3-3.284-5.036-5.95s-1-5.529-2.584-7.762c-1.3-1.828-3.284-2.978-5.124-4.281s-3.591-2.983-3.985-5.195c-.175-.963-.066-1.954-.17-2.929a6.925,6.925,0,0,0-4.281-5.622c-1.374-.547-3.071-.728-3.832-1.987a9.326,9.326,0,0,0,4.029-5.408,27.783,27.783,0,0,0,.98-6.826l.46-7.691c.2-3.438.3-6.843,1.812-9.93.673-1.385,1.516-2.677,2.222-4.04a45.565,45.565,0,0,0,2.381-5.928c1.095-3.153,2.19-6.306,3.175-9.5a18.935,18.935,0,0,1,1.741-4.423C777.467,432.008,778.682,430.262,780.237,429.972Z" transform="translate(-387.349 -282.599)" fill="#f9a826"/>
    <path id="Path_1918" data-name="Path 1918" d="M765.676,478.879l2.036.071.432-3.071a6.421,6.421,0,0,1,.427-1.8,11.289,11.289,0,0,1,1.172-1.713c2-2.83,1.856-6.569,2.354-10.023.662-4.587,2.578-8.879,4.472-13.1l3.963-8.808a9.635,9.635,0,0,0,1.095-4.861c.038-1.363.438-6.312.476-7.664,0-.5-1.095-.224-1.341-.673-.493-.98-1.172,1.675-2.1,2.255a5.161,5.161,0,0,0-1.828,2.66c-.854,2.217-1.374,4.549-2.19,6.788a14.378,14.378,0,0,1-3.689,6.021c-.81.712-1.741,1.27-2.507,2.031-2.458,2.431-2.7,6.268-2.786,9.733C765.621,458.762,765.205,478.879,765.676,478.879Z" transform="translate(-389.867 -281.539)" fill="#2f2e41"/>
    <path id="Path_1919" data-name="Path 1919" d="M804.035,423.567c-1.976.777-3.06,2.923-3.613,4.981s-.783,4.259-1.845,6.1c-2.485,4.319-8.813,5.578-10.56,10.247a19.979,19.979,0,0,0-.706,4.828c-.318,3.345-1.418,6.569-1.741,9.919a43.66,43.66,0,0,0,.181,7.8l2.19,26.379a34.781,34.781,0,0,1-.662,11.6,11.154,11.154,0,0,0,6.645-1.095c2.075-.947,3.974-2.25,5.972-3.35,3.438-1.9,7.231-3.241,10.242-5.77a5.905,5.905,0,0,0,1.379-1.527,12.747,12.747,0,0,0,.942-3.476,18.951,18.951,0,0,1,.991-2.737,81.487,81.487,0,0,0,2.879-8.134,44.261,44.261,0,0,0,1.319-5.583c.241-1.5.372-3.022.5-4.538a27.247,27.247,0,0,1,1.4-6.974,55.967,55.967,0,0,0,3.235-16.707,8.576,8.576,0,0,0-.17-2.458,13.618,13.618,0,0,0-1.336-2.792c-.92-1.73-1.473-3.635-2.337-5.4-1.96-3.969-5.425-6.985-9.049-9.508C808.135,424.142,806.055,422.779,804.035,423.567Z" transform="translate(-398.928 -279.868)" fill="#2f2e41"/>
    <path id="Path_1920" data-name="Path 1920" d="M715.021,495.061a15.909,15.909,0,0,1-4.21-3.2c-.547-.646-1.007-1.374-1.571-2.009a10.313,10.313,0,0,0-5.3-3.022,25.92,25.92,0,0,0-6.136-.6,11.26,11.26,0,0,0-4.084.493,4.1,4.1,0,0,0-2.7,2.907c-.3,1.642.772,3.235,2.058,4.292a9.93,9.93,0,0,0,4.117,2,33.741,33.741,0,0,0,3.717.433c7.324.766,13.86,4.751,20.254,8.381q8.457,4.79,17.238,8.945a34.914,34.914,0,0,0,.29-5.293c-.033-1.319-.1-3.334-1.347-4.111-1.451-.9-3.832-1.095-5.474-1.642a88.2,88.2,0,0,1-11.03-4.461Q717.879,496.719,715.021,495.061Z" transform="translate(-356.154 -308.325)" fill="#fbbebe"/>
    <ellipse id="Ellipse_52" data-name="Ellipse 52" cx="13.121" cy="13.05" rx="13.121" ry="13.05" transform="matrix(0.254, -0.967, 0.967, 0.254, 375.262, 141.917)" fill="#fbbebe"/>
    <path id="Path_1921" data-name="Path 1921" d="M799.6,449.56a21.026,21.026,0,0,0-2.534,4.719c-1.609,3.317-4.138,6.164-5.4,9.634-1.336,3.657-1.292,8-3.908,10.877a3.762,3.762,0,0,0-1.133,1.642,8.76,8.76,0,0,1-.137,1.2c-.372,1.04-2.08,1.095-2.4,2.157-.093.312-.044.651-.159.958-.263.684-1.166.788-1.774,1.2-1.27.859-1.013,2.852-1.916,4.095a3.432,3.432,0,0,1-3.284,1.139,11.67,11.67,0,0,1-3.383-1.265,3.116,3.116,0,0,0-1.215-.378,2.557,2.557,0,0,0-1.407.476c-2.409,1.533-3.542,4.571-3.525,7.439a24.386,24.386,0,0,0,2.009,8.31A3.609,3.609,0,0,0,770.1,503a2.911,2.911,0,0,0,3.252.241,14.829,14.829,0,0,1,3.164-1.418c2.02-.367,4,1.024,6.021.909a8.463,8.463,0,0,0,4.073-1.8,22.363,22.363,0,0,0,5.474-4.642c.9-1.171,1.555-2.5,2.337-3.755a43.434,43.434,0,0,1,3.284-4.379l7.521-9.207a19.872,19.872,0,0,0,2.025-2.8,19.639,19.639,0,0,0,1.577-4.2,32.321,32.321,0,0,0,1.56-7.494,29.555,29.555,0,0,0-.547-6.279A21.779,21.779,0,0,0,808.2,452.2C806.647,448.783,802.667,445.975,799.6,449.56Z" transform="translate(-390.757 -290.983)" fill="#2f2e41"/>
    <path id="Path_1922" data-name="Path 1922" d="M820.018,397.883a14.687,14.687,0,0,0-2.8-13.083A17.437,17.437,0,0,0,807.2,364.584a16.944,16.944,0,0,0-32.51-7.625c-4.927-2.556-10.138-2.283-11.857.723-1.8,3.142.9,8.085,6.021,11.036a16.055,16.055,0,0,0,5.217,1.932,16.97,16.97,0,0,0,9.443,10,17.4,17.4,0,0,0,8.978,15.957,14.539,14.539,0,0,0,2.425,6.257,10.963,10.963,0,0,0-.383,1.2,11.047,11.047,0,1,0,21.354,5.616,11.693,11.693,0,0,0,.219-4.987A14.834,14.834,0,0,0,820.018,397.883Z" transform="translate(-388.428 -245.163)" fill="#3f3d56"/>
    <path id="Path_1923" data-name="Path 1923" d="M766.213,359.269c1.719-3.005,6.925-3.284,11.857-.723a17.233,17.233,0,0,1,19.92-9.76c.367.093.728.208,1.095.328a16.537,16.537,0,0,0-4.467-1.916,17.245,17.245,0,0,0-19.92,9.76c-4.927-2.556-10.138-2.283-11.857.723-1.8,3.142.9,8.085,6.021,11.036a17.133,17.133,0,0,0,3.022,1.369C766.99,367.1,764.461,362.335,766.213,359.269Z" transform="translate(-388.433 -245.163)" opacity="0.1"/>
    <path id="Path_1924" data-name="Path 1924" d="M807.878,426.042a10.953,10.953,0,0,1,.383-1.2,14.56,14.56,0,0,1-2.425-6.262,17.385,17.385,0,0,1-8.977-15.951,16.969,16.969,0,0,1-9.443-10,15.1,15.1,0,0,1-3.126-.914,16.909,16.909,0,0,0,9.18,9.306,17.4,17.4,0,0,0,8.977,15.957,14.539,14.539,0,0,0,2.425,6.257,10.948,10.948,0,0,0-.383,1.2,11.238,11.238,0,0,0,7.713,13.844A11.408,11.408,0,0,1,807.878,426.042Z" transform="translate(-398.392 -265.56)" opacity="0.1"/>
    <ellipse id="Ellipse_53" data-name="Ellipse 53" cx="2.009" cy="2.688" rx="2.009" ry="2.688" transform="translate(392.001 133.993) rotate(-37.22)" fill="#fbbebe"/>
    <circle id="Ellipse_54" data-name="Ellipse 54" cx="8.917" cy="8.917" r="8.917" transform="translate(227.457 3.7)" fill="#3f3d56"/>
    <ellipse id="Ellipse_55" data-name="Ellipse 55" cx="25.011" cy="32.406" rx="25.011" ry="32.406" transform="translate(230.714 0)" fill="#3f3d56"/>
    <path id="Path_1925" data-name="Path 1925" d="M525.806,239.022c-12.53,0-22.909-11.939-24.732-27.513a42.2,42.2,0,0,0-.285,4.894c0,17.895,11.2,32.406,25.016,32.406S550.817,234.3,550.817,216.4a42.2,42.2,0,0,0-.285-4.894C548.715,227.105,538.336,239.022,525.806,239.022Z" transform="translate(-270.081 -183.997)" opacity="0.1"/>
    <path id="Path_1926" data-name="Path 1926" d="M612.558,386.414c-.547,2.19-2.852,3.974-5.414,5.206-5.4,2.6-12.043,3.372-18.5,3.635a31.027,31.027,0,0,1-4.927-.093,14.157,14.157,0,0,1-8.463-3.892,1.56,1.56,0,0,1-.547-.887,1.577,1.577,0,0,1,.547-1.095c3.443-3.755,9.18-6.065,14.939-7.707,4.379-1.265,12.01-4.538,16.789-4.095C611.627,377.886,613.236,383.623,612.558,386.414Z" transform="translate(-303.537 -259.099)" fill="#3f3d56"/>
    <path id="Path_1927" data-name="Path 1927" d="M612.558,386.414c-.547,2.19-2.852,3.974-5.414,5.206-5.4,2.6-12.043,3.372-18.5,3.635a31.027,31.027,0,0,1-4.927-.093,14.157,14.157,0,0,1-8.463-3.892,1.56,1.56,0,0,1-.547-.887,1.577,1.577,0,0,1,.547-1.095c3.443-3.755,9.18-6.065,14.939-7.707,4.379-1.265,12.01-4.538,16.789-4.095C611.627,377.886,613.236,383.623,612.558,386.414Z" transform="translate(-303.537 -259.099)" opacity="0.1"/>
    <path id="Path_1928" data-name="Path 1928" d="M517.359,333.9a13.652,13.652,0,0,0-.827,10.4,18.19,18.19,0,0,0,6.1,8.638c6.99,5.611,16.581,6.383,25.52,6.312a197.418,197.418,0,0,0,23.44-1.609,28.112,28.112,0,0,0,7.6-1.763,11.7,11.7,0,0,0,6.52-6.569,7.977,7.977,0,0,0-2.19-8.693c-2.19-1.763-5.162-2-7.948-2.19l-15.957-.958c1.577-1.6,3.673-2.5,5.594-3.657,2.545-1.544,4.237-4.127,6.093-6.454a83.735,83.735,0,0,1,9.306-9.552,13.9,13.9,0,0,0,4.62,7.483c2.217,2.058,4.773,3.711,7.083,5.666,5.583,4.741,9.6,11.178,15.475,15.557a30.326,30.326,0,0,0,11.1-5.54l-2.283-4.133a2.737,2.737,0,0,0-.859-1.095c-.651-.394-1.484-.192-2.233-.3-2-.3-2.879-2.617-3.668-4.483-2.157-5.135-6.3-9.114-9.853-13.417a67.228,67.228,0,0,1-6.87-10.165,34.7,34.7,0,0,0-3.887-6.224,8.731,8.731,0,0,0-6.317-3.284c-2.19,0-4.16,1.095-6.021,2.19a159.574,159.574,0,0,0-16.335,11.129c-2.737,2.113-5.436,4.352-8.633,5.649-1.347.547-2.737.92-4.056,1.582-2.261,1.166-3.98,3.137-5.83,4.883A38.733,38.733,0,0,1,517.359,333.9Z" transform="translate(-276.906 -223.084)" fill="#605d82"/>
    <path id="Path_1929" data-name="Path 1929" d="M562.6,259.094a16.3,16.3,0,0,1-1.2,5.556,6.925,6.925,0,0,1-3.985,3.832,8.545,8.545,0,0,1-3.887.126,7.51,7.51,0,0,1-3.169-1.095,6.762,6.762,0,0,1-2.513-4.658c-.274-1.8-.148-3.629-.323-5.436a29.843,29.843,0,0,0-.832-4.324c-.115-.471-.235-.942-.356-1.412s-.224-.942-.328-1.412-.186-.881-.263-1.33-.12-.755-.159-1.133a12.8,12.8,0,0,0-.547-3.328,9.983,9.983,0,0,0-1.166-1.971,7.356,7.356,0,0,1-.547-.859,4.073,4.073,0,0,1-.673-2.589,2.189,2.189,0,0,1,.1-.416,1.278,1.278,0,0,1,.06-.153,1.248,1.248,0,0,0,.848-.794,2.371,2.371,0,0,0-.1-1.232,7.663,7.663,0,0,0-.662-1.582c-.181-.328-.8-.925-.8-1.3,0-.761,1.478-1.374,2.08-1.675a11.578,11.578,0,0,1,5.945-1.2,4.367,4.367,0,0,1,3.465,1.6c.657.991.547,2.277.849,3.432a.953.953,0,0,0,.2.46.93.93,0,0,0,.514.235,3.065,3.065,0,0,0,.974.038h0a1.389,1.389,0,0,0,.257-.038,3.448,3.448,0,0,0,1.4-.6c.274-.077.547-.131.816-.181h.033c1.095,3.438,1.232,7.116,2.124,10.631a25.812,25.812,0,0,1,1.166,5.255v.235c0,.58-.033,1.161,0,1.735a5.131,5.131,0,0,0,.088.766,11.7,11.7,0,0,0,.361,1.2h0c.038.126.077.252.11.383a2.618,2.618,0,0,1,.066.279h0A10.333,10.333,0,0,1,562.6,259.094Z" transform="translate(-288.773 -192.671)" fill="#fbbebe"/>
    <circle id="Ellipse_56" data-name="Ellipse 56" cx="12.831" cy="12.831" r="12.831" transform="translate(245.729 18.272)" fill="#fbbebe"/>
    <path id="Path_1930" data-name="Path 1930" d="M638.952,297.748a21.059,21.059,0,0,0-3.618-9.738l1,5.939a2.228,2.228,0,0,1-2.327-.717,7.119,7.119,0,0,1-1.221-2.266,46.531,46.531,0,0,0-5.677-10.182c-8.167-.684-16.247-4.067-23.429-8.019s-13.91-8.676-21-12.787a30.8,30.8,0,0,0-3.832-1.96c-2.217-.887-4.708-1.347-6.81-2.392l-.422-.224a8.478,8.478,0,0,1-1.347-.9,7.318,7.318,0,0,1-.641-.6,14.09,14.09,0,0,1-2.463-4.111c-1.128-2.5-1.533-5.512-2.655-8.009a7.932,7.932,0,0,1,1.724-1.221h0l.274-.137a8.375,8.375,0,0,1,1.385-.5c.274-.077.547-.131.816-.181h.033a8.052,8.052,0,0,1,3.8.3,17.733,17.733,0,0,1,4.8,2.956,78.207,78.207,0,0,1,7.018,5.562c1.237,1.188,2.37,2.491,3.7,3.569a29.361,29.361,0,0,0,3.5,2.321L613.2,267.345c2.441,1.451,4.888,2.907,7.275,4.45,3.629,2.337,7.116,4.872,10.62,7.406l6.18,4.478a6.776,6.776,0,0,1,1.752,1.642,5.88,5.88,0,0,1,.772,2.37A21.688,21.688,0,0,1,638.952,297.748Z" transform="translate(-298.921 -196.73)" fill="#fbbebe"/>
    <path id="Path_1931" data-name="Path 1931" d="M551.725,272.874c-.87,3.881-4.79,6.229-6.843,9.64-2.551,4.231-1.511,9.153-.547,14l-5.25,4.522c-.963.827-1.932,1.642-2.967,2.392a39.893,39.893,0,0,1-4.746,2.737l-4.642,2.387a22.253,22.253,0,0,1-4.549,1.927,17.537,17.537,0,0,1-9.306-.668,4.152,4.152,0,0,1-1.018-.416,1.671,1.671,0,0,1-.482-.438,2.677,2.677,0,0,1-.307-1.757,82.569,82.569,0,0,1,2.786-14.993,43.609,43.609,0,0,1,6.372-15.721,46.214,46.214,0,0,1,5.474-7.954,12.774,12.774,0,0,0,2.54-3.284c.772-1.763.471-3.783.63-5.7A11.819,11.819,0,0,1,530,255.4h0a11.907,11.907,0,0,1,1.2-1.993c.214.493.422.985.635,1.473l.411.963c.181.411.356.827.547,1.237q.766,1.763,1.522,3.531a14.779,14.779,0,0,0,2.3,4.111,4.489,4.489,0,0,0,7.686-.591,14.537,14.537,0,0,0,1.571-4.155,13.224,13.224,0,0,0,.175-5.414c-.547-3.465-2-7-3.065-10.22a10.306,10.306,0,0,1-.745-3.367,1.876,1.876,0,0,1,.038-.389v-.1a8.378,8.378,0,0,1,1.385-.5c.274-.077.547-.131.816-.181q1.412,7.664,2.83,15.294a2.112,2.112,0,0,0,.071.361c.131.734.268,1.462.422,2.19s.285,1.319.449,1.971h0c.055.219.115.443.175.662h0c.17.6.356,1.193.547,1.785C550.313,265.638,552.541,269.2,551.725,272.874Z" transform="translate(-274.717 -196.801)" fill="#f9a826"/>
    <path id="Path_1932" data-name="Path 1932" d="M680.5,389.761a4.458,4.458,0,0,0,.422,2.19c.8,1.467,2.737,1.8,4.379,1.938A130.076,130.076,0,0,0,714.519,393a3.422,3.422,0,0,0,1.489-.465c1.374-.963.547-3.312-.974-4.067s-3.285-.547-4.927-.892a15.661,15.661,0,0,1-4.62-2q-5.009-2.879-9.853-6.021c-1.932-1.243-4.215-2.567-6.388-1.828C683.338,379.717,680.459,383.406,680.5,389.761Z" transform="translate(-351.414 -259.129)" fill="#2f2e41"/>
    <path id="Path_1933" data-name="Path 1933" d="M515.82,256.853h0l-.049.268-.082.449c-.268,1.379-.6,2.737-.98,4.122-1.046,3.772-2.441,7.488-3.832,11.145L499.7,302.288c-.942,2.474-1.878,4.927-2.945,7.368-.356.8-.723,1.642-1.095,2.441a33.884,33.884,0,0,0-2.983,9.114,19.159,19.159,0,0,0-.137,6.246,6.338,6.338,0,0,0,3.618,4.817c.952.372,2.316.87,2.053,1.861-.137.547-.755.81-1.314.9a5.031,5.031,0,0,1-4.122-1.188c-1.04-.92-1.845-2.359-3.23-2.513a5.609,5.609,0,0,0-2.737.87c-3.586,1.642-7.757.493-11.523-.673a4.04,4.04,0,0,1,3.345-2.83,27.366,27.366,0,0,1,4.647-.131,2.42,2.42,0,0,0,1.412-.367,2.6,2.6,0,0,0,.783-1.281,54.614,54.614,0,0,0,2.217-9.087c.5-3.23.712-6.5,1.423-9.689.547-2.485,1.412-4.894,2.146-7.335a154.014,154.014,0,0,0,3.5-15.262,53.833,53.833,0,0,0,.985-6.47c.126-1.806.066-3.624.241-5.419a42.02,42.02,0,0,1,1.456-6.908c.668-2.469,1.33-4.927,2-7.39.985-3.646,2.042-7.428,4.538-10.258a9.64,9.64,0,0,1,6.93-3.312,6.63,6.63,0,0,1,1.472.159l.241.06a5.8,5.8,0,0,1,1.505.624c.772-.493,1.161-.318,1.675.432a4.856,4.856,0,0,1,.608,2.628A36.419,36.419,0,0,1,515.82,256.853Z" transform="translate(-258.54 -199.512)" fill="#fbbebe"/>
    <path id="Path_1934" data-name="Path 1934" d="M546.113,259.533l-.033.033-.175.175-1.746,1.746-.859-3.6-2.94-12.339a6.63,6.63,0,0,1,1.473.159,2.19,2.19,0,0,1,.1-.416l.137.476,1,3.388,1.889,6.432.312,1.062h0Z" transform="translate(-287.991 -199.286)" fill="#f9a826"/>
    <rect id="Rectangle_20" data-name="Rectangle 20" width="27.841" height="17.402" rx="8.701" transform="translate(246.655 12.18)" fill="#3f3d56"/>
    <circle id="Ellipse_57" data-name="Ellipse 57" cx="8.917" cy="8.917" r="8.917" transform="translate(267.204 3.7)" fill="#3f3d56"/>
    <path id="Path_1935" data-name="Path 1935" d="M583.088,167.986h-.328a8.917,8.917,0,0,1,0,17.818h.328a8.917,8.917,0,1,0,0-17.834Z" transform="translate(-307.181 -164.291)" opacity="0.1"/>
    <path id="Path_1936" data-name="Path 1936" d="M503.767,167.986h.328a8.917,8.917,0,0,0,0,17.818h-.328a8.917,8.917,0,0,1,0-17.834Z" transform="translate(-267.393 -164.291)" opacity="0.1"/>
    <path id="Path_1937" data-name="Path 1937" d="M560.438,209.946h-22.6a2.611,2.611,0,0,1-2.611-2.606v1.735a2.617,2.617,0,0,0,2.611,2.611H560.46a2.617,2.617,0,0,0,2.611-2.611V207.34a2.616,2.616,0,0,1-2.633,2.606Z" transform="translate(-285.669 -182.11)" opacity="0.1"/>
    <path id="Path_1938" data-name="Path 1938" d="M707.516,355s1.412.246,1.642-.9a63.784,63.784,0,0,0-.717-7.576c-.214-1.73-.443-3.454-.63-4.834-.224-1.691-.389-2.857-.389-2.857l-.257-.854-1.522-5.113-1.434-4.817-1.057-1.894-7.6,3.7-4.73,8.173,1.467.925.257.164,2.7,2.825,7.565,7.937,3.4,3.575.4.416Z" transform="translate(-356.088 -235.887)" fill="#ffe09c"/>
    <path id="Path_1939" data-name="Path 1939" d="M700.086,320.22s-8.331,3.909-10.335,8.156a23.481,23.481,0,0,0-2.108,5.474s-.547,1.735,2.907,2.162c0,0,1.571-6.377,6.284-9.147l4.719-2.764Z" transform="translate(-354.636 -233.199)" fill="#e7c4c3"/>
    <ellipse id="Ellipse_58" data-name="Ellipse 58" cx="2.842" cy="2.408" rx="2.842" ry="2.408" transform="translate(342.234 98.331) rotate(-74.995)" fill="#ff7f8e"/>
    <ellipse id="Ellipse_59" data-name="Ellipse 59" cx="2.83" cy="2.398" rx="2.83" ry="2.398" transform="translate(341.356 108.242) rotate(-75.08)" fill="#ff7f8e"/>
    <path id="Path_1940" data-name="Path 1940" d="M696.474,350.471a2.967,2.967,0,0,0,1.768-2.053,2.43,2.43,0,1,0-4.631-1.237,2.126,2.126,0,0,0-.071.312l.257.164Z" transform="translate(-357.319 -244.412)" fill="#ff7f8e"/>
    <path id="Path_1941" data-name="Path 1941" d="M716.081,343.845a2.19,2.19,0,0,0,1.768-.312l-1.522-5.113a2.945,2.945,0,0,0-1.839,2.075A2.634,2.634,0,0,0,716.081,343.845Z" transform="translate(-366.75 -241.436)" fill="#ff7f8e"/>
    <path id="Path_1942" data-name="Path 1942" d="M717.694,359.928a2.31,2.31,0,0,0,2.162-.613c-.214-1.73-.443-3.454-.63-4.833h-.071a2.642,2.642,0,0,0-3.049,2.118A2.614,2.614,0,0,0,717.694,359.928Z" transform="translate(-367.481 -248.674)" fill="#ff7f8e"/>
    <path id="Path_1943" data-name="Path 1943" d="M716.111,372.475a3.347,3.347,0,0,0,.356-.848,2.634,2.634,0,0,0-1.588-3.35,2.31,2.31,0,0,0-2.19.624Z" transform="translate(-365.986 -254.92)" fill="#ff7f8e"/>
    <path id="Path_1944" data-name="Path 1944" d="M711.577,334.18l.876.235a5.014,5.014,0,0,0-.6,2.053,1.367,1.367,0,0,0,0,.142c.115.9-.876-.235-.876-.235S711.15,334.519,711.577,334.18Z" transform="translate(-365.212 -239.517)" fill="#94cc79"/>
    <path id="Path_1945" data-name="Path 1945" d="M704.291,344.5l.881.235a4.89,4.89,0,0,0-.6,2.047,1.231,1.231,0,0,0,0,.142c.115.9-.876-.235-.876-.235S703.864,344.834,704.291,344.5Z" transform="translate(-361.917 -244.188)" fill="#94cc79"/>
    <path id="Path_1946" data-name="Path 1946" d="M709.267,347.91l.876.23a5.013,5.013,0,0,0-.6,2.053,1.258,1.258,0,0,0,0,.142c.12.9-.876-.235-.876-.235S708.851,348.244,709.267,347.91Z" transform="translate(-364.167 -245.731)" fill="#94cc79"/>
    <path id="Path_1947" data-name="Path 1947" d="M715.671,356.52l.881.23a4.928,4.928,0,0,0-.6,2.053,1.216,1.216,0,0,0,0,.142c.115.9-.876-.235-.876-.235S715.25,356.854,715.671,356.52Z" transform="translate(-367.068 -249.628)" fill="#94cc79"/>
    <path id="Path_1948" data-name="Path 1948" d="M719.657,370.69l.876.235a5.007,5.007,0,0,0-.6,2.047,1.108,1.108,0,0,0,0,.142c.12.9-.876-.23-.876-.23S719.23,371.024,719.657,370.69Z" transform="translate(-368.869 -256.042)" fill="#94cc79"/>
    <path id="Path_1949" data-name="Path 1949" d="M710.986,360.78l.876.235a4.926,4.926,0,0,0-.586,2.075,1.153,1.153,0,0,0,0,.142c.115.9-.876-.23-.876-.23S710.564,361.114,710.986,360.78Z" transform="translate(-364.95 -251.556)" fill="#94cc79"/>
    <path id="Path_1950" data-name="Path 1950" d="M713.087,320.294s-1.254-2.841-2.737-.723a10.05,10.05,0,0,0,1.642,4.817s4.538,12.344,4.16,14.233c0,0,1.79,11.922,1.347,12.59,0,0,.493.843.843-2.326s-1.188-12.481-1.188-12.481l-2.25-9.678-1.505-3.284Z" transform="translate(-364.927 -232.55)" fill="#e7c4c3"/>
    <path id="Path_1951" data-name="Path 1951" d="M713.087,320.294s-1.254-2.841-2.737-.723a10.05,10.05,0,0,0,1.642,4.817s4.538,12.344,4.16,14.233c0,0,1.79,11.922,1.347,12.59,0,0,.493.843.843-2.326s-1.188-12.481-1.188-12.481l-2.25-9.678-1.505-3.284Z" transform="translate(-364.927 -232.55)" fill="#fff" opacity="0.2"/>
    <path id="Path_1952" data-name="Path 1952" d="M687.85,327.071s2.25,6.481,4.308,4.757l-1.642-8.468Z" transform="translate(-354.744 -234.62)" fill="#fbbebe"/>
    <path id="Path_1953" data-name="Path 1953" d="M398.354,378.77s19.843,33.43,24.48,37.9c0,0,19.827,20.582,9.749,19.159-.739-.1-15.251-12.371-16.1-14.386S388.2,383.784,388.2,383.784l3.914-3.6Z" transform="translate(-219.124 -259.698)" fill="#a0616a"/>
    <path id="Path_1954" data-name="Path 1954" d="M398.354,378.77s19.843,33.43,24.48,37.9c0,0,19.827,20.582,9.749,19.159-.739-.1-15.251-12.371-16.1-14.386S388.2,383.784,388.2,383.784l3.914-3.6Z" transform="translate(-219.124 -259.698)" opacity="0.1"/>
    <path id="Path_1955" data-name="Path 1955" d="M436.306,574.278s-6.35,7.937-3.7,11.112,15.847,9.246,20.106,8.994c4.5-.263,19.581.547,20.112-6.35,0,0,1.057-3.175-12.7-3.706s-9.53-14.818-9.53-14.818Z" transform="translate(-238.929 -346.026)" fill="#2f2e41"/>
    <path id="Path_1956" data-name="Path 1956" d="M300.82,453.157s-6.35,21.694,12.7,25.4l20.637-1.057s29.106-5.824,37.048-1.587c0,0,3.175.547,2.113,4.762s1.587,32.811,1.587,32.811v9.525s17.993,0,20.112-2.118c0,0-1.587-8.468,0-15.327s-2.644-28.58-2.644-28.58l-.421-13.034a9.1,9.1,0,0,0-4.8-7.839,7.117,7.117,0,0,0-3.246-.827s-35.986-5.819-48.686-4.762S300.82,453.157,300.82,453.157Z" transform="translate(-179.116 -292.116)" fill="#605d82"/>
    <path id="Path_1957" data-name="Path 1957" d="M358.541,328.79s9.525,11.112,10.581,14.818,12.722,13.214,12.722,13.214-8.468,6.35-6.881,9.525-11.112-10.581-11.112-10.581L349,334.083Z" transform="translate(-201.382 -237.078)" fill="#f9a826"/>
    <path id="Path_1958" data-name="Path 1958" d="M358.541,328.79s9.525,11.112,10.581,14.818,12.722,13.214,12.722,13.214-8.468,6.35-6.881,9.525-11.112-10.581-11.112-10.581L349,334.083Z" transform="translate(-201.382 -237.078)" opacity="0.1"/>
    <path id="Path_1959" data-name="Path 1959" d="M357.865,301.707s-4.762,15.327-4.762,21.168-20.112-1.587-19.581-4.762,11.643-14.818,12.174-19.581S357.865,301.707,357.865,301.707Z" transform="translate(-194.372 -222.694)" fill="#a0616a"/>
    <path id="Path_1960" data-name="Path 1960" d="M326.1,324.652s-18.524-4.762-21.168,22.23,2.113,30.162-5.824,46.568,53.98,2.118,53.98,2.118-3.175-3.706-13.231-2.118L335.1,379.163s-1.587-6.35,7.412-6.35,4.762-18.524,4.762-18.524-4.762-15.875-7.412-17.462S332.468,325.714,326.1,324.652Z" transform="translate(-178.483 -235.058)" opacity="0.1"/>
    <path id="Path_1961" data-name="Path 1961" d="M326.1,322.732s-18.524-4.762-21.168,22.225,2.113,30.168-5.824,46.573,53.98,2.118,53.98,2.118-3.175-3.706-13.231-2.118L335.1,377.243s-1.571-6.339,7.428-6.339,4.762-18.524,4.762-18.524-4.762-15.875-7.412-17.462S332.468,323.783,326.1,322.732Z" transform="translate(-178.483 -234.189)" fill="#f9a826"/>
    <circle id="Ellipse_60" data-name="Ellipse 60" cx="17.462" cy="17.462" r="17.462" transform="translate(141.285 53.613)" fill="#a0616a"/>
    <path id="Path_1962" data-name="Path 1962" d="M283.83,269.4l43.885,26.232,40.831-38.045L319.871,240.63l-35.028,23.845Z" transform="translate(-128.455 -108.908)" fill="#dadae5"/>
    <path id="Path_1963" data-name="Path 1963" d="M360.55,151.836,347.1,193.121l48.779,15.743,20.5-58.255Z" transform="translate(-157.091 -68.165)" fill="none"/>
    <path id="Path_1964" data-name="Path 1964" d="M367.148,157.976,353.49,198.594l45.281,13.023L418.1,156.69Z" transform="translate(-159.983 -70.917)" fill="#dadae5"/>
    <path id="Path_1965" data-name="Path 1965" d="M371.78,152.546l3.706,3.388,50.952-1.286,1.171-3.328Z" transform="translate(-168.261 -68.487)" opacity="0.03"/>
    <path id="Path_1966" data-name="Path 1966" d="M347.21,194.84l13.45-41.28,3.706,3.388-13.313,39.6Z" transform="translate(-157.141 -69.5)" opacity="0.03"/>
    <path id="Path_1967" data-name="Path 1967" d="M371.67,151.836l3.706,3.388,50.952-1.286,1.171-3.328Z" transform="translate(-168.211 -68.165)" fill="#eff0f4"/>
    <path id="Path_1968" data-name="Path 1968" d="M347.1,194.135l13.45-41.285,3.706,3.388-13.313,39.6Z" transform="translate(-157.091 -69.179)" fill="#eff0f4"/>
    <path id="Path_1969" data-name="Path 1969" d="M371.67,151.836l5.666,5.3,50.958-1.286-.794-5.239Z" transform="translate(-168.211 -68.165)" opacity="0.03"/>
    <path id="Path_1970" data-name="Path 1970" d="M347.1,194.135l13.45-41.285,5.666,5.3-13.313,39.6Z" transform="translate(-157.091 -69.179)" opacity="0.03"/>
    <path id="Path_1971" data-name="Path 1971" d="M347.26,229.33l1.237,7.855,48.976,17-1.429-9.114Z" transform="translate(-157.163 -103.794)" opacity="0.03"/>
    <path id="Path_1972" data-name="Path 1972" d="M281.12,255.146l36.205-25.816,1.582,7.85L283.342,263.63Z" transform="translate(-127.229 -103.794)" opacity="0.03"/>
    <path id="Path_1973" data-name="Path 1973" d="M347.1,228.27l1.062,6.771,48.976,17-1.259-8.03Z" transform="translate(-157.091 -103.314)" fill="#eff0f4"/>
    <path id="Path_1974" data-name="Path 1974" d="M280.95,254.08l36.211-25.81,1.407,6.766L283,261.487Z" transform="translate(-127.152 -103.314)" fill="#eff0f4"/>
    <path id="Path_1975" data-name="Path 1975" d="M347.1,228.27l1.062,6.771,48.976,17-1.259-8.03Z" transform="translate(-157.091 -103.314)" opacity="0.03"/>
    <path id="Path_1976" data-name="Path 1976" d="M280.95,254.08l36.211-25.81,1.407,6.766L283,261.487Z" transform="translate(-127.152 -103.314)" opacity="0.03"/>
    <path id="Path_1977" data-name="Path 1977" d="M280.95,275.42l1.637,9.76,43.765,26.15-1.078-10.045Z" transform="translate(-127.152 -124.654)" fill="#cccad6"/>
    <path id="Path_1978" data-name="Path 1978" d="M396.517,423.712s-.761,1.451.4,2.118a74.081,74.081,0,0,0,8.479,1.839c1.949.361,3.9.712,5.474.985,1.916.339,3.241.547,3.241.547h1.007l6.087.115,5.726.109,2.425-.5-1.4-9.514-7.248-7.965-1.516,1.281-.257.219-3.985,1.938-11.244,5.474-5.058,2.463-.591.29Z" transform="translate(-222.777 -274.489)" fill="#ffe09c"/>
    <path id="Path_1979" data-name="Path 1979" d="M452.726,427.011s-1.363-10.4-5.293-14.046c0,0-3.23-3.284-5.217-4.182,0,0-1.691-1.2-3.356,2.414,0,0,6.388,3.908,7.768,9.99L448,427.268Z" transform="translate(-242.052 -273.196)" fill="#e7c4c3"/>
    <ellipse id="Ellipse_61" data-name="Ellipse 61" cx="2.737" cy="3.23" rx="2.737" ry="3.23" transform="translate(196.073 148.933) rotate(-57.43)" fill="#ff7f8e"/>
    <ellipse id="Ellipse_62" data-name="Ellipse 62" cx="2.737" cy="3.23" rx="2.737" ry="3.23" transform="translate(186.088 146.675) rotate(-57.43)" fill="#ff7f8e"/>
    <path id="Path_1980" data-name="Path 1980" d="M430.4,415.975a3.367,3.367,0,0,0,1.642,2.633,2.764,2.764,0,1,0,2.94-4.587,3.651,3.651,0,0,0-.318-.181l-.257.219Z" transform="translate(-238.223 -275.571)" fill="#ff7f8e"/>
    <path id="Path_1981" data-name="Path 1981" d="M430.887,439.276a2.518,2.518,0,0,0-.279,2.031l6.087.115a3.339,3.339,0,0,0-1.642-2.737A3.01,3.01,0,0,0,430.887,439.276Z" transform="translate(-238.272 -286.561)" fill="#ff7f8e"/>
    <path id="Path_1982" data-name="Path 1982" d="M412.77,435.453a2.617,2.617,0,0,0-.077,2.562c1.949.361,3.9.712,5.474.985l.049-.071a3.276,3.276,0,0,0-5.447-3.476Z" transform="translate(-230.074 -284.835)" fill="#ff7f8e"/>
    <path id="Path_1983" data-name="Path 1983" d="M400.62,430.231a3.879,3.879,0,0,0,.8.679,3.024,3.024,0,0,0,4.188-.547,2.611,2.611,0,0,0,.071-2.573Z" transform="translate(-224.745 -281.885)" fill="#ff7f8e"/>
    <path id="Path_1984" data-name="Path 1984" d="M445.9,438.08l-.547.87a5.643,5.643,0,0,0-2.02-1.352l-.159-.038c-1.024-.186.547-.87.547-.87S445.686,437.506,445.9,438.08Z" transform="translate(-243.848 -285.913)" fill="#94cc79"/>
    <path id="Path_1985" data-name="Path 1985" d="M437.212,426.6l-.547.876a5.633,5.633,0,0,0-2.02-1.358l-.159-.038c-1.018-.181.547-.87.547-.87S437,426.026,437.212,426.6Z" transform="translate(-239.916 -280.717)" fill="#94cc79"/>
    <path id="Path_1986" data-name="Path 1986" d="M431.79,430.85l-.547.87a5.644,5.644,0,0,0-2.02-1.352l-.159-.038c-1.024-.186.547-.87.547-.87S431.571,430.265,431.79,430.85Z" transform="translate(-237.462 -282.641)" fill="#94cc79"/>
    <path id="Path_1987" data-name="Path 1987" d="M420.22,434.85l-.547.876a5.633,5.633,0,0,0-2.02-1.358l-.159-.038c-1.024-.181.547-.87.547-.87S420,434.254,420.22,434.85Z" transform="translate(-232.225 -284.451)" fill="#94cc79"/>
    <path id="Path_1988" data-name="Path 1988" d="M403.457,434.25l-.547.876a5.671,5.671,0,0,0-2.025-1.358l-.159-.038c-1.018-.181.547-.87.547-.87S403.233,433.67,403.457,434.25Z" transform="translate(-224.637 -284.179)" fill="#94cc79"/>
    <path id="Path_1989" data-name="Path 1989" d="M417.21,428.246l-.547.87a5.633,5.633,0,0,0-2.02-1.358l-.159-.038c-1.024-.181.547-.87.547-.87S416.991,427.666,417.21,428.246Z" transform="translate(-230.863 -281.459)" fill="#94cc79"/>
    <path id="Path_1990" data-name="Path 1990" d="M431.823,442.3s3.52-.383,1.724-2.7a11.419,11.419,0,0,0-5.792.1s-14.982.668-16.926-.405c0,0-13.576-2.19-14.123-2.879,0,0-1.095.241,2.233,1.719s13.975,3.022,13.975,3.022l11.293.9,4.062-.5Z" transform="translate(-222.896 -285.791)" fill="#e7c4c3"/>
    <path id="Path_1991" data-name="Path 1991" d="M431.823,442.3s3.52-.383,1.724-2.7a11.419,11.419,0,0,0-5.792.1s-14.982.668-16.926-.405c0,0-13.576-2.19-14.123-2.879,0,0-1.095.241,2.233,1.719s13.975,3.022,13.975,3.022l11.293.9,4.062-.5Z" transform="translate(-222.896 -285.791)" fill="#fff" opacity="0.2"/>
    <path id="Path_1992" data-name="Path 1992" d="M441.366,437.025a3.372,3.372,0,0,0,.509,3.049,2.773,2.773,0,1,0,4.461-3.164c-.071-.1-.148-.2-.224-.29l-.328.109Z" transform="translate(-243.113 -285.881)" fill="#ff7f8e"/>
    <path id="Path_1993" data-name="Path 1993" d="M361.92,292.962l40.667-35.932,1.248,7.932L363,303.007Z" transform="translate(-163.798 -116.33)" fill="#cccad6"/>
    <path id="Path_1994" data-name="Path 1994" d="M441.487,210.912l-5.277-2.047,20.5-58.255,3.908,2.759Z" transform="translate(-197.422 -68.165)" fill="#cccad6"/>
    <g id="Group_31" data-name="Group 31" transform="translate(193.014 223.484)" opacity="0.1">
      <path id="Path_1995" data-name="Path 1995" d="M464.894,573.681a18.285,18.285,0,0,1,.608-4.171l-.268.093a18.612,18.612,0,0,0-.339,4.078Z" transform="translate(-446.846 -569.51)" fill="#fff"/>
      <path id="Path_1996" data-name="Path 1996" d="M452.7,604.319c-4.259.252-17.462-5.824-20.106-9a2.776,2.776,0,0,1-.613-1.5,3.318,3.318,0,0,0,.613,2.562c2.644,3.175,15.847,9.246,20.106,8.994,4.5-.263,19.581.547,20.112-6.35a.865.865,0,0,0-.071-.547C471.523,604.817,457.083,604.073,452.7,604.319Z" transform="translate(-431.929 -580.513)" fill="#fff"/>
    </g>
    <path id="Path_1997" data-name="Path 1997" d="M475.191,369.219s.942-1.095.088-1.883a64.769,64.769,0,0,0-6.87-3.284c-1.593-.7-3.2-1.39-4.472-1.938l-2.655-1.133-.859-.219-5.173-1.319-4.866-1.243-2.19-.06-.733,8.425,4.593,8.255,1.544-.788.268-.137,3.794-.854,10.718-2.387,4.812-1.095.547-.126Z" transform="translate(-245.944 -250.361)" fill="#ffe09c"/>
    <path id="Path_1998" data-name="Path 1998" d="M442.069,357.67s-.925,9.153,1.7,13.056a23.518,23.518,0,0,0,3.613,4.62s1.2,1.358,3.356-1.39c0,0-4.675-4.62-4.626-10.089l.044-5.474Z" transform="translate(-243.433 -250.149)" fill="#e7c4c3"/>
    <ellipse id="Ellipse_63" data-name="Ellipse 63" cx="2.398" cy="2.83" rx="2.398" ry="2.83" transform="matrix(0.717, -0.697, 0.697, 0.717, 202.732, 113.951)" fill="#ff7f8e"/>
    <ellipse id="Ellipse_64" data-name="Ellipse 64" cx="2.398" cy="2.83" rx="2.398" ry="2.83" transform="matrix(0.717, -0.697, 0.697, 0.717, 210.807, 117.88)" fill="#ff7f8e"/>
    <path id="Path_1999" data-name="Path 1999" d="M461.835,382.458a2.962,2.962,0,0,0-.854-2.573,2.667,2.667,0,0,0-3.695-.356,2.634,2.634,0,0,0,.257,3.7,2.864,2.864,0,0,0,.23.219l.268-.137Z" transform="translate(-250.099 -259.774)" fill="#ff7f8e"/>
    <path id="Path_2000" data-name="Path 2000" d="M466.211,363.52a2.19,2.19,0,0,0,.641-1.681l-5.173-1.319a2.934,2.934,0,0,0,.837,2.644A2.629,2.629,0,0,0,466.211,363.52Z" transform="translate(-252.357 -251.439)" fill="#ff7f8e"/>
    <path id="Path_2001" data-name="Path 2001" d="M480.866,369.507a2.315,2.315,0,0,0,.586-2.19c-1.593-.7-3.2-1.39-4.472-1.938l-.06.049a2.879,2.879,0,0,0,3.947,4.078Z" transform="translate(-258.987 -253.638)" fill="#ff7f8e"/>
    <path id="Path_2002" data-name="Path 2002" d="M490.414,377.6a3.124,3.124,0,0,0-.547-.739,2.634,2.634,0,0,0-3.69-.356,2.288,2.288,0,0,0-.58,2.19Z" transform="translate(-263.171 -258.4)" fill="#ff7f8e"/>
    <path id="Path_2003" data-name="Path 2003" d="M455,362.879l.651-.63a4.986,4.986,0,0,0,1.456,1.56l.126.066c.837.361-.651.63-.651.63S455.093,363.416,455,362.879Z" transform="translate(-249.357 -252.222)" fill="#94cc79"/>
    <path id="Path_2004" data-name="Path 2004" d="M460.16,374.475l.646-.635a4.982,4.982,0,0,0,1.456,1.566l.126.06c.838.367-.651.635-.651.635S460.226,374.979,460.16,374.475Z" transform="translate(-251.692 -257.467)" fill="#94cc79"/>
    <path id="Path_2005" data-name="Path 2005" d="M465.63,371.9l.651-.635a4.981,4.981,0,0,0,1.456,1.566l.126.06c.838.367-.651.635-.651.635S465.7,372.441,465.63,371.9Z" transform="translate(-254.168 -256.304)" fill="#94cc79"/>
    <path id="Path_2006" data-name="Path 2006" d="M476.31,370.825l.651-.635a5.015,5.015,0,0,0,1.451,1.566l.131.066c.832.361-.651.63-.651.63S476.381,371.361,476.31,370.825Z" transform="translate(-259.002 -255.815)" fill="#94cc79"/>
    <path id="Path_2007" data-name="Path 2007" d="M490.52,374.685l.651-.635a4.926,4.926,0,0,0,1.451,1.566l.131.06c.832.367-.651.635-.651.635S490.591,375.216,490.52,374.685Z" transform="translate(-265.433 -257.562)" fill="#94cc79"/>
    <path id="Path_2008" data-name="Path 2008" d="M477.56,377.039l.651-.63a4.986,4.986,0,0,0,1.456,1.56.546.546,0,0,0,.126.066c.838.361-.651.635-.651.635S477.631,377.576,477.56,377.039Z" transform="translate(-259.567 -258.63)" fill="#94cc79"/>
    <path id="Path_2009" data-name="Path 2009" d="M444.029,354.071s-3.082-.378-2.014,1.96a10.071,10.071,0,0,0,4.965,1.095s12.924,2.441,14.369,3.744c0,0,11.151,4.587,11.5,5.3,0,0,.98,0-1.56-1.921s-11.315-5.4-11.315-5.4l-9.459-3.038-3.569-.389Z" transform="translate(-243.378 -248.51)" fill="#e7c4c3"/>
    <path id="Path_2010" data-name="Path 2010" d="M444.029,354.071s-3.082-.378-2.014,1.96a10.071,10.071,0,0,0,4.965,1.095s12.924,2.441,14.369,3.744c0,0,11.151,4.587,11.5,5.3,0,0,.98,0-1.56-1.921s-11.315-5.4-11.315-5.4l-9.459-3.038-3.569-.389Z" transform="translate(-243.378 -248.51)" fill="#fff" opacity="0.2"/>
    <path id="Path_2011" data-name="Path 2011" d="M397.519,370.061a15.908,15.908,0,0,0,4.21-3.2c.547-.646,1.007-1.374,1.571-2.009a10.313,10.313,0,0,1,5.3-3.022,25.913,25.913,0,0,1,6.136-.6,11.261,11.261,0,0,1,4.084.493,4.1,4.1,0,0,1,2.7,2.907c.3,1.642-.772,3.235-2.058,4.292a9.93,9.93,0,0,1-4.116,2,33.74,33.74,0,0,1-3.717.432c-7.324.766-13.86,4.751-20.254,8.381-5.638,3.191-8.835,3.044-14.687,5.813-.23-1.752-2.879-.394-2.841-2.162.033-1.319.1-3.334,1.347-4.111,1.451-.9,3.832-1.095,5.474-1.642a88.2,88.2,0,0,0,11.03-4.461Q394.662,371.719,397.519,370.061Z" transform="translate(-212.629 -251.75)" fill="#a0616a"/>
    <path id="Path_2012" data-name="Path 2012" d="M327.434,351.524l28.065,25.4s5.293-10.581,6.881-10.581-19.05-31.2-19.05-31.2-5.293-6.35-8.468-3.175S322.14,333,327.434,351.524Z" transform="translate(-190.911 -238.112)" opacity="0.1"/>
    <path id="Path_2013" data-name="Path 2013" d="M326.462,349.585l28.049,25.4S359.8,364.4,361.391,364.4s-19.055-31.2-19.055-31.2-5.293-6.355-8.468-3.18S321.168,331.061,326.462,349.585Z" transform="translate(-190.47 -237.23)" fill="#f9a826"/>
    <path id="Path_2014" data-name="Path 2014" d="M342.811,264.006a8.43,8.43,0,0,0,1.473-2.3c2.42-5.474-1.418-12.349-7.97-14.233-3.284-.958-6.963-.766-10.242-1.785-2.639-.816-4.861-2.359-7.281-3.564a30.7,30.7,0,0,0-14.643-3.142c-4.954.175-10.34,1.916-12.371,5.742-2.967,5.573,2.491,12.59-.816,18.015-2.431,3.985-8.326,5.162-13.214,6.892a36.063,36.063,0,0,0-13.488,8.359c-3.832,3.832-6.569,9.087-4.642,13.838,1.122,2.786,3.657,4.965,5.671,7.368a23.538,23.538,0,0,1,1.473,28.618,13.915,13.915,0,0,0-2.43,4.2c-.931,3.657,2.825,7.335,7.166,8.047s8.846-.909,12.224-3.3A21.978,21.978,0,0,0,291,328.293c4.012-8.507,1.193-18.064.794-27.222a4.151,4.151,0,0,1,.75-3.065c1.161-1.254,3.35-1.221,5.222-1.385,4.845-.427,9.306-3.142,11.359-6.886,3.925-7.2-.646-17.271,6.213-22.69C323.975,260.224,336.4,271.008,342.811,264.006Z" transform="translate(-160.641 -196.424)" fill="#3f3d56"/>
    <path id="Path_2015" data-name="Path 2015" d="M341.431,254.47h-.055a9.936,9.936,0,0,1,2,10.434,8.432,8.432,0,0,1-1.473,2.3c-6.41,7-18.836-3.783-27.469,3.038-6.859,5.419-2.288,15.486-6.213,22.69-2.036,3.744-6.514,6.459-11.359,6.886-1.872.164-4.062.131-5.222,1.385a4.055,4.055,0,0,0-.75,3.065c.4,9.158,3.219,18.716-.794,27.222a21.978,21.978,0,0,1-7.286,8.474c-3.377,2.381-7.877,4.023-12.224,3.312l-.3-.066a9.6,9.6,0,0,0,6.323,3.9c4.346.706,8.819-.936,12.224-3.323a21.979,21.979,0,0,0,7.286-8.474c4.012-8.507,1.193-18.064.794-27.223a4.151,4.151,0,0,1,.75-3.065c1.16-1.254,3.35-1.221,5.222-1.385,4.845-.427,9.306-3.142,11.359-6.886,3.925-7.2-.646-17.271,6.213-22.69,8.633-6.821,21.059,3.963,27.469-3.038a8.432,8.432,0,0,0,1.473-2.3C351.82,263.234,347.983,256.4,341.431,254.47Z" transform="translate(-165.758 -203.441)" opacity="0.1"/>
  </g>
</svg>
