<svg id="coworkers" xmlns="http://www.w3.org/2000/svg" xmlns:xlink="http://www.w3.org/1999/xlink" width="566.007" height="428.135" viewBox="0 0 566.007 428.135">
  <defs>
    <linearGradient id="linear-gradient" y1="0.5" x2="1" y2="0.5" gradientUnits="objectBoundingBox">
      <stop offset="0" stop-color="gray" stop-opacity="0.251"/>
      <stop offset="0.54" stop-color="gray" stop-opacity="0.122"/>
      <stop offset="1" stop-color="gray" stop-opacity="0.102"/>
    </linearGradient>
    <linearGradient id="linear-gradient-2" x1="0" y1="0.5" x2="1" y2="0.5" xlink:href="#linear-gradient"/>
    <linearGradient id="linear-gradient-4" x1="0" y1="0.5" x2="1" y2="0.5" xlink:href="#linear-gradient"/>
    <linearGradient id="linear-gradient-5" x1="0" y1="0.5" x2="1" y2="0.5" xlink:href="#linear-gradient"/>
    <linearGradient id="linear-gradient-7" x1="0" y1="0.5" x2="1" y2="0.5" xlink:href="#linear-gradient"/>
    <linearGradient id="linear-gradient-8" x1="0" y1="0.5" x2="1" y2="0.5" xlink:href="#linear-gradient"/>
    <linearGradient id="linear-gradient-13" x1="0" y1="0.5" x2="1" y2="0.5" xlink:href="#linear-gradient"/>
    <linearGradient id="linear-gradient-14" x1="0" y1="0.501" x2="1" y2="0.501" xlink:href="#linear-gradient"/>
    <linearGradient id="linear-gradient-15" x1="0" y1="0.5" x2="1" y2="0.5" xlink:href="#linear-gradient"/>
    <linearGradient id="linear-gradient-17" x1="0" y1="0.5" x2="1" y2="0.5" xlink:href="#linear-gradient"/>
    <linearGradient id="linear-gradient-18" x1="0" y1="0.5" x2="1" y2="0.5" xlink:href="#linear-gradient"/>
    <linearGradient id="linear-gradient-19" x1="0" y1="0.5" x2="0.999" y2="0.5" xlink:href="#linear-gradient"/>
    <linearGradient id="linear-gradient-20" x1="0" y1="0.5" x2="0.999" y2="0.5" xlink:href="#linear-gradient"/>
    <linearGradient id="linear-gradient-21" x1="0.5" y1="1" x2="0.5" y2="0" xlink:href="#linear-gradient"/>
    <linearGradient id="linear-gradient-22" x1="0.5" y1="1" x2="0.5" y2="0" xlink:href="#linear-gradient"/>
  </defs>
  <path id="Path_1362" data-name="Path 1362" d="M887.221,718.733H852V698.89h35.221Zm-33.733-1.488h32.245V700.378H853.488Z" transform="translate(-420.556 -335.373)" fill="#e01e5a" opacity="0.2"/>
  <path id="Path_1363" data-name="Path 1363" d="M958.221,716.733H923V696.89h35.221Zm-33.733-1.488h32.245V698.378H924.488Z" transform="translate(-442.318 -334.365)" fill="#e01e5a" opacity="0.2"/>
  <path id="Path_1364" data-name="Path 1364" d="M1029.221,716.733H994V696.89h35.221Zm-33.733-1.488h32.245V698.378H995.488Z" transform="translate(-478.097 -334.365)" fill="#e01e5a" opacity="0.2"/>
  <path id="Path_1365" data-name="Path 1365" d="M1029.221,676.733H994V656.89h35.221Zm-33.733-1.488h32.245V658.378H995.488Z" transform="translate(-478.097 -323.78)" fill="#e01e5a" opacity="0.2"/>
  <path id="Path_1366" data-name="Path 1366" d="M958.221,676.733H923V656.89h35.221Zm-33.733-1.488h32.245V658.378H924.488Z" transform="translate(-442.318 -323.78)" fill="#e01e5a" opacity="0.2"/>
  <path id="Path_1367" data-name="Path 1367" d="M158.221,716.733H123V696.89h35.221Zm-33.733-1.488h32.245V698.378H124.488Z" transform="translate(-114.071 -334.365)" fill="#e01e5a" opacity="0.2"/>
  <path id="Path_1368" data-name="Path 1368" d="M229.221,716.733H194V696.89h35.221Zm-33.733-1.488h32.245V698.378H195.488Z" transform="translate(-149.85 -334.365)" fill="#e01e5a" opacity="0.2"/>
  <path id="Path_1369" data-name="Path 1369" d="M300.221,716.733H265V696.89h35.221Zm-33.733-1.488h32.245V698.378H266.488Z" transform="translate(-172.589 -334.365)" fill="#e01e5a" opacity="0.2"/>
  <path id="Path_1370" data-name="Path 1370" d="M371.221,718.733H336V698.89h35.221Zm-33.733-1.488h32.245V700.378H337.488Z" transform="translate(-202.582 -335.373)" fill="#e01e5a" opacity="0.2"/>
  <path id="Path_1371" data-name="Path 1371" d="M300.221,676.733H265V656.89h35.221Zm-33.733-1.488h32.245V658.378H266.488Z" transform="translate(-172.589 -323.78)" fill="#e01e5a" opacity="0.2"/>
  <path id="Path_1372" data-name="Path 1372" d="M229.221,676.733H194V656.89h35.221Zm-33.733-1.488h32.245V658.378H195.488Z" transform="translate(-149.85 -323.78)" fill="#e01e5a" opacity="0.2"/>
  <path id="Path_1373" data-name="Path 1373" d="M992.673,541.46s-6.518-22.14,1.22-38.436a34.968,34.968,0,0,0,2.828-21.936,58.808,58.808,0,0,0-3.105-10.3" transform="translate(-476.134 -238.653)" fill="none" stroke="#535461" stroke-miterlimit="10" stroke-width="2"/>
  <path id="Path_1374" data-name="Path 1374" d="M996.922,445.009c0,2.714-4.911,10.581-4.911,10.581s-4.911-7.868-4.911-10.581a4.914,4.914,0,1,1,9.827,0Z" transform="translate(-474.62 -230.544)" fill="#e01e5a"/>
  <path id="Path_1375" data-name="Path 1375" d="M1013.237,472.622c-1.488,2.277-9.877,6.211-9.877,6.211s.154-9.277,1.627-11.554a4.913,4.913,0,1,1,8.25,5.338Z" transform="translate(-482.813 -241.46)" fill="#e01e5a"/>
  <path id="Path_1376" data-name="Path 1376" d="M1010.708,522.66c-2.421,1.22-11.658.377-11.658.377s4.812-7.937,7.238-9.153a4.914,4.914,0,0,1,4.425,8.776Z" transform="translate(-480.641 -262.702)" fill="#e01e5a"/>
  <path id="Path_1377" data-name="Path 1377" d="M1001.6,562.153c-2.183,1.612-11.41,2.341-11.41,2.341s3.4-8.627,5.586-10.244a4.912,4.912,0,1,1,5.844,7.9Z" transform="translate(-476.177 -279.896)" fill="#e01e5a"/>
  <path id="Path_1378" data-name="Path 1378" d="M981.056,485.334c1.945,1.89,11.013,3.849,11.013,3.849s-2.222-9.009-4.167-10.914a4.913,4.913,0,0,0-6.846,7.049Z" transform="translate(-470.823 -246.706)" fill="#e01e5a"/>
  <path id="Path_1379" data-name="Path 1379" d="M969.45,530.27c2.421,1.22,11.658.377,11.658.377s-4.812-7.937-7.238-9.153a4.914,4.914,0,0,0-4.425,8.776Z" transform="translate(-464.361 -266.001)" fill="#e01e5a"/>
  <path id="Path_1380" data-name="Path 1380" d="M966.2,576.628c2.183,1.612,11.41,2.341,11.41,2.341s-3.383-8.607-5.571-10.239a4.912,4.912,0,0,0-5.844,7.9Z" transform="translate(-463.083 -286.17)" fill="#e01e5a"/>
  <path id="Path_1381" data-name="Path 1381" d="M996.922,445.009c0,2.714-4.911,10.581-4.911,10.581s-4.911-7.868-4.911-10.581a4.914,4.914,0,1,1,9.827,0Z" transform="translate(-474.62 -230.544)" opacity="0.25"/>
  <path id="Path_1382" data-name="Path 1382" d="M1013.237,472.622c-1.488,2.277-9.877,6.211-9.877,6.211s.154-9.277,1.627-11.554a4.913,4.913,0,1,1,8.25,5.338Z" transform="translate(-482.813 -241.46)" opacity="0.25"/>
  <path id="Path_1383" data-name="Path 1383" d="M1010.708,522.66c-2.421,1.22-11.658.377-11.658.377s4.812-7.937,7.238-9.153a4.914,4.914,0,0,1,4.425,8.776Z" transform="translate(-480.641 -262.702)" opacity="0.25"/>
  <path id="Path_1384" data-name="Path 1384" d="M1001.6,562.153c-2.183,1.612-11.41,2.341-11.41,2.341s3.4-8.627,5.586-10.244a4.912,4.912,0,1,1,5.844,7.9Z" transform="translate(-476.177 -279.896)" opacity="0.25"/>
  <path id="Path_1385" data-name="Path 1385" d="M981.056,485.334c1.945,1.89,11.013,3.849,11.013,3.849s-2.222-9.009-4.167-10.914a4.913,4.913,0,0,0-6.846,7.049Z" transform="translate(-470.823 -246.706)" opacity="0.25"/>
  <path id="Path_1386" data-name="Path 1386" d="M969.45,530.27c2.421,1.22,11.658.377,11.658.377s-4.812-7.937-7.238-9.153a4.914,4.914,0,0,0-4.425,8.776Z" transform="translate(-464.361 -266.001)" opacity="0.25"/>
  <path id="Path_1387" data-name="Path 1387" d="M966.2,576.628c2.183,1.612,11.41,2.341,11.41,2.341s-3.383-8.607-5.571-10.239a4.912,4.912,0,0,0-5.844,7.9Z" transform="translate(-463.083 -286.17)" opacity="0.25"/>
  <path id="Path_1388" data-name="Path 1388" d="M271.153,540.727s-6.618-22.467,1.24-38.986a35.489,35.489,0,0,0,2.872-22.264A59.685,59.685,0,0,0,272.111,469" transform="translate(-187.416 -237.785)" fill="none" stroke="#535461" stroke-miterlimit="10" stroke-width="2"/>
  <path id="Path_1389" data-name="Path 1389" d="M275.456,442.936c0,2.753-4.986,10.74-4.986,10.74s-4.99-8.012-4.99-10.74a4.986,4.986,0,1,1,9.971,0Z" transform="translate(-185.87 -229.599)" fill="#e01e5a"/>
  <path id="Path_1390" data-name="Path 1390" d="M292.021,470.884C290.532,473.2,282,477.189,282,477.189s.154-9.425,1.652-11.722a4.985,4.985,0,1,1,8.37,5.418Z" transform="translate(-180.503 -240.646)" fill="#e01e5a"/>
  <path id="Path_1391" data-name="Path 1391" d="M289.451,521.651c-2.48,1.24-11.831.382-11.831.382s4.886-8.046,7.342-9.286a4.986,4.986,0,0,1,4.489,8.9Z" transform="translate(-178.53 -262.193)" fill="#e01e5a"/>
  <path id="Path_1392" data-name="Path 1392" d="M280.218,561.7c-2.212,1.637-11.6,2.376-11.6,2.376s3.473-8.756,5.67-10.417a4.993,4.993,0,0,1,5.953,8.016Z" transform="translate(-187.453 -279.613)" fill="#e01e5a"/>
  <path id="Path_1393" data-name="Path 1393" d="M259.358,483.782c1.984,1.92,11.176,3.9,11.176,3.9s-2.252-9.138-4.227-11.057a4.985,4.985,0,1,0-6.945,7.154Z" transform="translate(-182.025 -245.974)" fill="#e01e5a"/>
  <path id="Path_1394" data-name="Path 1394" d="M247.584,529.411c2.48,1.24,11.831.382,11.831.382s-4.886-8.046-7.342-9.286a4.986,4.986,0,0,0-4.489,8.9Z" transform="translate(-175.47 -265.557)" fill="#e01e5a"/>
  <path id="Path_1395" data-name="Path 1395" d="M244.266,576.391c2.212,1.637,11.6,2.376,11.6,2.376s-3.473-8.756-5.67-10.417a4.993,4.993,0,1,0-5.953,8.016Z" transform="translate(-174.152 -285.977)" fill="#e01e5a"/>
  <path id="Path_1396" data-name="Path 1396" d="M275.456,442.936c0,2.753-4.986,10.74-4.986,10.74s-4.99-8.012-4.99-10.74a4.986,4.986,0,1,1,9.971,0Z" transform="translate(-185.87 -229.599)" fill="#fff" opacity="0.5"/>
  <path id="Path_1397" data-name="Path 1397" d="M292.021,470.884C290.532,473.2,282,477.189,282,477.189s.154-9.425,1.652-11.722a4.985,4.985,0,1,1,8.37,5.418Z" transform="translate(-180.503 -240.646)" fill="#fff" opacity="0.5"/>
  <path id="Path_1398" data-name="Path 1398" d="M289.451,521.651c-2.48,1.24-11.831.382-11.831.382s4.886-8.046,7.342-9.286a4.986,4.986,0,0,1,4.489,8.9Z" transform="translate(-178.53 -262.193)" fill="#fff" opacity="0.5"/>
  <path id="Path_1399" data-name="Path 1399" d="M280.218,561.7c-2.212,1.637-11.6,2.376-11.6,2.376s3.473-8.756,5.67-10.417a4.993,4.993,0,0,1,5.953,8.016Z" transform="translate(-187.453 -279.613)" fill="#fff" opacity="0.5"/>
  <path id="Path_1400" data-name="Path 1400" d="M259.358,483.782c1.984,1.92,11.176,3.9,11.176,3.9s-2.252-9.138-4.227-11.057a4.985,4.985,0,1,0-6.945,7.154Z" transform="translate(-182.025 -245.974)" fill="#fff" opacity="0.5"/>
  <path id="Path_1401" data-name="Path 1401" d="M247.584,529.411c2.48,1.24,11.831.382,11.831.382s-4.886-8.046-7.342-9.286a4.986,4.986,0,0,0-4.489,8.9Z" transform="translate(-175.47 -265.557)" fill="#fff" opacity="0.5"/>
  <path id="Path_1402" data-name="Path 1402" d="M244.266,576.391c2.212,1.637,11.6,2.376,11.6,2.376s-3.473-8.756-5.67-10.417a4.993,4.993,0,1,0-5.953,8.016Z" transform="translate(-174.152 -285.977)" fill="#fff" opacity="0.5"/>
  <path id="Path_1403" data-name="Path 1403" d="M195.675,556.952s-5.04-17.1.947-29.725a27.046,27.046,0,0,0,2.188-16.966,45.485,45.485,0,0,0-2.4-7.962" transform="translate(-149.694 -253.686)" fill="none" stroke="#535461" stroke-miterlimit="10" stroke-width="2"/>
  <path id="Path_1404" data-name="Path 1404" d="M198.96,482.38c0,2.1-3.8,8.185-3.8,8.185s-3.8-6.087-3.8-8.185a3.8,3.8,0,0,1,7.6,0Z" transform="translate(-148.519 -247.467)" fill="#e01e5a"/>
  <path id="Path_1405" data-name="Path 1405" d="M211.579,503.72c-1.141,1.761-7.639,4.807-7.639,4.807s.119-7.173,1.26-8.929a3.8,3.8,0,0,1,6.379,4.132Z" transform="translate(-154.859 -255.928)" fill="#e01e5a"/>
  <path id="Path_1406" data-name="Path 1406" d="M209.629,542.4c-1.875.943-9.019.293-9.019.293s3.721-6.131,5.6-7.079a3.8,3.8,0,0,1,3.423,6.786Z" transform="translate(-153.181 -272.375)" fill="#e01e5a"/>
  <path id="Path_1407" data-name="Path 1407" d="M202.57,572.94c-1.687,1.25-8.84,1.811-8.84,1.811s2.634-6.672,4.321-7.937a3.8,3.8,0,0,1,4.519,6.112Z" transform="translate(-149.714 -285.674)" fill="#e01e5a"/>
  <path id="Path_1408" data-name="Path 1408" d="M186.687,513.547c1.488,1.463,8.518,2.976,8.518,2.976s-1.716-6.945-3.224-8.433a3.8,3.8,0,0,0-5.293,5.457Z" transform="translate(-145.583 -259.992)" fill="#e01e5a"/>
  <path id="Path_1409" data-name="Path 1409" d="M177.717,548.3c1.875.943,9.019.293,9.019.293s-3.721-6.131-5.6-7.079a3.8,3.8,0,0,0-3.423,6.786Z" transform="translate(-140.591 -274.935)" fill="#e01e5a"/>
  <path id="Path_1410" data-name="Path 1410" d="M175.2,584.13c1.687,1.25,8.84,1.811,8.84,1.811s-2.634-6.672-4.321-7.937a3.8,3.8,0,1,0-4.519,6.112Z" transform="translate(-139.601 -290.528)" fill="#e01e5a"/>
  <path id="Path_1411" data-name="Path 1411" d="M198.96,482.38c0,2.1-3.8,8.185-3.8,8.185s-3.8-6.087-3.8-8.185a3.8,3.8,0,0,1,7.6,0Z" transform="translate(-148.519 -247.467)" opacity="0.25"/>
  <path id="Path_1412" data-name="Path 1412" d="M211.579,503.72c-1.141,1.761-7.639,4.807-7.639,4.807s.119-7.173,1.26-8.929a3.8,3.8,0,0,1,6.379,4.132Z" transform="translate(-154.859 -255.928)" opacity="0.25"/>
  <path id="Path_1413" data-name="Path 1413" d="M209.629,542.4c-1.875.943-9.019.293-9.019.293s3.721-6.131,5.6-7.079a3.8,3.8,0,0,1,3.423,6.786Z" transform="translate(-153.181 -272.375)" opacity="0.25"/>
  <path id="Path_1414" data-name="Path 1414" d="M202.57,572.94c-1.687,1.25-8.84,1.811-8.84,1.811s2.634-6.672,4.321-7.937a3.8,3.8,0,0,1,4.519,6.112Z" transform="translate(-149.714 -285.674)" opacity="0.25"/>
  <path id="Path_1415" data-name="Path 1415" d="M186.687,513.547c1.488,1.463,8.518,2.976,8.518,2.976s-1.716-6.945-3.224-8.433a3.8,3.8,0,0,0-5.293,5.457Z" transform="translate(-145.583 -259.992)" opacity="0.25"/>
  <path id="Path_1416" data-name="Path 1416" d="M177.717,548.3c1.875.943,9.019.293,9.019.293s-3.721-6.131-5.6-7.079a3.8,3.8,0,0,0-3.423,6.786Z" transform="translate(-140.591 -274.935)" opacity="0.25"/>
  <path id="Path_1417" data-name="Path 1417" d="M175.2,584.13c1.687,1.25,8.84,1.811,8.84,1.811s-2.634-6.672-4.321-7.937a3.8,3.8,0,1,0-4.519,6.112Z" transform="translate(-139.601 -290.528)" opacity="0.25"/>
  <g id="Group_1" data-name="Group 1" transform="translate(0 39.686)" opacity="0.7">
    <rect id="Rectangle_1" data-name="Rectangle 1" width="566" height="250" transform="translate(0 0.314)" fill="#48134b" opacity="0.6"/>
    <path id="Path_1418" data-name="Path 1418" d="M105,150.89V401.9H671.007V150.89Zm25.156,21.827h245.27v92.765H130.156Zm0,114.592h245.27v92.765H130.156Zm515.695,92.765H400.581V287.31h245.27Zm0-114.592H400.581V172.717h245.27Z" transform="translate(-105 -150.89)" opacity="0.25"/>
  </g>
  <g id="Group_8" data-name="Group 8" transform="translate(135.023 134.215)" opacity="0.7">
    <path id="Path_1419" data-name="Path 1419" d="M418.473,672.27s-42.98-15.716-48.863,6.4l16.484,41.9,1.766,26.788h35.911V724.651s-5.3-22.7,8.245-36.665Z" transform="translate(-347.823 -453.446)" fill="url(#linear-gradient)"/>
    <g id="Group_2" data-name="Group 2" transform="translate(40.159 93.462)" opacity="0.1">
      <path id="Path_1420" data-name="Path 1420" d="M444.333,425.719c-1.826-.605-4.023-1.146-5.511.06-.863.7-1.235,1.826-1.9,2.709-2.227,2.922-6.717,2.376-10.264,3.423-5.214,1.538-8.433,6.7-10.279,11.762-8.165,22.323.938,47.856-6.171,70.526-2.093,6.672-5.516,14.078-2.133,20.215,1.126,2.049,2.976,3.755,3.522,6.017.764,3.071-.709,7.1,1.865,8.969a7.629,7.629,0,0,0,2.783.992c5.794,1.528,10.184,6.037,14.6,10.045s9.723,7.888,15.711,7.625a25.581,25.581,0,0,0,5.695-1.131l29.715-8.275c2.976-.828,6.211-1.831,7.937-4.37a12.467,12.467,0,0,0,1.657-5.318,140.1,140.1,0,0,0,1.453-21.3,18.452,18.452,0,0,0-.992-6.945c-.992-2.525-2.976-4.544-4.42-6.851-2.788-4.465-3.537-9.827-4.227-15.021-1.1-8.269-2.193-16.7-.675-24.908.65-3.522,1.771-6.945,2.515-10.442a49.537,49.537,0,0,0,.565-17.328c-.695-4.787-2.183-9.644-5.457-13.245a13.845,13.845,0,0,0-8.235-4.465c-4.018-.5-6.017,1.816-9.6,2.679C457.186,432.47,449.428,427.4,444.333,425.719Z" transform="translate(-406.643 -425.058)" fill="url(#linear-gradient-2)"/>
    </g>
    <path id="Path_1421" data-name="Path 1421" d="M444.333,423.329c-1.826-.605-4.023-1.146-5.511.06-.863.7-1.235,1.826-1.9,2.709-2.227,2.922-6.717,2.376-10.264,3.423-5.214,1.538-8.433,6.7-10.279,11.762-8.165,22.323.938,47.856-6.171,70.526-2.093,6.672-5.516,14.078-2.133,20.215,1.126,2.049,2.976,3.755,3.522,6.017.764,3.071-.709,7.1,1.865,8.969a7.629,7.629,0,0,0,2.783.992c5.794,1.528,10.184,6.037,14.6,10.045s9.713,7.932,15.711,7.654a25.581,25.581,0,0,0,5.695-1.131L481.96,556.3c2.976-.828,6.211-1.831,7.937-4.37a12.467,12.467,0,0,0,1.657-5.318,140.1,140.1,0,0,0,1.453-21.3,18.452,18.452,0,0,0-.992-6.945c-.992-2.525-2.976-4.544-4.42-6.851-2.788-4.465-3.537-9.827-4.227-15.021-1.1-8.27-2.193-16.7-.675-24.908.65-3.522,1.771-6.945,2.515-10.442a49.537,49.537,0,0,0,.565-17.328c-.695-4.787-2.183-9.644-5.457-13.245a13.845,13.845,0,0,0-8.235-4.465c-4.018-.5-6.017,1.816-9.6,2.679C457.186,430.075,449.428,425.035,444.333,423.329Z" transform="translate(-366.485 -330.392)" fill="url(#linear-gradient-2)"/>
    <path id="Path_1422" data-name="Path 1422" d="M457.969,335.032s.59,22.115-6.474,21.534,20,36.665,20,36.665l22.958-12.223s-13.533-21.53-4.107-34.918S457.969,335.032,457.969,335.032Z" transform="translate(-388.494 -286.151)" fill="url(#linear-gradient-4)"/>
    <g id="Group_3" data-name="Group 3" transform="translate(3.438 84.156)" opacity="0.1">
      <path id="Path_1423" data-name="Path 1423" d="M359.21,559.011s-4.708,32.011-16.484,23.281-10.011-23.281-10.011-23.281S355.678,497.319,354.5,488s39.19-81.7,39.19-81.7l14.952,118.953S363.917,541.549,359.21,559.011Z" transform="translate(-332.62 -406.3)" fill="url(#linear-gradient-5)"/>
    </g>
    <path id="Path_1424" data-name="Path 1424" d="M356.84,559.011s-4.708,32.011-16.484,23.281-10.011-23.281-10.011-23.281S353.308,497.319,352.127,488s39.19-81.7,39.19-81.7l14.952,118.953S361.547,541.549,356.84,559.011Z" transform="translate(-327.988 -322.144)" fill="url(#linear-gradient-5)"/>
    <path id="Path_1425" data-name="Path 1425" d="M396.34,363.35s-22.963,15.7-31.8,15.13l-6.861,1.865A37.657,37.657,0,0,0,330.5,409.351l-.109.556c-3.522,18.627-4.7,69.847-4.7,69.847s.59,13.394,6.474,16.866l37.7,25.607s-1.176-27.934,12.952-30.846-3.532-1.166-3.532-1.166l-25.9-15.13s.59-22.7,7.654-30.26S392.828,397.7,392.828,397.7l-7.064-24.441Z" transform="translate(-325.69 -300.5)" fill="url(#linear-gradient-7)"/>
    <g id="Group_4" data-name="Group 4" transform="translate(92.545 77.98)" opacity="0.1">
      <path id="Path_1426" data-name="Path 1426" d="M515.666,393.85s14.461,3.785,24.585,5.635a10.189,10.189,0,0,1,7.362,5.556c3.056,6.305,7.714,17.71,6.91,27.219l8.83,34.338,25.3,30.26L565.7,507.341,539.8,478.822,561,532.948l-39.448,1.746s-11.777-87.309-8.83-101.848Z" transform="translate(-512.246 -393.85)" fill="url(#linear-gradient-8)"/>
    </g>
    <path id="Path_1427" data-name="Path 1427" d="M518.041,393.85s14.461,3.785,24.585,5.635a10.189,10.189,0,0,1,7.362,5.556c3.056,6.305,7.714,17.71,6.91,27.219l8.83,34.338,25.3,30.26L568.07,507.336l-25.9-28.519,21.212,54.131-39.448,1.746s-11.777-87.309-8.83-101.848Z" transform="translate(-420.9 -315.87)" fill="url(#linear-gradient-5)"/>
    <path id="Path_1428" data-name="Path 1428" d="M346.627,288.72l8.116,39.393L341.5,334.805l-7.258-35.484Z" transform="translate(-277.911 -227.725)" fill="url(#linear-gradient-7)"/>
    <path id="Path_1429" data-name="Path 1429" d="M404.05,348.279l6.181-25.319,7.952,14.842-4.122,12.223Z" transform="translate(-313.09 -244.98)" fill="url(#linear-gradient-7)"/>
    <path id="Path_1430" data-name="Path 1430" d="M554.15,460.14s0,39.577,5.3,42.484" transform="translate(-440.818 -349.275)" opacity="0.1" fill="url(#linear-gradient-7)"/>
    <path id="Path_1431" data-name="Path 1431" d="M391.525,480.08s-12.218,38.976-8.761,43.059" transform="translate(-354.141 -359.324)" opacity="0.1" fill="url(#linear-gradient-13)"/>
    <path id="Path_1432" data-name="Path 1432" d="M396.31,588s23.553,15.224,26.788,15.468" transform="translate(-361.277 -413.708)" opacity="0.1" fill="url(#linear-gradient-14)"/>
    <g id="Group_5" data-name="Group 5" transform="translate(69.832 51.053)" opacity="0.1">
      <path id="Path_1433" data-name="Path 1433" d="M466.688,339.723s.089,3.408-.228,7.51a27.1,27.1,0,0,0,24.952,16.37,27.563,27.563,0,0,0,4.341-.347,19.965,19.965,0,0,1,3.314-12.456C508.487,337.4,466.688,339.723,466.688,339.723Z" transform="translate(-466.46 -339.569)" fill="url(#linear-gradient-15)"/>
    </g>
    <ellipse id="Ellipse_1" data-name="Ellipse 1" cx="27.081" cy="26.773" rx="27.081" ry="26.773" transform="translate(67.118 19.201)" fill="url(#linear-gradient-7)"/>
    <g id="Group_6" data-name="Group 6" transform="translate(54.792 0.583)" opacity="0.1">
      <path id="Path_1434" data-name="Path 1434" d="M492.733,271.965c3.279.437,7.441-.645,8.091-3.859.8-4.058-4.693-6.7-5.541-10.75-.318-1.518.06-3.105-.124-4.648-.367-3.105-2.907-5.5-5.492-7.3a42.6,42.6,0,0,0-28.088-7.4,6.277,6.277,0,0,0-3.473,1.091c-1.081.878-1.488,2.307-2.237,3.473-2.54,4.058-8.245,4.534-12.337,7.064-4.787,2.976-7.158,8.766-7.372,14.341s1.394,11.048,2.976,16.405c1.354,4.554,2.773,9.232,5.744,12.962s7.9,6.335,12.57,5.214c-2.138-1.523-.585-5.06,1.731-6.3s5.194-1.453,7.173-3.165,2.575-4.514,3.22-7.064c.814-3.215,1.984-6.479,4.365-8.825C478.609,268.606,487.018,271.206,492.733,271.965Z" transform="translate(-436.141 -237.83)" fill="url(#linear-gradient-17)"/>
    </g>
    <path id="Path_1435" data-name="Path 1435" d="M491.533,270.792c3.279.437,7.441-.645,8.091-3.859.8-4.058-4.693-6.7-5.541-10.75-.318-1.518.06-3.105-.124-4.648-.367-3.105-2.907-5.5-5.492-7.3a42.6,42.6,0,0,0-28.068-7.406,6.277,6.277,0,0,0-3.472,1.091c-1.081.878-1.488,2.307-2.237,3.472-2.54,4.058-8.245,4.534-12.337,7.064-4.787,2.976-7.158,8.766-7.372,14.341s1.394,11.048,2.976,16.405c1.354,4.554,2.773,9.232,5.745,12.962s7.9,6.335,12.57,5.214c-2.138-1.523-.585-5.06,1.731-6.3s5.194-1.453,7.173-3.165,2.575-4.514,3.22-7.064c.814-3.215,1.984-6.479,4.365-8.825C477.424,267.434,485.833,270.028,491.533,270.792Z" transform="translate(-380.755 -236.655)" fill="url(#linear-gradient-18)"/>
    <g id="Group_7" data-name="Group 7" transform="translate(80.954 47.432)" opacity="0.1">
      <path id="Path_1436" data-name="Path 1436" d="M497.442,334.423c-.4,2.768-1.28,7.56-2.942,10.586a84.654,84.654,0,0,0-5.62,12.283h0s10.844,8.3,16.37,13.969a12.858,12.858,0,0,0,13.5,3.269,8.606,8.606,0,0,0,6.057-6.766,22,22,0,0,0-1.379-12.982,9.649,9.649,0,0,1-.04-7.937,3.15,3.15,0,0,1,1.414-1.766s-10.6-2.327-11.186.58-8.83,5.819-10.6.58l-.5-11.549a2.54,2.54,0,0,0-2.55-2.421h0a2.54,2.54,0,0,0-2.535,2.153Z" transform="translate(-488.88 -332.27)" fill="url(#linear-gradient-19)"/>
    </g>
    <path id="Path_1437" data-name="Path 1437" d="M497.442,335.6c-.4,2.768-1.28,7.56-2.942,10.586a84.653,84.653,0,0,0-5.62,12.283h0s10.844,8.3,16.37,13.969a12.858,12.858,0,0,0,13.5,3.269,8.606,8.606,0,0,0,6.057-6.766,22,22,0,0,0-1.379-12.982,9.649,9.649,0,0,1-.04-7.937,3.15,3.15,0,0,1,1.414-1.766s-10.6-2.327-11.186.58-8.83,5.819-10.6.58l-.5-11.549a2.54,2.54,0,0,0-2.55-2.421h0A2.54,2.54,0,0,0,497.442,335.6Z" transform="translate(-407.926 -285.432)" fill="url(#linear-gradient-20)"/>
  </g>
  <path id="Path_1438" data-name="Path 1438" d="M421.618,671.66S380.36,656.4,374.71,677.875l15.825,40.678,1.682,26.029h34.477v-22.05s-5.085-22.04,7.937-35.608Z" transform="translate(-217.675 -319.001)" fill="#535461"/>
  <path id="Path_1439" data-name="Path 1439" d="M446.454,432.24c-1.751-.585-3.864-1.111-5.288.06a13.583,13.583,0,0,0-1.831,2.629c-2.138,2.838-6.449,2.307-9.852,3.324-5.005,1.488-8.091,6.508-9.867,11.41-7.838,21.673.9,46.477-5.923,68.488-1.984,6.479-5.293,13.672-2.049,19.63,1.081,1.984,2.842,3.646,3.383,5.844.734,2.976-.68,6.9,1.791,8.711a7.863,7.863,0,0,0,2.669.992c5.561,1.488,9.778,5.864,14.014,9.758s9.336,7.659,15.081,7.406a24.308,24.308,0,0,0,5.457-1.1l28.524-8.036c2.862-.809,5.953-1.781,7.625-4.246a12.413,12.413,0,0,0,1.592-5.164,137.609,137.609,0,0,0,1.394-20.681,18.282,18.282,0,0,0-.943-6.742c-.992-2.451-2.857-4.41-4.246-6.657-2.674-4.326-3.4-9.544-4.058-14.589-1.052-8.031-2.1-16.222-.65-24.188.625-3.418,1.7-6.742,2.416-10.14a48.654,48.654,0,0,0,.546-16.827c-.665-4.648-2.1-9.366-5.234-12.863a13.25,13.25,0,0,0-7.907-4.336c-3.859-.5-5.779,1.766-9.217,2.6C458.8,438.773,451.346,433.877,446.454,432.24Z" transform="translate(-231.055 -213.455)" opacity="0.1"/>
  <path id="Path_1440" data-name="Path 1440" d="M446.454,429.96c-1.751-.585-3.864-1.111-5.288.06a13.583,13.583,0,0,0-1.831,2.629c-2.138,2.838-6.449,2.307-9.852,3.324-5.005,1.488-8.091,6.508-9.867,11.41-7.838,21.673.9,46.477-5.923,68.488-1.984,6.479-5.293,13.672-2.049,19.63,1.081,1.984,2.842,3.646,3.383,5.844.734,2.976-.68,6.9,1.791,8.711a7.862,7.862,0,0,0,2.669.992c5.561,1.488,9.778,5.864,14.014,9.758s9.336,7.659,15.081,7.406a24.308,24.308,0,0,0,5.457-1.1l28.529-8.031c2.862-.809,5.953-1.781,7.625-4.246a12.412,12.412,0,0,0,1.592-5.164,137.6,137.6,0,0,0,1.394-20.681,18.283,18.283,0,0,0-.943-6.742c-.992-2.451-2.857-4.41-4.246-6.657-2.674-4.326-3.4-9.544-4.058-14.589-1.052-8.031-2.1-16.222-.65-24.188.625-3.418,1.7-6.742,2.416-10.14a48.655,48.655,0,0,0,.546-16.827c-.665-4.648-2.1-9.366-5.234-12.863a13.25,13.25,0,0,0-7.892-4.351c-3.859-.5-5.779,1.766-9.217,2.6C458.8,436.5,451.346,431.6,446.454,429.96Z" transform="translate(-231.055 -212.553)" fill="#e0e0e0"/>
  <path id="Path_1441" data-name="Path 1441" d="M459.539,344.176s.566,21.475-6.216,20.909,19.218,35.608,19.218,35.608l22.04-11.871s-13-20.909-3.969-33.911S459.539,344.176,459.539,344.176Z" transform="translate(-251.214 -186.483)" fill="#fda57d"/>
  <path id="Path_1442" data-name="Path 1442" d="M364.732,561.681s-4.519,31.084-15.825,22.606-9.609-22.606-9.609-22.606,22.04-59.911,20.909-68.954,37.642-79.347,37.642-79.347L412.2,528.9S369.251,544.725,364.732,561.681Z" transform="translate(-202.212 -191.496)" opacity="0.1"/>
  <path id="Path_1443" data-name="Path 1443" d="M362.452,561.681s-4.519,31.084-15.825,22.606-9.609-22.606-9.609-22.606,22.04-59.911,20.909-68.954,37.642-79.347,37.642-79.347L409.921,528.9S366.971,544.725,362.452,561.681Z" transform="translate(-201.266 -191.496)" fill="#4d8af0"/>
  <path id="Path_1444" data-name="Path 1444" d="M400.378,371.67s-22.04,15.259-30.518,14.694l-6.588,1.811a36.4,36.4,0,0,0-26.088,28.167l-.1.541c-3.393,18.087-4.519,67.823-4.519,67.823s.566,13,6.216,16.37l36.169,24.893s-1.131-27.13,12.437-29.953-3.393-1.131-3.393-1.131l-24.868-14.7s.565-22.04,7.347-29.387,30.518-45.777,30.518-45.777L390.2,381.259Z" transform="translate(-199.7 -187.499)" fill="#4d8af0"/>
  <path id="Path_1445" data-name="Path 1445" d="M514.932,401.3s13.89,3.676,23.6,5.457a9.792,9.792,0,0,1,7.064,5.4c2.932,6.126,7.4,17.194,6.633,26.431l8.478,33.346,24.307,29.387-22.045,10.189-24.853-27.691L558.457,536.4l-37.87,1.667s-11.305-84.779-8.478-98.907Z" transform="translate(-273.758 -201.799)" opacity="0.1"/>
  <path id="Path_1446" data-name="Path 1446" d="M517.206,401.3s13.89,3.676,23.6,5.457a9.792,9.792,0,0,1,7.064,5.4c2.932,6.126,7.4,17.194,6.632,26.431l8.478,33.346,24.307,29.387-22.04,10.174-24.868-27.7,20.339,52.584-37.865,1.687s-11.305-84.779-8.478-98.907Z" transform="translate(-274.7 -201.799)" fill="#4d8af0"/>
  <path id="Path_1447" data-name="Path 1447" d="M348.451,297.16l7.793,38.252-12.719,6.5-6.965-34.457Z" transform="translate(-143.077 -126.624)" fill="#e0e0e0"/>
  <path id="Path_1448" data-name="Path 1448" d="M403.58,355l5.933-24.585,7.63,14.411-3.954,11.871Z" transform="translate(-171.977 -142.149)" fill="#e0e0e0"/>
  <path id="Path_1449" data-name="Path 1449" d="M551.87,465.67s0,38.431,5.085,41.258" transform="translate(-296.03 -239.432)" opacity="0.1"/>
  <path id="Path_1450" data-name="Path 1450" d="M395.739,485s-11.732,37.85-8.433,41.814" transform="translate(-225.256 -247.631)" opacity="0.1"/>
  <path id="Path_1451" data-name="Path 1451" d="M400.34,589.85s22.611,14.783,25.716,15.021" transform="translate(-230.252 -295.35)" opacity="0.1"/>
  <path id="Path_1452" data-name="Path 1452" d="M467.908,348.737s.089,3.309-.218,7.292a26,26,0,0,0,28.122,15.542,19.586,19.586,0,0,1,3.18-12.1C508.026,346.475,467.908,348.737,467.908,348.737Z" transform="translate(-258.379 -190.532)" opacity="0.1"/>
  <circle id="Ellipse_2" data-name="Ellipse 2" cx="25.999" cy="25.999" r="25.999" transform="translate(207.553 123.955)" fill="#fda57d"/>
  <path id="Path_1453" data-name="Path 1453" d="M492.9,282.974c3.15.422,7.163-.63,7.768-3.745.769-3.944-4.5-6.5-5.318-10.418-.308-1.488.06-3.016-.119-4.509-.352-3.016-2.793-5.338-5.273-7.089A40.544,40.544,0,0,0,463,250.03a6.044,6.044,0,0,0-3.339,1.057c-1.037.853-1.439,2.237-2.148,3.383-2.441,3.939-7.937,4.405-11.841,6.861-4.6,2.872-6.871,8.513-7.079,13.93s1.339,10.73,2.867,15.929c1.3,4.425,2.664,8.964,5.516,12.585s7.59,6.151,12.064,5.06c-2.054-1.488-.561-4.916,1.662-6.117s4.961-1.409,6.89-3.076,2.48-4.385,3.091-6.861c.784-3.125,1.915-6.29,4.192-8.572C479.348,279.695,487.4,282.235,492.9,282.974Z" transform="translate(-244.203 -146.516)" opacity="0.1"/>
  <path id="Path_1454" data-name="Path 1454" d="M491.791,281.806c3.15.422,7.163-.63,7.768-3.745.769-3.944-4.5-6.5-5.318-10.417-.308-1.488.06-3.016-.119-4.509-.377-3.041-2.828-5.372-5.308-7.114a40.544,40.544,0,0,0-26.947-7.188,6.044,6.044,0,0,0-3.339,1.057c-1.037.853-1.439,2.237-2.148,3.383-2.441,3.939-7.937,4.405-11.841,6.861-4.6,2.872-6.871,8.513-7.079,13.93s1.339,10.73,2.867,15.929c1.3,4.425,2.664,8.964,5.516,12.585s7.59,6.151,12.064,5.06c-2.054-1.488-.561-4.916,1.662-6.117s4.961-1.409,6.89-3.076,2.48-4.385,3.091-6.861c.784-3.125,1.915-6.29,4.192-8.572C478.213,278.541,486.284,281.076,491.791,281.806Z" transform="translate(-243.73 -146.011)" fill="#72351c"/>
  <path id="Path_1455" data-name="Path 1455" d="M497.425,343.573c-.382,2.689-1.23,7.342-2.828,10.279a82.676,82.676,0,0,0-5.4,11.906h0s10.418,8.061,15.7,13.568a12.243,12.243,0,0,0,12.962,3.175,8.306,8.306,0,0,0,5.814-6.568,21.773,21.773,0,0,0-1.32-12.61,9.47,9.47,0,0,1-.02-7.7,3.071,3.071,0,0,1,1.359-1.716s-10.174-2.262-10.74.566-8.478,5.65-10.174.566l-.466-11.216a2.451,2.451,0,0,0-2.451-2.351h0a2.446,2.446,0,0,0-2.441,2.1Z" transform="translate(-267.324 -186.379)" opacity="0.1"/>
  <path id="Path_1456" data-name="Path 1456" d="M497.425,344.733c-.382,2.689-1.23,7.342-2.828,10.279a82.676,82.676,0,0,0-5.4,11.906h0s10.418,8.061,15.7,13.568a12.243,12.243,0,0,0,12.962,3.175,8.306,8.306,0,0,0,5.814-6.568,21.773,21.773,0,0,0-1.32-12.61,9.47,9.47,0,0,1-.035-7.719,3.071,3.071,0,0,1,1.359-1.716s-10.174-2.262-10.74.566-8.463,5.675-10.174.605L502.3,345a2.451,2.451,0,0,0-2.451-2.351h0A2.446,2.446,0,0,0,497.425,344.733Z" transform="translate(-267.324 -186.884)" fill="#72351c"/>
  <path id="Path_1457" data-name="Path 1457" d="M764.464,468.77S754.25,458.546,750.5,444.959h.878l-.422-1.181h.422L750.044,440c3.765-3.7,6.548-7.287,7-9.326.764-3.433,1.523-22.006,1.984-34.913l.407.1a10.806,10.806,0,0,0,1.131-5.774,22.388,22.388,0,0,0-.833-6.449l-1.84-18.429a12.571,12.571,0,0,0-4.837-8.656L734.4,342.079a11.861,11.861,0,0,1,3.661-3.244c1.067-.565,2.307-.952,3.026-1.92,1.3-1.751.193-4.36,1.081-6.355.665-1.488,2.3-2.322,3.259-3.656,1.96-2.733.541-6.508-.923-9.534L736,299.794c-2.356-4.866-4.733-9.773-8.026-14.059-10.085-13.136-29.491-19.669-45.311-13.974-4.509,1.622-8.661,4.737-10.586,9.123a23.939,23.939,0,0,1-2.044,4.549c-2.168,3.021-6.4,3.592-9.425,5.764-3.864,2.793-5.3,8.051-4.757,12.789s2.714,9.113,4.857,13.394c2.252,4.465,4.579,9.063,8.274,12.446,1.726,1.582,3.84,3.051,4.39,5.328.471,1.954-.362,3.969-.189,5.993a6.1,6.1,0,0,0,.724,2.4c-8.349,1.047-14.272,7.982-16.926,18.3-.164.64-.228.992-.228.992l-1.176,10.685c-.025.461,0,.908,0,1.349a14.053,14.053,0,0,0,1.488,6.945v37.518l-35.717,22.611c-5.358,2.381-4.167,21.425,6.548,24.992s20.245-19,20.245-19c6.523-.437,17.5-9.138,23.395-15.874a10.749,10.749,0,0,0,3.11,3.239c-4.256,9.594-12.675,29.442-11.33,33.47.809,2.431,21.713,2.654,44.309,2.178a10.794,10.794,0,0,0,1.811.8,8.181,8.181,0,0,0,6.945-1.017C740.832,470.03,764.464,468.77,764.464,468.77ZM734.3,396.022c.5-1.374,2.123-2.123,4.3-2.48v14.47Zm-2.079-50.847h0l.069-.1Z" transform="translate(-308.349 -141.561)" fill="url(#linear-gradient-21)"/>
  <path id="Path_1458" data-name="Path 1458" d="M682.315,483.869s-1.131,40.127-2.262,45.217-17.511,20.319-26,20.909c0,0-9.043,21.475-19.218,18.087s-11.305-21.475-6.216-23.737l33.921-21.48V479.91Z" transform="translate(-322.854 -240.334)" fill="#fdb797"/>
  <path id="Path_1459" data-name="Path 1459" d="M724.809,587s-14.694,31.649-13,36.739,96.079,0,96.079,0S790.369,606.218,793.762,587Z" transform="translate(-353.642 -291.496)" fill="#3ad29f"/>
  <path id="Path_1460" data-name="Path 1460" d="M758.686,394.458s2.262,22.04-1.7,27.13,15.825,7.937,17.521,7.937,19.783-6.216,23.172-7.937S803.9,407.46,803.9,407.46s-16.956,3.393-22.04-16.37Z" transform="translate(-378.739 -207.798)" fill="#fdb797"/>
  <path id="Path_1461" data-name="Path 1461" d="M723.048,281.907c-4.281,1.543-8.23,4.5-10.055,8.666a22.892,22.892,0,0,1-1.94,4.321c-2.059,2.867-6.077,3.408-8.929,5.457C698.453,303,697.094,308,697.6,312.5s2.575,8.656,4.609,12.7c2.138,4.251,4.351,8.607,7.858,11.821,1.637,1.488,3.646,2.9,4.167,5.06.447,1.855-.342,3.795-.179,5.695.407,4.7,6.022,6.885,10.71,7.406,2.039.228,4.37.238,5.809-1.225a9.991,9.991,0,0,0,1.568-2.718A13.032,13.032,0,0,1,755.392,351c1.1,2.113,1.741,4.683,3.74,5.953,3.061,1.984,7.158-.342,9.425-3.21s3.894-6.449,7.114-8.17c.992-.541,2.193-.9,2.877-1.826,1.235-1.662.184-4.142,1.027-6.032.635-1.424,2.188-2.2,3.1-3.472,1.86-2.594.5-6.181-.878-9.053L773.717,308.5c-2.237-4.623-4.494-9.281-7.62-13.354C756.5,282.705,738.069,276.5,723.048,281.907Z" transform="translate(-349.228 -158.172)" fill="#434142"/>
  <path id="Path_1462" data-name="Path 1462" d="M743.462,439.879s22.04,0,27.7-20.339l18.553,14.386a11.935,11.935,0,0,1,4.564,8.25l1.751,17.5s1.984,6.5-.283,10.457c0,0-23.454-5.953-24.02.848l16.37,45.777s-25.434.565-32.215-3.969c0,0-27.7,5.65-34.477-.566s-13.563-5.65-7.937-19.783c0,0-11.305-11.305-6.216-27.13s.283.283.283.283-10.978-5.367-10.413-15.567l1.131-10.174s.059-.337.218-.943c3.448-13.394,12.7-20.835,25.721-16.093a11.913,11.913,0,0,0,7.694-.2S727.637,441.01,743.462,439.879Z" transform="translate(-347.167 -214.349)" opacity="0.1"/>
  <path id="Path_1463" data-name="Path 1463" d="M743.462,437.6s22.04,0,27.7-20.339l18.553,14.386a11.935,11.935,0,0,1,4.564,8.25l1.751,17.5s1.984,6.5-.283,10.457c0,0-23.454-5.953-24.02.848l16.37,45.777s-25.434.566-32.215-3.969c0,0-27.7,5.65-34.477-.566s-13.563-5.65-7.937-19.783c0,0-11.305-11.305-6.216-27.13s.283.283.283.283-10.978-5.367-10.413-15.542L698.25,437.6s.059-.337.218-.943c3.448-13.394,12.7-20.835,25.721-16.093a11.913,11.913,0,0,0,7.694-.2S727.637,438.73,743.462,437.6Z" transform="translate(-347.167 -213.41)" fill="#252a62"/>
  <path id="Path_1464" data-name="Path 1464" d="M838.405,492.969s-1.131,40.127-2.262,45.217-17.521,20.339-26,20.909c0,0-9.043,21.475-19.218,18.087s-11.305-21.475-6.216-23.737l33.911-21.475V489Z" transform="translate(-388.164 -244.098)" fill="#fdb797"/>
  <path id="Path_1465" data-name="Path 1465" d="M847,491.545s13,8.82,24.307,8.086c0,0,1.131-15.15-2.262-16S850.934,483.633,847,491.545Z" transform="translate(-419.835 -249.191)" opacity="0.1"/>
  <path id="Path_1466" data-name="Path 1466" d="M847,490.405s13,8.82,24.307,8.086c0,0,1.131-15.15-2.262-16S850.934,482.493,847,490.405Z" transform="translate(-419.835 -248.698)" fill="#252a62"/>
  <path id="Path_1467" data-name="Path 1467" d="M786.391,393.32l-23.172,3.393s.521,5.1.625,10.958a26.009,26.009,0,0,0,27.284-4.435A25.427,25.427,0,0,1,786.391,393.32Z" transform="translate(-383.9 -210.259)" opacity="0.1"/>
  <circle id="Ellipse_3" data-name="Ellipse 3" cx="25.999" cy="25.999" r="25.999" transform="translate(363.031 142.974)" fill="#fdb797"/>
  <path id="Path_1468" data-name="Path 1468" d="M765.426,331.413a8.12,8.12,0,0,1-3.473.5q-6.9-.045-13.786-.5c-3.472-.233-7.193-.645-9.877-2.872-3.611-2.976-4.182-8.617-2.317-12.923s5.67-7.481,9.688-9.921a28.91,28.91,0,0,1,7.3-3.294c7.441-2.024,15.7.461,21.614,5.422s9.693,12.124,11.692,19.585c.69,2.58,1.578,5.655,4.132,6.449-1.7,2.828-5.854,3.279-8.83,1.86-4.4-2.088-6.647-10.085-10.591-11.345C766.582,322.96,769.141,329.706,765.426,331.413Z" transform="translate(-368.718 -169.763)" opacity="0.1"/>
  <path id="Path_1469" data-name="Path 1469" d="M765.426,330.283a8.121,8.121,0,0,1-3.473.5q-6.9-.045-13.786-.5c-3.472-.233-7.193-.645-9.877-2.872-3.611-2.976-4.182-8.617-2.317-12.923s5.67-7.481,9.688-9.921a28.913,28.913,0,0,1,7.3-3.284c7.441-2.024,15.7.461,21.614,5.422s9.693,12.124,11.692,19.585c.69,2.58,1.578,5.655,4.132,6.449-1.7,2.828-5.854,3.279-8.83,1.86-4.4-2.088-6.647-10.085-10.591-11.345C766.582,321.83,769.141,328.566,765.426,330.283Z" transform="translate(-368.719 -169.283)" fill="#434142"/>
  <path id="Path_1470" data-name="Path 1470" d="M729.61,560.2A100.123,100.123,0,0,1,755.6,556.81" transform="translate(-369.865 -282.142)" opacity="0.1"/>
  <path id="Path_1471" data-name="Path 1471" d="M840.3,502.13s-8.478,6.216-6.216,9.609" transform="translate(-416.332 -257.865)" opacity="0.1"/>
  <g id="Group_9" data-name="Group 9" transform="translate(223.668 327.512)" opacity="0.7">
    <path id="Path_1472" data-name="Path 1472" d="M577.407,555.42H299.9v24.268h16.152v76.335H561.831V579.688h15.577Z" transform="translate(-299.9 -555.42)" fill="url(#linear-gradient-22)"/>
  </g>
  <rect id="Rectangle_2" data-name="Rectangle 2" width="240.768" height="86.475" transform="translate(217.513 341.645)" fill="#e0e0e0"/>
  <rect id="Rectangle_3" data-name="Rectangle 3" width="240.768" height="13.563" transform="translate(217.513 336.357)" opacity="0.1"/>
  <rect id="Rectangle_4" data-name="Rectangle 4" width="271.852" height="23.171" transform="translate(226.495 321.296)" fill="#e0e0e0"/>
  <rect id="Rectangle_5" data-name="Rectangle 5" width="51.998" height="7.347" rx="3.673" transform="translate(223.063 313.017)" fill="#535461"/>
  <g id="Group_10" data-name="Group 10" transform="translate(268.2 227.311)" opacity="0.7">
    <rect id="Rectangle_6" data-name="Rectangle 6" width="129.236" height="89.357" rx="28.22" fill="url(#linear-gradient-22)"/>
  </g>
  <rect id="Rectangle_7" data-name="Rectangle 7" width="122.425" height="87.705" rx="26.84" transform="translate(270.12 229.055)" fill="#3e3f49"/>
  <rect id="Rectangle_8" data-name="Rectangle 8" width="122.425" height="87.705" rx="26.84" transform="translate(272.161 229.055)" fill="#535461"/>
  <circle id="Ellipse_4" data-name="Ellipse 4" cx="3.959" cy="3.959" r="3.959" transform="translate(334.003 266.317)" fill="#e0e0e0"/>
  <path id="Path_1473" data-name="Path 1473" d="M369.58,658.21s3.344,4.906,13.26,6.409" transform="translate(-217.758 -325.894)" opacity="0.1"/>
  <path id="Path_1474" data-name="Path 1474" d="M512.221,130.733H477V110.89h35.221Zm-33.733-1.488h32.245V112.378H478.488Z" transform="translate(-262.145 -91.047)" fill="#e01e5a" opacity="0.2"/>
  <path id="Path_1475" data-name="Path 1475" d="M583.221,130.733H548V110.89h35.221Zm-33.733-1.488h32.245V112.378H549.488Z" transform="translate(-292.137 -91.047)" fill="#e01e5a" opacity="0.2"/>
  <path id="Path_1476" data-name="Path 1476" d="M654.221,130.733H619V110.89h35.221Zm-33.733-1.488h32.245V112.378H620.488Z" transform="translate(-322.13 -91.047)" fill="#e01e5a" opacity="0.2"/>
  <path id="Path_1477" data-name="Path 1477" d="M725.221,130.733H690V110.89h35.221Zm-33.733-1.488h32.245V112.378H691.488Z" transform="translate(-352.122 -91.047)" fill="#e01e5a" opacity="0.2"/>
  <path id="Path_1478" data-name="Path 1478" d="M654.221,90.733H619V70.89h35.221Zm-33.733-1.488h32.245V72.378H620.488Z" transform="translate(-322.13 -70.89)" fill="#e01e5a" opacity="0.2"/>
  <path id="Path_1479" data-name="Path 1479" d="M583.221,90.733H548V70.89h35.221Zm-33.733-1.488h32.245V72.378H549.488Z" transform="translate(-292.137 -70.89)" fill="#e01e5a" opacity="0.2"/>
  <path id="Path_1480" data-name="Path 1480" d="M249.221,130.733H214V110.89h35.221Zm-33.733-1.488h32.245V112.378H215.488Z" transform="translate(-159.928 -91.047)" fill="#e01e5a" opacity="0.2"/>
  <path id="Path_1481" data-name="Path 1481" d="M320.221,130.733H285V110.89h35.221Zm-33.733-1.488h32.245V112.378H286.488Z" transform="translate(-181.038 -91.047)" fill="#e01e5a" opacity="0.2"/>
  <path id="Path_1482" data-name="Path 1482" d="M320.221,90.733H285V70.89h35.221Zm-33.733-1.488h32.245V72.378H286.488Z" transform="translate(-181.038 -70.89)" fill="#e01e5a" opacity="0.2"/>
  <path id="Path_1483" data-name="Path 1483" d="M869.221,130.733H834V110.89h35.221Zm-33.733-1.488h32.245V112.378H835.488Z" transform="translate(-412.952 -91.047)" fill="#e01e5a" opacity="0.2"/>
  <path id="Path_1484" data-name="Path 1484" d="M940.221,130.733H905V110.89h35.221Zm-33.733-1.488h32.245V112.378H906.488Z" transform="translate(-433.247 -91.047)" fill="#e01e5a" opacity="0.2"/>
  <path id="Path_1485" data-name="Path 1485" d="M940.221,90.733H905V70.89h35.221Zm-33.733-1.488h32.245V72.378H906.488Z" transform="translate(-433.247 -70.89)" fill="#e01e5a" opacity="0.2"/>
</svg>
