<svg xmlns="http://www.w3.org/2000/svg" xmlns:xlink="http://www.w3.org/1999/xlink" width="541.869" height="409.467" viewBox="0 0 541.869 409.467">
  <defs>
    <linearGradient id="linear-gradient" x1="0.5" y1="1" x2="0.5" gradientUnits="objectBoundingBox">
      <stop offset="0" stop-color="gray" stop-opacity="0.251"/>
      <stop offset="0.54" stop-color="gray" stop-opacity="0.122"/>
      <stop offset="1" stop-color="gray" stop-opacity="0.102"/>
    </linearGradient>
    <linearGradient id="linear-gradient-2" x1="0.5" x2="0.5" y2="0" xlink:href="#linear-gradient"/>
    <linearGradient id="linear-gradient-3" x1="0.5" x2="0.5" y2="0" xlink:href="#linear-gradient"/>
    <linearGradient id="linear-gradient-4" x1="1.096" x2="1.096" y2="0" xlink:href="#linear-gradient"/>
    <linearGradient id="linear-gradient-5" x1="0.5" x2="0.5" y2="0" xlink:href="#linear-gradient"/>
  </defs>
  <g id="Group_32" data-name="Group 32" transform="translate(-1051 -1483)">
    <g id="team_spirit" transform="translate(1051.013 1482.996)">
      <path id="Path_1641" data-name="Path 1641" d="M43.44,426.65c8.573,33.412,26.724,62.294,55.411,76.292,59.641,29.1,194.063,14.089,294.4-3.134,51.915-8.911,97.515-33.483,130.66-68.109Z" transform="translate(-37.598 -233.032)" fill="#4d8af0" opacity="0.1"/>
      <path id="Path_1642" data-name="Path 1642" d="M584.868,56.492H529.814a4.358,4.358,0,1,1,0-8.678h9.526a4.579,4.579,0,0,1-4.763-4.339,4.573,4.573,0,0,1,4.763-4.334h-6.8A4.579,4.579,0,0,1,527.78,34.8a4.576,4.576,0,0,1,4.763-4.339h28.734a81.409,81.409,0,0,0-22.414-5.63c-78.354-9.178-106.331-3.11-116.214,3.134a115.314,115.314,0,0,1-40.27,16.094c-48.343,9.092-138.752,20.033-220.7-3.505-40.727-11.693-71,8.1-89.142,41.108H594.427c-.681-9.6-2.72-18.47-6.463-26.229A4.992,4.992,0,0,1,584.868,56.492Z" transform="translate(-52.838 -20.14)" fill="#4d8af0" opacity="0.1"/>
      <path id="Path_1643" data-name="Path 1643" d="M32.33,280.23a201.917,201.917,0,0,0,2.139,58.293L517.843,354.64a206.306,206.306,0,0,0,33.583-46.676ZM223.5,321.815h-9.526a4.356,4.356,0,1,1,0,8.673h-55.03a4.356,4.356,0,1,1,0-8.673h9.526a4.358,4.358,0,1,1,0-8.678h-6.806a4.356,4.356,0,1,1,0-8.673h55.054a4.356,4.356,0,1,1,0,8.673H223.5a4.358,4.358,0,1,1,0,8.678Z" transform="translate(-31.16 -156.35)" fill="#4d8af0" opacity="0.1"/>
      <path id="Path_1644" data-name="Path 1644" d="M574.152,149.94l-527.726,11.7A177.25,177.25,0,0,0,33.78,211.329H564.9a190.03,190.03,0,0,0,7.668-31.668A137.175,137.175,0,0,0,574.152,149.94ZM140.93,188.286H131.4a4.358,4.358,0,1,1,0,8.678H76.355a4.358,4.358,0,1,1,0-8.678h9.526a4.356,4.356,0,1,1,0-8.673H79.075a4.358,4.358,0,1,1,0-8.678h55.054a4.358,4.358,0,1,1,0,8.678h6.8a4.356,4.356,0,1,1,0,8.673Z" transform="translate(-32.539 -88.116)" fill="#4d8af0" opacity="0.1"/>
      <ellipse id="Ellipse_21" data-name="Ellipse 21" cx="35.831" cy="8.044" rx="35.831" ry="8.044" transform="translate(280.579 349.145)" fill="#4d8af0" opacity="0.1"/>
      <ellipse id="Ellipse_22" data-name="Ellipse 22" cx="64.642" cy="5.306" rx="64.642" ry="5.306" transform="translate(335.028 377.431)" fill="#4d8af0" opacity="0.1"/>
      <ellipse id="Ellipse_23" data-name="Ellipse 23" cx="64.642" cy="8.044" rx="64.642" ry="8.044" transform="translate(75.485 366.648)" fill="#4d8af0" opacity="0.1"/>
      <ellipse id="Ellipse_24" data-name="Ellipse 24" cx="48.638" cy="8.044" rx="48.638" ry="8.044" transform="translate(190.046 326.378)" fill="#4d8af0" opacity="0.1"/>
      <ellipse id="Ellipse_25" data-name="Ellipse 25" cx="38.936" cy="8.044" rx="38.936" ry="8.044" transform="translate(213.327 393.382)" fill="#4d8af0" opacity="0.1"/>
      <path id="Path_1645" data-name="Path 1645" d="M505.414,225.6c-1.029-6.925-7.32-23.086-7.32-23.086h0q-.164-.714-.372-1.429c-4.463-15.336-10.64-16.67-10.64-16.67l-22.128-4.763a1.715,1.715,0,0,1,.476.443,3.08,3.08,0,0,0-.348.052,8.668,8.668,0,0,1-1.938-4.191c-.043-.229-.081-.476-.11-.71a15.565,15.565,0,0,0-1.267-23.4c-.233-.181-.476-.357-.71-.524a3.527,3.527,0,0,0,.3-4.2c-1.743-3.62-5.534-5.911-9.43-7.03a15.988,15.988,0,0,0-9.154-.2,33.072,33.072,0,0,0-4.791,2.224c-2.939,1.467-6.192,2.629-8.387,5.044a2.461,2.461,0,0,0-.838,2.024,5.464,5.464,0,0,0,.833,1.472,4.441,4.441,0,0,1,.043,3.686,35.721,35.721,0,0,0-1.367,3.544A3.7,3.7,0,0,0,429,161.45a15.682,15.682,0,0,0,1.381.953,7.244,7.244,0,0,1,1.319,1.481q1.315,1.762,2.62,3.539a36.451,36.451,0,0,1,3.282,4.987,24.3,24.3,0,0,0,2.029,3.81,5.646,5.646,0,0,0,.872.914l-.257-.1a3.967,3.967,0,0,0,2.91,1.186h.133a.8.8,0,0,0,.533-.219v.476c.052,1.7.043,3.51-.076,5.211l-.2-.1a1.786,1.786,0,0,0-1.905.2L421.263,200.13s-4.429,6.058-3.81,16.518l-3.572,15.684s-4.463,13.307-1.029,22.809,5.425,14.936,5.425,14.936,1.372,10.8,3.434,11.679,2.953,1.357,2.953,1.357l.41,2.581h0s.138.252.381.676c1.5,2.61,7.059,11.821,10.288,10.836a41.294,41.294,0,0,1,.524,7.568l3.2,21.457s2.229,5.835,2.091,8.892,2.6,7.416,2.6,7.416a14.17,14.17,0,0,0-1.372,9.978c1.3,5.715,2.953,32.045,2.953,32.045l2.381,6.382-.067,7.482a7.144,7.144,0,0,1-1.477,3.334c-1.543,1.677-1.429,3.615-5.149,5.906s-6.077,3.158-6.077,6.192a7.965,7.965,0,0,1-.114,1.262c-.343,2.229-1.01,3.439,5.83,4.087a18.033,18.033,0,0,0,13.393-4.477s1.181-2.143,6.744-3.01c0,0,1.905-.1,2.005-1.781.038-.581.029-1.691,0-2.915-.091-2.329-.314-5.049-.61-5.182-.372-.167-1.019-2.51-1.243-3.358H462.9s1.429-10.8,0-17.789a28.859,28.859,0,0,1-.138-11.95l-.276-18.466s-1.905-2.039-.41-5.639,0-21.385,0-21.385.552-6.382,2.129-7.878.076-9.35,0-9.759l2.81,9.426s1.234,18.737,3.848,22.128l.753,8.487s5.353,7.811,4.325,12.017,1.1,19.418,1.1,19.418v15.551s-2.405,6.244.953,8.487l1.429-.057c-.476.443-.843,1.11-1.4,1.686-.643.662-1.01,3.182-1.214,5.349-.171,1.834-.229,3.41-.229,3.41a5.615,5.615,0,0,0,4.12,2.443c2.691.157,11.559,6.9,11.559,6.9s8.759,0,11.026-.476l.133-.033a2.977,2.977,0,0,0,1.71-1.4,3.572,3.572,0,0,0,.41-2.567c-.281-1.338-1.343-2.805-3.7-4.053-5.854-3.086-6.725-5.977-6.725-5.977l-3.844-5.768h.548a24.673,24.673,0,0,1,3.844-12.969l-.271-30.211s1.715-10.388-1.234-16.027c0,0-.243-5.973,1.729-7.806s-2.624-20.366-2.624-20.366-.953-9.95-2.072-19.028h0c4.634,4.4,9.44-11.431,10.25-14.246h.119l-.052-.2c.033-.133.052-.2.052-.2h0s-1.029-3.658-.276-2.915,2.61-2.038,2.61-2.038-.276-15.141,2.953-22.771S505.414,225.6,505.414,225.6ZM491.6,235.232l.024-.043c.476,9.245-.09,28.973-.09,28.973s-.638,2.529-1.319,5.506l-.476-18.742h0l-.476-17.656Zm-59.112-6.373s2.334,29.192,0,33.4a22.054,22.054,0,0,0-1.681,5.768c-.772-2.024-2.405-6.778-1.819-9.3.757-3.258-1.51-11.817-1.51-12.017a20.3,20.3,0,0,1,1.429-8.249c1.634-3.486.562-5,.562-5S430.841,227.754,432.489,228.859Z" transform="translate(-230.384 -82.551)" fill="url(#linear-gradient)"/>
      <path id="Path_1646" data-name="Path 1646" d="M453.886,449.408c-2.034,8.94-10.121-4.577-11.964-7.821-.238-.424-.372-.672-.372-.672l.876-4.11,4.634-1.905a12.945,12.945,0,0,1,2.077,1.353A12.52,12.52,0,0,1,453.886,449.408Z" transform="translate(-246.093 -237.353)" fill="#d38884"/>
      <path id="Path_1647" data-name="Path 1647" d="M584.525,432.131a.625.625,0,0,1-.052.2,1.01,1.01,0,0,1-.062.214c-.8,2.791-5.511,18.5-10.064,14.141-4.982-4.763-2.562-15.775-2.562-15.775h.033L582.3,429.84l2.077,2.134h0Z" transform="translate(-313.991 -234.703)" fill="#d38884"/>
      <path id="Path_1648" data-name="Path 1648" d="M515.974,510.786l.267,30.006a24.61,24.61,0,0,0-3.772,12.86l-13.546.533c-3.305-2.224-.953-8.421-.953-8.421V530.314s-2.091-15.094-1.081-19.275-4.244-11.907-4.244-11.907l-.743-8.426c-2.562-3.367-3.777-21.966-3.777-21.966l-2.748-9.392c.076.4,1.505,8.245,0,9.688s-2.091,7.816-2.091,7.816,1.481,17.661,0,21.228.4,5.6.4,5.6l.272,18.332a28.667,28.667,0,0,0,.133,11.86c1.415,6.94,0,17.661,0,17.661H469.56l.067-7.482-2.353-6.335s-1.619-26.148-2.9-31.811a14.212,14.212,0,0,1,1.343-9.907s-2.691-4.31-2.558-7.344-2.077-8.821-2.077-8.821l-3.134-21.295A41.369,41.369,0,0,0,456.4,446.4c-1.819-6.068-4.515-14.022-4.515-14.022l3.043.271,15.355,1.367s37.336-2.51,39.008-.424a7.009,7.009,0,0,1,.7,2.177c1.677,7.53,3.891,31.121,3.891,31.121s4.515,18.4,2.577,20.218-1.7,7.744-1.7,7.744C517.665,500.451,515.974,510.786,515.974,510.786Z" transform="translate(-251.503 -236.033)" fill="#444053"/>
      <path id="Path_1649" data-name="Path 1649" d="M489.786,690.735c-.1,1.672-1.967,1.772-1.967,1.772-5.458.857-6.62,2.982-6.62,2.982a17.531,17.531,0,0,1-13.141,4.449c-6.716-.648-6.063-1.843-5.715-4.058a8.4,8.4,0,0,0,.11-1.248c0-3.034,2.324-3.9,5.963-6.192s3.539-4.2,5.053-5.863,1.672-4.9,1.672-4.9c1.715-2.986,6.063.476,6.063.476.2,1.057,6.668.91,6.668.91s.857,3.439,1.3,3.639c.291.133.51,2.829.6,5.144C489.814,689.058,489.824,690.158,489.786,690.735Z" transform="translate(-256.878 -363.861)" fill="#b07473"/>
      <path id="Path_1650" data-name="Path 1650" d="M489.786,703.261c-.1,1.672-1.967,1.772-1.967,1.772-5.458.857-6.62,2.982-6.62,2.982a17.531,17.531,0,0,1-13.141,4.448c-6.716-.648-6.063-1.843-5.715-4.058,3,.743,8.735,1.781,12.083-.038,4.653-2.524,7.992-4.287,7.992-4.287l7.354-3.7C489.814,701.585,489.824,702.685,489.786,703.261Z" transform="translate(-256.878 -376.388)" opacity="0.1"/>
      <path id="Path_1651" data-name="Path 1651" d="M575.771,701.852a2.905,2.905,0,0,1-1.677,1.386l-.129.033c-2.224.476-10.821.476-10.821.476s-8.692-6.72-11.321-6.873a5.529,5.529,0,0,1-4.044-2.429s.052-1.562.219-3.382c.2-2.153.562-4.653,1.2-5.311,1.162-1.215,1.429-2.858,4.044-1.819,0,0,3.734-6.582,8.135-1.5l4.553,6.906s.857,2.858,6.625,5.958c2.305,1.238,3.334,2.7,3.625,4.025A3.548,3.548,0,0,1,575.771,701.852Z" transform="translate(-301.727 -365.982)" fill="#b07473"/>
      <path id="Path_1652" data-name="Path 1652" d="M575.771,713.458c-.514.433-1.081.9-1.677,1.386l-.129.033c-2.224.476-10.821.476-10.821.476s-8.692-6.72-11.321-6.873a5.529,5.529,0,0,1-4.044-2.429s.052-1.562.219-3.382c2.677.8,6.73,2.215,7.816,3.739,1.667,2.319,6.73,5.558,6.73,5.558s9.44-.91,13.631-1.034A3.548,3.548,0,0,1,575.771,713.458Z" transform="translate(-301.727 -377.588)" opacity="0.1"/>
      <path id="Path_1653" data-name="Path 1653" d="M501.738,214.148l-12.431,13.141s-15.065-1.11-12.436-5.558c1.338-2.267,1.548-7.011,1.429-11.136-.11-3.977-.519-7.363-.519-7.363s21.128-10.516,19.528-.71a16.14,16.14,0,0,0-.057,5.6C498.152,213.071,501.738,214.148,501.738,214.148Z" transform="translate(-264.43 -113.463)" fill="#d38884"/>
      <path id="Path_1654" data-name="Path 1654" d="M498.629,202.522a16.142,16.142,0,0,0-.057,5.6,15.508,15.508,0,0,1-11.059,4.615c-2.858,0-5.949-2.348-8.259-3.706-.11-3.982-.133-5.8-.133-5.8S500.248,192.715,498.629,202.522Z" transform="translate(-265.769 -113.463)" opacity="0.1"/>
      <path id="Path_1655" data-name="Path 1655" d="M495.179,177.056a15.57,15.57,0,1,1-5.858-12.164A15.57,15.57,0,0,1,495.179,177.056Z" transform="translate(-257.87 -94.166)" fill="#d38884"/>
      <path id="Path_1656" data-name="Path 1656" d="M512.584,436.059c-3.877,9.226-28.815,9.416-28.815,9.416V435.416l-1.51-.1c.652,2.882-.914,9.907-.914,9.907-19.709,2.782-24.515-8.449-24.515-8.449l.686-3.844,15.355,1.367s37.336-2.51,39.008-.424A7.006,7.006,0,0,1,512.584,436.059Z" transform="translate(-254.096 -236.321)" opacity="0.1"/>
      <path id="Path_1657" data-name="Path 1657" d="M483.769,336.717V326.657l-1.51-.1c.652,2.858-.914,9.907-.914,9.907-14.832,2.091-21.223-3.748-23.476-6.768a9.213,9.213,0,0,1-1.038-1.677l6.02-33.864,1.429-49.839,2.158-8.745.5-4.2v-.048h.052l1.534.657,9.178,3.967,10.426-7.873.152-.11.519-.4.862.691,2.143,1.719,6.873,44.385s11.907,34.174,14.136,47.967c.091.553.162,1.067.219,1.548C514.5,336.483,483.769,336.717,483.769,336.717Z" transform="translate(-254.096 -128.777)" fill="#4d8af0"/>
      <circle id="Ellipse_26" data-name="Ellipse 26" cx="0.886" cy="0.886" r="0.886" transform="translate(223.834 107.276)" fill="#67647e"/>
      <circle id="Ellipse_27" data-name="Ellipse 27" cx="0.886" cy="0.886" r="0.886" transform="translate(224.244 115.364)" fill="#67647e"/>
      <circle id="Ellipse_28" data-name="Ellipse 28" cx="0.886" cy="0.886" r="0.886" transform="translate(225.13 128.457)" fill="#67647e"/>
      <circle id="Ellipse_29" data-name="Ellipse 29" cx="0.886" cy="0.886" r="0.886" transform="translate(226.592 142.56)" fill="#67647e"/>
      <circle id="Ellipse_30" data-name="Ellipse 30" cx="0.886" cy="0.886" r="0.886" transform="translate(227.478 155.8)" fill="#67647e"/>
      <circle id="Ellipse_31" data-name="Ellipse 31" cx="0.886" cy="0.886" r="0.886" transform="translate(228.364 169.903)" fill="#67647e"/>
      <circle id="Ellipse_32" data-name="Ellipse 32" cx="0.886" cy="0.886" r="0.886" transform="translate(228.011 183.854)" fill="#67647e"/>
      <path id="Path_1658" data-name="Path 1658" d="M467.522,303.058s-.991,12.969-2.81,16.742-2.629,14.355-2.629,14.355l-4.225-.476A9.214,9.214,0,0,1,456.82,332l6.02-33.864,1.429-49.839,2.162-8.749.5-4.2.057-.024a1.705,1.705,0,0,1,1.505.024l.2.1q-.091.257-.171.529c-1.648,5.158-2.262,14.665-2.262,14.665s2.381,17.389,2.629,25.477S467.522,303.058,467.522,303.058Z" transform="translate(-254.09 -132.75)" opacity="0.1"/>
      <path id="Path_1659" data-name="Path 1659" d="M449.137,436.267a2.44,2.44,0,0,1-.162.314c-1.638,2.767-5.792,4.525-7.054,5.006-.238-.424-.372-.672-.372-.672l.876-4.11,4.634-1.905a12.946,12.946,0,0,1,2.077,1.367Z" transform="translate(-246.093 -237.353)" opacity="0.1"/>
      <path id="Path_1660" data-name="Path 1660" d="M423.32,298.81l-3.844,2.291-3.5,15.57s-4.382,13.207-1.015,22.643,5.325,14.836,5.325,14.836,1.348,10.716,3.372,11.593,2.9,1.348,2.9,1.348l.4,2.562s5.487-1.862,7.425-5.144-1.429-11.431-1.429-11.431-2.9-6.944-2.153-10.178-1.486-11.726-1.486-11.907a20.181,20.181,0,0,1,1.429-8.192c1.629-3.472.543-4.953.543-4.953l-1.014-9.907Z" transform="translate(-231.502 -166.081)" fill="#67647e"/>
      <path id="Path_1661" data-name="Path 1661" d="M547.044,325.972s-10.178,3.839-13.412.476-2.9-19.142-2.9-19.142-3.1-29.115-5.053-33.9-.953-39.294-.953-39.294-1.315-4.463-2.462-5.63a1.247,1.247,0,0,0-.243-.2l.4.086,1.381.3,2.143,1.719,6.873,44.385s11.907,34.174,14.136,47.967Z" transform="translate(-288.236 -129.149)" opacity="0.1"/>
      <path id="Path_1662" data-name="Path 1662" d="M585.16,432.525h-.114c-1.281.167-12.588,1.534-12.636-.819a6.877,6.877,0,0,1,.043-.814l10.478-1.072,2.077,2.134h0c.038.138.067.257.1.352Z" transform="translate(-314.626 -234.693)" opacity="0.1"/>
      <path id="Path_1663" data-name="Path 1663" d="M574.31,266.07l7.43,3.877s6.192,16.032,7.182,22.9c0,0,4.587,18.413,1.429,25.986s-2.9,22.6-2.9,22.6-1.819,2.762-2.562,2.024.271,2.9.271,2.9-12.7,1.686-12.755-.81,2.915-14.422,2.915-14.422.81-28.372-.338-32.821S574.31,266.07,574.31,266.07Z" transform="translate(-314.625 -148.935)" fill="#67647e"/>
      <path id="Path_1664" data-name="Path 1664" d="M523.18,329.52s-4.182,10.24-5.53,10.917.271,3.367.271,3.367S525.538,333.159,523.18,329.52Z" transform="translate(-285.667 -182.164)" opacity="0.1"/>
      <path id="Path_1665" data-name="Path 1665" d="M517.437,254.094c.048-.2-4.987,4.939-6.335,5.715S516.023,259.762,517.437,254.094Z" transform="translate(-282.42 -142.66)" opacity="0.1"/>
      <path id="Path_1666" data-name="Path 1666" d="M487.747,327.82s-7.683,4.968-6.668,6.935S487.747,327.82,487.747,327.82Z" transform="translate(-266.746 -181.274)" opacity="0.1"/>
      <path id="Path_1667" data-name="Path 1667" d="M524.47,480.07a41.125,41.125,0,0,0,16.713,5.239Z" transform="translate(-289.519 -261.009)" opacity="0.1"/>
      <path id="Path_1668" data-name="Path 1668" d="M491.5,501.3s6.063,7.621,8.83,7.816S491.5,501.3,491.5,501.3Z" transform="translate(-272.253 -272.128)" opacity="0.1"/>
      <path id="Path_1669" data-name="Path 1669" d="M501.286,564c-.271.133-3.439,6.873-6.668,7.078S501.286,564,501.286,564Z" transform="translate(-273.546 -304.964)" opacity="0.1"/>
      <path id="Path_1670" data-name="Path 1670" d="M568.33,594.781s6.011-1.348,7.349,2.963C575.679,597.729,575.274,596.381,568.33,594.781Z" transform="translate(-312.489 -320.98)" opacity="0.1"/>
      <path id="Path_1671" data-name="Path 1671" d="M559.84,646.182s7.282-1.486,8.83.538S559.84,646.182,559.84,646.182Z" transform="translate(-308.043 -347.729)" opacity="0.1"/>
      <path id="Path_1672" data-name="Path 1672" d="M508.727,654c0,.067-7.411,1.486-7.144,2.429s7.906.81,8.178-.676A1.429,1.429,0,0,0,508.727,654Z" transform="translate(-277.529 -352.098)" opacity="0.1"/>
      <path id="Path_1673" data-name="Path 1673" d="M554.75,666.949s12.179-1.486,11.431,1.076S554.75,666.949,554.75,666.949Z" transform="translate(-305.377 -358.655)" opacity="0.1"/>
      <path id="Path_1674" data-name="Path 1674" d="M420.89,352.44c.067.2,8.021,1.281,9.1,3.844,0,0-7.816-3.644-9.049-3.644" transform="translate(-235.273 -194.168)" opacity="0.1"/>
      <path id="Path_1675" data-name="Path 1675" d="M437.608,396.16s-6.606,2.091-6.135,5.239S430.8,399.942,437.608,396.16Z" transform="translate(-240.803 -217.064)" opacity="0.1"/>
      <path id="Path_1676" data-name="Path 1676" d="M437.92,426.794s2.405-3.3,4.7-2.7S437.92,426.794,437.92,426.794Z" transform="translate(-244.192 -231.657)" opacity="0.1"/>
      <path id="Path_1677" data-name="Path 1677" d="M489.346,164.888a3.748,3.748,0,0,1-.772.576c-1.905,1.11-2.429,2.82-3.334,4.791-.843,1.805-1.772,3.715-3.472,4.739-2.2,1.324-5.087.838-7.368,1.991a5.715,5.715,0,0,0-3.048,5.634A16.257,16.257,0,0,0,472,185.2a18.41,18.41,0,0,1,.7,5.606.956.956,0,0,1,0,.167,15.565,15.565,0,1,1,16.67-26.086Z" transform="translate(-257.896 -94.162)" opacity="0.1"/>
      <path id="Path_1678" data-name="Path 1678" d="M480.393,150.27c-1.71-3.591-5.43-5.868-9.254-6.978a15.543,15.543,0,0,0-8.988-.19,32.962,32.962,0,0,0-4.7,2.205c-2.886,1.457-6.058,2.61-8.23,5.006a2.508,2.508,0,0,0-.824,2.01,5.614,5.614,0,0,0,.814,1.457,4.423,4.423,0,0,1,.043,3.663,33.6,33.6,0,0,0-1.343,3.52,3.7,3.7,0,0,0,.724,3.529,13.2,13.2,0,0,0,1.362.953,7.17,7.17,0,0,1,1.291,1.467l2.572,3.515a35.654,35.654,0,0,1,3.22,4.949,23.58,23.58,0,0,0,1.991,3.777,4.31,4.31,0,0,0,3.61,1.929.7.7,0,0,0,.572-.271.753.753,0,0,0,.071-.357,18.281,18.281,0,0,0-.681-5.587,16.124,16.124,0,0,1-.648-2.581,5.739,5.739,0,0,1,3.048-5.634c2.286-1.153,5.177-.667,7.368-1.986,1.705-1.029,2.634-2.939,3.472-4.763.919-1.972,1.429-3.682,3.334-4.791S481.341,152.161,480.393,150.27Z" transform="translate(-249.348 -84.231)" fill="#585268"/>
      <path id="Path_1679" data-name="Path 1679" d="M501.63,693.06s2.381,3.034,1.762,4.763S501.63,693.06,501.63,693.06Z" transform="translate(-277.558 -372.555)" opacity="0.1"/>
      <path id="Path_1680" data-name="Path 1680" d="M569.28,704.427s.529-4.067,2.648-4.106,2.224-.219,3.844.4,3.139,1.591,2.653,1.734-2.786-2.324-5.149-1.062a17.011,17.011,0,0,0-4,3.029Z" transform="translate(-312.987 -376.329)" opacity="0.1"/>
      <path id="Path_1681" data-name="Path 1681" d="M479.881,245.21l6.668-4.672s-9.754-5.763-10.917-4.953-1.962,8.1-1.962,8.1Z" transform="translate(-262.915 -132.928)" opacity="0.1"/>
      <path id="Path_1682" data-name="Path 1682" d="M479.821,244.481l6.668-4.763s-9.754-5.763-10.917-4.953-1.962,8.5-1.962,8.5Z" transform="translate(-262.883 -132.499)" fill="#e1e7ef"/>
      <path id="Path_1683" data-name="Path 1683" d="M479.821,244.481l6.668-4.763s-9.754-5.763-10.917-4.953-1.962,8.5-1.962,8.5Z" transform="translate(-262.883 -132.499)" fill="#4d8af0"/>
      <path id="Path_1684" data-name="Path 1684" d="M451.6,234.613l-.2-.1a1.729,1.729,0,0,0-1.872.2l-20,16.227s-4.349,6.016-3.744,16.394l11.8,16.713s1.348-5.658,2.962-4.582c0,0,2.291,28.982,0,33.159s-3.3,19.814-3.3,19.814l7.749.876s.81-10.583,2.629-14.355,2.81-16.741,2.81-16.741,1.638-18.842,1.367-26.929-2.629-25.477-2.629-25.477S449.824,239.614,451.6,234.613Z" transform="translate(-237.802 -132.309)" fill="#67647e"/>
      <path id="Path_1685" data-name="Path 1685" d="M512.751,238.484l-8.311-3.077s10.583-11.593,11.907-5.163Z" transform="translate(-279.029 -129.155)" opacity="0.1"/>
      <path id="Path_1686" data-name="Path 1686" d="M512.751,237.634l-8.311-3.077s10.583-11.593,11.907-5.163Z" transform="translate(-279.029 -128.71)" fill="#e1e7ef"/>
      <path id="Path_1687" data-name="Path 1687" d="M512.751,237.634l-8.311-3.077s10.583-11.593,11.907-5.163Z" transform="translate(-279.029 -128.71)" fill="#4d8af0"/>
      <path id="Path_1688" data-name="Path 1688" d="M521.32,228.113a.476.476,0,0,1,.343.076Z" transform="translate(-287.87 -129.053)" opacity="0.1"/>
      <path id="Path_1689" data-name="Path 1689" d="M523,226.421l22.052,4.763s6.068,1.348,10.45,16.58-6,33.893-6,33.893l-2.291-1.948,1.148,44.48s-10.178,3.839-13.412.476-2.9-19.156-2.9-19.156-3.1-29.111-5.058-33.9-.953-39.289-.953-39.289S524.238,226.154,523,226.421Z" transform="translate(-288.75 -128.165)" fill="#67647e"/>
      <path id="Path_1690" data-name="Path 1690" d="M565.042,285.72c-.31.286-.672,13.746.676,23.991a130.737,130.737,0,0,0,3.81,18.466l-2-41.042S565.985,284.844,565.042,285.72Z" transform="translate(-310.616 -159.121)" opacity="0.1"/>
      <path id="Path_1691" data-name="Path 1691" d="M559.7,261.6c.538.338,2.9,5.93,1.819,8.221S559.7,261.6,559.7,261.6Z" transform="translate(-307.97 -146.594)" opacity="0.1"/>
      <path id="Path_1692" data-name="Path 1692" d="M493.37,153.207a12.174,12.174,0,0,0-4.849-5.077,11.531,11.531,0,0,1,3.634,4.287c.953,1.905.672,3.81-1.181,4.853s-2.429,2.82-3.334,4.791c-.843,1.805-1.772,3.715-3.477,4.763-2.191,1.324-5.082.834-7.368,1.986a5.754,5.754,0,0,0-3.048,5.639,16.2,16.2,0,0,0,.653,2.577,18.425,18.425,0,0,1,.7,5.606.752.752,0,0,1-.076.357.681.681,0,0,1-.567.271,3.282,3.282,0,0,1-1.662-.31,3.868,3.868,0,0,0,2.858,1.119.562.562,0,0,0,.638-.629,18.275,18.275,0,0,0-.691-5.606,15.644,15.644,0,0,1-.653-2.581,5.739,5.739,0,0,1,3.048-5.635c2.286-1.153,5.177-.667,7.368-1.986,1.705-1.029,2.634-2.939,3.472-4.763.919-1.972,1.429-3.682,3.334-4.791S494.323,155.1,493.37,153.207Z" transform="translate(-262.454 -87.168)" opacity="0.1"/>
      <path id="Path_1693" data-name="Path 1693" d="M698.783,225.059c-6.563-.129-12.355-4.763-15.637-10.426a10.478,10.478,0,0,1-1.581-4.463,5.149,5.149,0,0,1,.181-1.067,11.074,11.074,0,0,0,.476-1.634,2.86,2.86,0,0,0,0-.667v-.038a3.941,3.941,0,0,0-1.429-3.205c-.876-.824-1.977-1.429-2.891-2.248-2.82-2.477-3.677-6.449-3.729-10.231v-.2c.033-1.619.162-3.244.148-4.863a20.441,20.441,0,0,0-.119-2.753,9.1,9.1,0,0,0-2.943-6.087c-4.7-3.81-12.593.157-17.456-3.444-1.181-.881-2.139-2.181-3.572-2.524a6.018,6.018,0,0,0-3.263.443c-3.582,1.181-7.578,2.734-8.978,6.192-.8,1.986-.576,4.253-1.31,6.263a31.263,31.263,0,0,1-2.048,3.782,5.921,5.921,0,0,0-.762,3.158,3.562,3.562,0,0,0,.233,1.681,4.286,4.286,0,0,0,1.167,1.672,5.554,5.554,0,0,1-.7,1.114c-.915,1.119-2.32,1.905-3.272,3.02-1.762,2.043-1.7,4.82-.829,7.221s2.434,4.587,3.515,6.925a3.717,3.717,0,0,1,.357,3.158,9.055,9.055,0,0,1-1.581,1.838,5.777,5.777,0,0,0-1.429,3.191c-10.721,2.448-10.731,11.064-10.731,11.064h0L614.813,246.5s-.929,2.453-2.019,5.692l-6.854-1.229,4.763,7.973c-.9,3.248-1.538,6.258-1.329,7.773,0,0-2.129,10,1.658,11.75l8.354,3.758a4.949,4.949,0,0,0,1.157.519l.338.152a.9.9,0,0,0,.781,0h.114a1.123,1.123,0,0,0,.476-.071.952.952,0,0,0,.419-.452.143.143,0,0,1,0-.048l2.5-.724,2.12,2.51c.953.672,1.905,1.253,2.805,1.777l-3.282,32.588s-.529,43.342-2.129,53.22a27.668,27.668,0,0,0-.372,7.849l-.062.1c.4,2.786,1.429,3.334,1.429,3.334v-.038a.307.307,0,0,0,.062.038,28.062,28.062,0,0,1,1.715-3.677v.714c-.033,3.677-.148,8.826-.529,12.174-.648,5.715,1.658,24.553,1.658,24.553l.8,17.146a15.851,15.851,0,0,1-1.953,8.354c-1.905,3.424-4.339,8.245-4.515,10.383a2.147,2.147,0,0,0,0,.348h0l-4.087,4.915s-1.6,2.467,2.01,3.463c1.939.538,5.282,0,7.968-.633a5.325,5.325,0,0,0,4.129-5.182,18.337,18.337,0,0,1,3.372-6.473l.672,3.948,4.5,1.115.576-10.821a4.761,4.761,0,0,0,.31-1.905h0c.886-7.7-2.086-7.006-2.086-7.006a.415.415,0,0,1,.143.267l-.143-.262h0c-1.824-3.6-.953-9.526-.953-9.526s2.381-17.146,3.2-21.676c.586-3.2.343-13.679.148-19.528a6.993,6.993,0,0,0-.024-.71c6.973-.09,15.517-.324,21.514-.9v.7l-1.1,40.508A22.238,22.238,0,0,1,661.5,430.8a.411.411,0,0,1-.052.138,32.866,32.866,0,0,0-2.2,10.616l-.514,12.86v.357h0c-.9.343-2.31,1.338-2.348,4.225-.062,4.229,7.392,2.82,7.392,2.82,7.449,0,7.511-7.754,7.511-7.754s.233-7.111.591-11.869-1.124-3.71-1.124-3.71l-.114,13.536V440.255l.114-1.719v-.048h0v-.367l.938-13.96s6.863-23.262,7.925-27.725c.757-3.172.443-12.726.2-18.008a4.2,4.2,0,0,0-.038-.7c2.129-.191,4.01-.21,4.763-.21h.348s-.352-37.36-1.243-51.439-2.305-26.963-5.854-30.84c-2.143-2.343-5.13-9.578-7.144-14.936a74.724,74.724,0,0,0,13.131,4.287c11.236,2.353,9.7-7.4,9.7-7.4l-1.138-18.447h.076a94.052,94.052,0,0,0-1.238-14.422,42.438,42.438,0,0,0-2.9-10.478c1.219-.476,2.424-.986,3.605-1.51,3.053-1.348,6.492-3.258,6.93-6.549h-.148A4.251,4.251,0,0,0,698.783,225.059Zm-69.648,26.672h0c.024,1.905-.048,5.211-.162,8.864l-3.567-4.763,3.577-5.8ZM676.935,261.4Zm1.486,7.206-5.944-1.905a26.671,26.671,0,0,1,3.672-4.544l.514-.476-.186.038.286-.262.172-.038-.271.262.324-.067a10.14,10.14,0,0,0,2.024,4.072c2.134,2.329-.586,2.92-.586,2.92Z" transform="translate(-332.186 -99.208)" fill="url(#linear-gradient-2)"/>
      <path id="Path_1694" data-name="Path 1694" d="M644.483,715.66l-.7,13.184-4.434-1.11-.934-5.482Z" transform="translate(-334.355 -374.798)" fill="#a27772"/>
      <path id="Path_1695" data-name="Path 1695" d="M644.483,715.66l-.7,13.184-4.434-1.11-.934-5.482Z" transform="translate(-334.355 -374.798)" opacity="0.1"/>
      <path id="Path_1696" data-name="Path 1696" d="M716.48,674.662l6.763,1.4,5.015-4.429V659.15l.114-1.705v-.052h0v-.362l.934-13.874s6.768-23.1,7.821-27.529c.743-3.143.433-12.631.186-17.875-.1-2.148-.186-3.586-.186-3.586L722.2,590.55l-.314,11.479-1.091,40.218a22.284,22.284,0,0,1-1.529,7.482l-.052.138a32.73,32.73,0,0,0-2.167,10.535l-.5,12.788v.352Z" transform="translate(-390.077 -318.869)" fill="#cc818c"/>
      <path id="Path_1697" data-name="Path 1697" d="M741.45,730.14v.352h0v-.362Z" transform="translate(-403.155 -391.969)" opacity="0.1"/>
      <path id="Path_1698" data-name="Path 1698" d="M716.48,762.651l6.763,1.4,5.015-4.429V758.56a1.429,1.429,0,0,1-.719,1.143l-.071.043a13.479,13.479,0,0,1-7.592,1.5l-2.639-.224a2.468,2.468,0,0,0-.7.172v.352Z" transform="translate(-390.077 -406.858)" opacity="0.1"/>
      <path id="Path_1699" data-name="Path 1699" d="M724.964,745.495l.071-.038a1.429,1.429,0,0,0,.729-1.238l.11-13.436s1.457-1.043,1.105,3.682-.581,11.783-.581,11.783-.057,7.7-7.406,7.7c0,0-7.349,1.4-7.292-2.8s3.034-4.372,3.034-4.372l2.639.229A13.446,13.446,0,0,0,724.964,745.495Z" transform="translate(-387.574 -392.259)" fill="#b07473"/>
      <path id="Path_1700" data-name="Path 1700" d="M642.52,676.644c.172,3.034,9.1,1.281,9.1,1.281l6.006-11.66s5.015-3.853,2.505-7.235a5.4,5.4,0,0,1-.367-.576l-.024-.029h0c-.052-.086-.1-.176-.148-.271h0c-1.8-3.572-.914-9.431-.914-9.431S661,631.692,661.824,627.2c.576-3.172.338-13.579.148-19.4-.076-2.42-.148-4.044-.148-4.044l-14.817-3.968v4.42c-.033,3.653-.148,8.764-.524,12.088-.638,5.654,1.634,24.376,1.634,24.376l.786,17.037A15.78,15.78,0,0,1,647,666c-1.858,3.4-4.287,8.192-4.453,10.312a2.072,2.072,0,0,0-.024.329Z" transform="translate(-351.344 -323.708)" fill="#cc818c"/>
      <path id="Path_1701" data-name="Path 1701" d="M642.515,741.149c.172,3.034,9.1,1.281,9.1,1.281l6.006-11.66s5.015-3.853,2.505-7.235a5.388,5.388,0,0,1-.367-.576c-.081,1.767-2.02,6.192-2.02,6.192s-4.958,9.921-6.535,12.193-8.426-.424-8.683-.519A2.087,2.087,0,0,0,642.515,741.149Z" transform="translate(-351.339 -388.214)" opacity="0.1"/>
      <path id="Path_1702" data-name="Path 1702" d="M654.719,722.283s2.934-.681,2.058,6.959h0a4.92,4.92,0,0,1-2.319,4.367,16.679,16.679,0,0,0-6.978,9.678h0a5.277,5.277,0,0,1-4.072,5.144c-2.648.619-5.949,1.162-7.859.629-3.558-.991-1.981-3.439-1.981-3.439l4.082-4.844s7.116,2.8,8.687.524,6.535-12.188,6.535-12.188S655.591,722.926,654.719,722.283Z" transform="translate(-346.473 -387.851)" fill="#b07473"/>
      <path id="Path_1703" data-name="Path 1703" d="M728.134,593.52,727.82,605c3.977-.386,6.825-.924,7.311-1.681,1.053-1.629,4.872-2.315,8.121-2.6-.1-2.148-.186-3.586-.186-3.586Z" transform="translate(-396.016 -320.424)" opacity="0.1"/>
      <path id="Path_1704" data-name="Path 1704" d="M651.94,607.14a5.447,5.447,0,0,1,1.634-1.972c1.572-.872,1.4,5.6,1.4,5.6s5.239.048,11.931-.038c-.076-2.42-.148-4.048-.148-4.048L651.94,602.72S651.969,604.558,651.94,607.14Z" transform="translate(-356.277 -325.242)" opacity="0.1"/>
      <path id="Path_1705" data-name="Path 1705" d="M646.693,496.311s1.753-4.763,3.334-5.611,1.4,5.6,1.4,5.6,38.494.352,40.418-2.624,13.122-2.8,13.122-2.8-.348-37.093-1.224-51.087-2.272-26.772-5.773-30.621c-2.262-2.491-5.482-10.55-7.473-15.922-1.081-2.934-1.8-5.072-1.8-5.072l-36.741,2.1-.3,2.977-3.9,39.017s-.524,43.042-2.1,52.839S646.693,496.311,646.693,496.311Z" transform="translate(-352.72 -212.88)" fill="#444053"/>
      <g id="Group_22" data-name="Group 22" transform="translate(292.472 175.29)" opacity="0.1">
        <path id="Path_1706" data-name="Path 1706" d="M698.124,493.672c1.905-2.972,13.122-2.8,13.122-2.8s-.348-37.093-1.224-51.087-2.272-26.772-5.773-30.621c-2.272-2.5-5.482-10.55-7.473-15.922-.91-2.467-1.562-4.368-1.743-4.911l2.858-.162s.719,2.139,1.805,5.072c1.991,5.373,5.206,13.431,7.468,15.922,3.5,3.848,4.9,16.622,5.773,30.621s1.229,51.087,1.229,51.087-11.2-.171-13.126,2.8c-1.643,2.539-29.968,2.658-38.189,2.634C673.4,496.282,696.638,495.968,698.124,493.672Z" transform="translate(-654.463 -388.17)"/>
        <path id="Path_1707" data-name="Path 1707" d="M647.083,603.35c.71-.4,1.062.7,1.238,2.029a27.465,27.465,0,0,0-1.653,3.582s-1.014-.548-1.429-3.334A6.483,6.483,0,0,1,647.083,603.35Z" transform="translate(-645.24 -500.82)"/>
      </g>
      <path id="Path_1708" data-name="Path 1708" d="M664.173,193.953c-2.543,3.467.029,8.4-2.7,11.769-.9,1.115-2.286,1.905-3.225,3-1.738,2.029-1.672,4.787-.819,7.168s2.381,4.553,3.467,6.878a3.679,3.679,0,0,1,.352,3.134,8.875,8.875,0,0,1-1.562,1.824,6.579,6.579,0,0,0-.857,6.982,22.6,22.6,0,0,0,4.52,6.239,3.085,3.085,0,0,0,4.482,1.024,17.623,17.623,0,0,0,8.021-23c-1.477-3.539-3.939-6.93-3.963-10.669,0-2.967,1.524-5.8,1.8-8.754.329-3.591-1.8-9.292-6.13-10.859C667.841,191,665.464,192.172,664.173,193.953Z" transform="translate(-358.846 -108.41)" fill="#585268"/>
      <path id="Path_1709" data-name="Path 1709" d="M664.173,193.953c-2.543,3.467.029,8.4-2.7,11.769-.9,1.115-2.286,1.905-3.225,3-1.738,2.029-1.672,4.787-.819,7.168s2.381,4.553,3.467,6.878a3.679,3.679,0,0,1,.352,3.134,8.875,8.875,0,0,1-1.562,1.824,6.579,6.579,0,0,0-.857,6.982,22.6,22.6,0,0,0,4.52,6.239,3.085,3.085,0,0,0,4.482,1.024,17.623,17.623,0,0,0,8.021-23c-1.477-3.539-3.939-6.93-3.963-10.669,0-2.967,1.524-5.8,1.8-8.754.329-3.591-1.8-9.292-6.13-10.859C667.841,191,665.464,192.172,664.173,193.953Z" transform="translate(-358.846 -108.41)" opacity="0.1"/>
      <path id="Path_1710" data-name="Path 1710" d="M700.76,464.55c-5.091.267-9.883,2.458-14.341,4.934s-8.773,5.282-13.569,7.04" transform="translate(-367.228 -252.881)" opacity="0.1"/>
      <path id="Path_1711" data-name="Path 1711" d="M698.53,489.74a20.99,20.99,0,0,0-13.217,6.43c-1.238,1.31-2.305,2.777-3.6,4.034a15.975,15.975,0,0,1-7.087,4.015" transform="translate(-368.16 -266.073)" opacity="0.1"/>
      <path id="Path_1712" data-name="Path 1712" d="M695.31,508.91a23.109,23.109,0,0,0-10.631,6.411c-.781.843-1.491,1.743-2.272,2.586-4.215,4.525-10.169,6.925-15.917,9.2" transform="translate(-363.897 -276.113)" opacity="0.1"/>
      <path id="Path_1713" data-name="Path 1713" d="M703.869,242.789a104.493,104.493,0,0,0,1.048,12.155c.476,2.858,1.143,5.43,2.1,6.568,2.8,3.334-13.646,7.787-13.646,7.787l-9.711-7.525s7.7-7.087,4.11-14S703.869,242.789,703.869,242.789Z" transform="translate(-372.889 -136.613)" fill="#cc818c"/>
      <path id="Path_1714" data-name="Path 1714" d="M658.79,393.242h38.841c-1.081-2.934-1.8-5.072-1.8-5.072l-36.741,2.1Z" transform="translate(-359.865 -212.88)" opacity="0.1"/>
      <path id="Path_1715" data-name="Path 1715" d="M645.2,331.828H686.73a14.409,14.409,0,0,1,1.662-11.012,24.341,24.341,0,0,1,4.349-5.639l.286-.262,14.5-3.21.781-.171s.119-26.363-9.216-29.982a54.579,54.579,0,0,1-14.932-8.511L671.332,277l-9.45-4.763c-3.034,3.263-11.083,1.981-11.083,1.981-13.179,1.515-13.179,11.431-13.179,11.431s7.7,17.961,8.283,17.961S645.2,331.828,645.2,331.828Z" transform="translate(-348.777 -152.166)" fill="#4d8af0"/>
      <path id="Path_1716" data-name="Path 1716" d="M671.16,356.488s-8.468-1.877-11.35-5.158" transform="translate(-360.399 -193.586)" opacity="0.1"/>
      <path id="Path_1717" data-name="Path 1717" d="M762.491,341.51l-9.821,8.049a16.743,16.743,0,0,0,.324,1.905l.286-.262,14.5-3.21Z" transform="translate(-409.031 -188.443)" opacity="0.1"/>
      <path id="Path_1718" data-name="Path 1718" d="M717.46,378.9s2.148,1.21,5.439,2.8h5.644a14.409,14.409,0,0,1,1.662-11.012l-9.95-3.22C723.642,370.618,717.46,378.9,717.46,378.9Z" transform="translate(-390.591 -202.039)" opacity="0.1"/>
      <path id="Path_1719" data-name="Path 1719" d="M630.618,293.76l-5.83,3.148-5.715,14.465s-5.949,15.86-5.368,20.061c0,0-2.1,9.916,1.634,11.664l9.716,4.4a.9.9,0,0,0,1.167-1.248c-1.386-2.624-2.91-6.73-.476-8.988l-2.8-5.83,10.121-16.565,3.382-5.715Z" transform="translate(-335.945 -163.436)" fill="#4d8af0"/>
      <path id="Path_1720" data-name="Path 1720" d="M677.006,350.791c.5,2.058,2.21,5.239,7.854,6.425l6.192,5.072,6.587,2.986,2.686,1.215,1.138-8.225-2.586-1.429-3.015-1.648s-6.8-12.322-17.57-7.144A2.381,2.381,0,0,0,677.006,350.791Z" transform="translate(-369.365 -191.2)" opacity="0.1"/>
      <path id="Path_1721" data-name="Path 1721" d="M677.757,349.352c.5,2.062,2.205,5.239,7.849,6.425l6.192,5.072,6.592,2.986,2.682,1.215,1.138-8.225-2.586-1.429-2.991-1.634s-6.806-12.322-17.575-7.12a2.381,2.381,0,0,0-1.3,2.71Z" transform="translate(-369.763 -190.46)" fill="#cc818c"/>
      <circle id="Ellipse_33" data-name="Ellipse 33" cx="15.046" cy="15.046" r="15.046" transform="translate(305.084 86.753)" opacity="0.1"/>
      <circle id="Ellipse_34" data-name="Ellipse 34" cx="15.046" cy="15.046" r="15.046" transform="translate(305.084 86.405)" fill="#cc818c"/>
      <path id="Path_1722" data-name="Path 1722" d="M717.9,283.738l-4.525-8.792s6.62-2.677,7.1-5.777,6.344,3.634,5.077,5.868S717.9,283.738,717.9,283.738Z" transform="translate(-388.454 -150.137)" opacity="0.1"/>
      <path id="Path_1723" data-name="Path 1723" d="M717.9,282.268l-4.525-8.792s6.62-2.677,7.1-5.777,6.344,3.639,5.077,5.868S717.9,282.268,717.9,282.268Z" transform="translate(-388.454 -149.368)" fill="#4d8af0"/>
      <path id="Path_1724" data-name="Path 1724" d="M625.292,343.267l25,33.612s-9.216,5.015-21.909-3.963l-5.482-6.535L607.25,340Z" transform="translate(-332.872 -187.653)" fill="#f6f8fb"/>
      <path id="Path_1725" data-name="Path 1725" d="M634.156,375.708l2.277-.062s13.908-13.5,17.323-6.668-8.664,13.212-8.664,13.212l-3.672,1.981-4.787,1.429-3.062-4.11Z" transform="translate(-346.656 -201.819)" fill="#cc818c"/>
      <path id="Path_1726" data-name="Path 1726" d="M634.051,390.948a3.4,3.4,0,0,1,.057,2.353.952.952,0,0,1-.414.452,1.062,1.062,0,0,1-.476.067,4.787,4.787,0,0,1-3.139-1.553,14.334,14.334,0,0,1-2.034-2.943A5.43,5.43,0,0,1,627,385.818c.248-1.338,1.429-2.267,2.586-3.02,2.305-1.524,2.381.252,2.886,2.215S633.522,388.966,634.051,390.948Z" transform="translate(-343.194 -209.766)" opacity="0.1"/>
      <path id="Path_1727" data-name="Path 1727" d="M633.319,390.948a3.426,3.426,0,0,1,.057,2.353.952.952,0,0,1-.414.452,1.072,1.072,0,0,1-.476.067,4.763,4.763,0,0,1-3.139-1.553,14.176,14.176,0,0,1-2.038-2.943,5.4,5.4,0,0,1-1.038-3.505c.243-1.338,1.429-2.267,2.581-3.02,2.31-1.524,2.381.252,2.891,2.215S632.786,388.966,633.319,390.948Z" transform="translate(-342.81 -209.766)" fill="#4d8af0"/>
      <path id="Path_1728" data-name="Path 1728" d="M623.85,315.777l1.162-1.967L624,317.463Z" transform="translate(-326.725 -164.344)" opacity="0.1"/>
      <path id="Path_1729" data-name="Path 1729" d="M721.19,374.87l2.682,1.215,1.138-8.225-2.586-1.429C724.21,368.478,722.647,372.264,721.19,374.87Z" transform="translate(-392.544 -201.494)" opacity="0.1"/>
      <path id="Path_1730" data-name="Path 1730" d="M730.226,362.084s-8.659.529-12.336-1.834" transform="translate(-390.816 -198.258)" opacity="0.1"/>
      <g id="Group_23" data-name="Group 23" transform="translate(301.469 120.76)" opacity="0.1">
        <path id="Path_1731" data-name="Path 1731" d="M737.288,323.166a24.375,24.375,0,0,1,4.348-5.644,11.613,11.613,0,0,1,1.281-.7l13.5-2.772.781-.171s.119-26.363-9.211-29.982a56.07,56.07,0,0,1-14.555-8.2l1.024-.314a54.433,54.433,0,0,0,14.932,8.511c9.335,3.615,9.211,29.982,9.211,29.982h-1.4l-13.812,2.643s-.6.576-.776.743a26.768,26.768,0,0,0-4.415,5.839,14.641,14.641,0,0,0-1.157,11.069h-1.429A14.559,14.559,0,0,1,737.288,323.166Z" transform="translate(-700.423 -274.576)"/>
        <path id="Path_1732" data-name="Path 1732" d="M664.13,277.9c.224-.033.438-.067.672-.09a24.152,24.152,0,0,0,2.858.233A25.97,25.97,0,0,1,664.13,277.9Z" transform="translate(-664.13 -275.843)"/>
        <path id="Path_1733" data-name="Path 1733" d="M696.3,278.457l-8.545-4.325a4.521,4.521,0,0,0,.476-.452l8.916,4.51Z" transform="translate(-676.505 -273.68)"/>
      </g>
      <path id="Path_1734" data-name="Path 1734" d="M744.772,340l5.715,7,1.167,19.013s1.515,9.678-9.564,7.344-23.9-9.545-23.9-9.545,6.192-8.283,2.8-11.431l15.865,5.134s2.682-.586.581-2.915-2.472-6.535-2.472-6.535Z" transform="translate(-390.973 -187.653)" fill="#4d8af0"/>
      <path id="Path_1735" data-name="Path 1735" d="M779.42,382.17l3.148,3.615A4.539,4.539,0,0,1,779.42,382.17Z" transform="translate(-423.04 -209.738)" opacity="0.1"/>
      <path id="Path_1736" data-name="Path 1736" d="M736.99,360.8l4.9,6.3-2.448.586Z" transform="translate(-385.978 -188.953)" opacity="0.1"/>
      <path id="Path_1737" data-name="Path 1737" d="M665.308,195.8a5.025,5.025,0,0,1,.524-4.1,32.4,32.4,0,0,0,2.024-3.758c.719-1.991.5-4.244,1.286-6.192,1.386-3.453,5.325-5,8.854-6.192a5.953,5.953,0,0,1,3.22-.438c1.429.338,2.358,1.634,3.525,2.505,4.791,3.572,12.583-.362,17.218,3.42a9.013,9.013,0,0,1,2.9,6.039,53.319,53.319,0,0,1-.029,6.868c-.076,4.01.676,8.4,3.677,11.055.9.8,1.972,1.4,2.858,2.229a3.9,3.9,0,0,1,1.429,3.186,11.042,11.042,0,0,1-.476,1.619c-.6,2.091.3,4.287,1.381,6.192,3.239,5.606,8.949,10.226,15.422,10.354-.433,3.267-3.81,5.163-6.835,6.5-3.81,1.71-7.868,3.386-12.064,3.172s-8.573-2.9-9.307-7.035c-.252-1.429-.219-3.148-1.429-3.891-.743-.452-1.705-.338-2.505-.676-1.157-.476-1.729-1.777-2.11-2.972a26.755,26.755,0,0,1-1.243-7.621c-.052-3.067.353-6.416-1.386-8.94-1.61-2.339-4.468-3.525-6.325-5.673-1.715-1.991-3.577-4.391-6.387-4.763C675.643,196.145,667.6,201.427,665.308,195.8Z" transform="translate(-363.148 -101.257)" opacity="0.1"/>
      <path id="Path_1738" data-name="Path 1738" d="M665.308,194.333a5.025,5.025,0,0,1,.524-4.1,32.394,32.394,0,0,0,2.024-3.758c.719-1.991.5-4.244,1.286-6.192,1.386-3.458,5.325-5,8.854-6.192a5.953,5.953,0,0,1,3.22-.438c1.429.338,2.358,1.634,3.525,2.505,4.791,3.572,12.583-.362,17.218,3.42a9.014,9.014,0,0,1,2.9,6.044,53.241,53.241,0,0,1-.029,6.863c-.076,4.01.676,8.4,3.677,11.055.9.8,1.972,1.4,2.858,2.229a3.9,3.9,0,0,1,1.429,3.186,11.041,11.041,0,0,1-.476,1.619c-.6,2.091.3,4.287,1.381,6.192,3.248,5.587,8.935,10.221,15.408,10.35-.433,3.267-3.81,5.163-6.835,6.506-3.81,1.705-7.868,3.382-12.064,3.167s-8.573-2.9-9.307-7.035c-.252-1.429-.219-3.148-1.429-3.891-.743-.452-1.705-.338-2.505-.676-1.157-.476-1.729-1.777-2.11-2.972a26.716,26.716,0,0,1-1.243-7.621c-.052-3.067.352-6.416-1.386-8.94-1.61-2.339-4.468-3.525-6.325-5.673-1.715-1.991-3.577-4.391-6.387-4.763C675.643,194.675,667.6,199.967,665.308,194.333Z" transform="translate(-363.148 -100.488)" fill="#585268"/>
      <path id="Path_1739" data-name="Path 1739" d="M684.736,283.127l8.625-7s-5.906-3.2-6.611-5.93-5.43,1.3-4.949,3.744S684.736,283.127,684.736,283.127Z" transform="translate(-371.898 -150.617)" opacity="0.1"/>
      <path id="Path_1740" data-name="Path 1740" d="M685.478,280.922l8.626-7s-5.906-3.2-6.582-5.93-5.43,1.3-4.949,3.744S685.478,280.922,685.478,280.922Z" transform="translate(-372.302 -149.465)" fill="#4d8af0"/>
      <circle id="Ellipse_35" data-name="Ellipse 35" cx="0.686" cy="0.686" r="0.686" transform="translate(321.454 129.633)" opacity="0.1"/>
      <circle id="Ellipse_36" data-name="Ellipse 36" cx="0.686" cy="0.686" r="0.686" transform="translate(321.454 133.443)" opacity="0.1"/>
      <circle id="Ellipse_37" data-name="Ellipse 37" cx="0.686" cy="0.686" r="0.686" transform="translate(321.454 137.249)" opacity="0.1"/>
      <g id="Group_24" data-name="Group 24" transform="translate(302.02 78.261)" opacity="0.1">
        <path id="Path_1741" data-name="Path 1741" d="M671.905,190.308c.681-1.872.533-3.972,1.172-5.858a6.4,6.4,0,0,0-.729,1.343c-.791,1.967-.567,4.22-1.291,6.192l-.048.114a10.884,10.884,0,0,0,.9-1.791Z" transform="translate(-668.285 -184.45)"/>
        <path id="Path_1742" data-name="Path 1742" d="M723.324,248.983c-3.81,1.705-7.868,3.382-12.064,3.167s-8.573-2.9-9.307-7.03c-.252-1.429-.219-3.153-1.429-3.9-.743-.452-1.705-.338-2.505-.676-1.157-.476-1.729-1.777-2.11-2.972a26.722,26.722,0,0,1-1.243-7.621c-.052-3.063.357-6.411-1.381-8.94-1.615-2.339-4.472-3.52-6.33-5.673-1.715-1.986-3.577-4.391-6.387-4.763-3.853-.524-11.907,4.763-14.184-.867a4.429,4.429,0,0,1,.148-3.253c-.167.281-.329.562-.476.848a5.045,5.045,0,0,0-.519,4.106c2.291,5.62,10.331.338,14.184.867,2.81.381,4.672,2.786,6.387,4.763,1.858,2.153,4.715,3.334,6.325,5.677,1.743,2.524,1.334,5.873,1.386,8.935a26.722,26.722,0,0,0,1.243,7.621,4.424,4.424,0,0,0,2.11,2.972c.8.338,1.762.229,2.505.676,1.229.743,1.2,2.481,1.429,3.9.743,4.129,5.115,6.816,9.307,7.03s8.23-1.457,12.064-3.167c2.762-1.229,5.839-2.929,6.668-5.715C727.821,246.778,725.477,248.026,723.324,248.983Z" transform="translate(-665.288 -195.977)"/>
      </g>
      <path id="Path_1743" data-name="Path 1743" d="M863.5,293.345c-10.083-5.8-13.893-7.23-13.912-7.23l-.21-.148a8.387,8.387,0,0,1-2.539-3.21,6.683,6.683,0,0,1,0-.691.29.29,0,0,0,0,.067c.157-3.072,2.343-5.868,4.415-8.306l5.3-6.235a6.145,6.145,0,0,0,1.367-2.162,4.984,4.984,0,0,0,.143-1.329q0-.271,0-.543c-.029-1.548-.071-3.1-.129-4.649-.048-1.353-.4-3.058-1.748-3.334-.7-.143-1.638.11-2.01-.476a1.157,1.157,0,0,1-.091-.8.277.277,0,0,0,0,.067v-.076a17.934,17.934,0,0,0,.5-3.186,4.342,4.342,0,0,0-.219-1.615c-.781-2.243-3.482-3.167-5.868-3.591s-5.063-.786-6.559-2.653a19.4,19.4,0,0,0-1.305-1.8,5.148,5.148,0,0,0-2.439-1.205,13.812,13.812,0,0,0-8.873.772,7.965,7.965,0,0,1-3.577,1.134c-1.267-.076-2.439-.991-3.734-1.21-2.1-.357-4.1,1.181-5.134,3.005a7.348,7.348,0,0,0-.953,3.544v.21h0a5.182,5.182,0,0,0,1.362,3.62c.9.953,2.248,1.581,2.624,2.815.152.5.114,1.043.253,1.553a1.383,1.383,0,0,0,.057.186l-.067.091a15.717,15.717,0,0,0-3.334,9.688,16.079,16.079,0,0,0,11.3,15.241c0,.157,0,.314,0,.476a6.852,6.852,0,0,1-2.191,5.334L811.643,292.4s-8.611-1.024-11.717,11.559a21.462,21.462,0,0,0-.533,6.382,18.5,18.5,0,0,1-2.381,9.559c-3.529,6.916-2.724,22.79,4.5,24.362,6.816,1.486,9.483.867,9.764.8v.276c-.114,2.982-1.2,28.672-5.125,31.778-1.086.862-.886,1.429,0,1.834,0,0,0,.167-.024.476-.119,1.905-.724,9.049-3.334,13.107-3.053,4.715-2.734,31.911-2.734,31.911l-2.081,16.032s1.281,9.9,0,11.631c-1.148,1.538-2.672,38.17-2.991,46.114h-.133a3.868,3.868,0,0,0-3.086,1.905c-1.686,2.739-7.592,7.8-7.592,7.8-1.281,1.819-6.02,3.563-8.526,4.382a5.292,5.292,0,0,0-.953.419,5.082,5.082,0,0,0-2.153,2.267,2.433,2.433,0,0,0-.229,1.905c.638,1.567,13.96,2.672,17.332,1.1,2.648-1.234,13.146-2.858,17.5-3.5a3.591,3.591,0,0,0,3.115-3.115,2.052,2.052,0,0,0-.4-1.557h0c-.833-1.034-1.257-3.858-1.429-5.715a3.864,3.864,0,0,0,.981-.581,41.843,41.843,0,0,1,2.381-16.818c3.21-8.487,4.172-24.2,3.372-34.421,0,0,9.788-42.123,17.494-46.052h0c.119.152,3.858,4.949,4.334,19.8.476,15.089,5.935,24.991,5.935,24.991s-2.41,25.619,0,35.207l-3.148,15.122c-.233-.2-.381-.348-.381-.348s.1.419.224,1.091l-.067.324.138.029a29.766,29.766,0,0,1,.667,7.144c-.124,1.1-.433,2.61-.643,4.091-.333,2.329-.424,4.587.8,5.082,2.01.81,13.812,1.905,15.813-.686a3.71,3.71,0,0,0,.581-3.882,3.928,3.928,0,0,0-.581-.991s-3.134-5.12-2.248-8.73a2.657,2.657,0,0,0-.376-2.072,106.49,106.49,0,0,1,2.7-16.937c2.01-7.563,6.244-24.148,3.129-35.05h0q-.176-.643-.4-1.257a47.077,47.077,0,0,1-1.767-18.389,37.48,37.48,0,0,1,0-16.032c1.929-8.8,3.277-17.446,3.277-17.446s1.062-11.631.133-18.761a4.681,4.681,0,0,0-.062-.476l.5-.114s-2.729-12.1-3.691-19.8c-.229-1.819-.524-4.12-.848-6.578a16.787,16.787,0,0,0,2.615-.653c8.664-2.986,11.393-30.006,11.393-30.006v-8.573S873.608,299.161,863.5,293.345ZM798.931,502.073c-.267-.133-.424-.224-.424-.224h0Z" transform="translate(-419.265 -135.197)" fill="url(#linear-gradient-3)"/>
      <path id="Path_1744" data-name="Path 1744" d="M883.975,595.25c3.758,10.807-.629,28.349-2.667,36.2a109.423,109.423,0,0,0-2.662,17.232,36.291,36.291,0,0,1-13.784-.314l3.291-16.132c-2.353-9.554,0-35.088,0-35.088s-5.325-9.869-5.8-24.905c-.476-14.8-4.11-19.585-4.225-19.733h0c-7.516,3.915-17.07,45.9-17.07,45.9.781,10.178-.162,25.843-3.291,34.293a42.39,42.39,0,0,0-2.348,16.756,5.1,5.1,0,0,1-4.287.819c-4.472-.724-9.835-4.577-9.835-4.577s1.719-45.724,2.977-47.457,0-11.593,0-11.593l2.034-15.975s-.314-27.1,2.662-31.8c2.572-4.058,3.163-11.193,3.277-13.065v-.476l4.534-5.43s43.857-3.291,47.152,0c.8.8,1.305,2.643,1.6,4.953.9,7.106-.133,18.694-.133,18.694s-1.315,8.616-3.2,17.384a38.157,38.157,0,0,0,0,15.979A47.832,47.832,0,0,0,883.975,595.25Z" transform="translate(-444.973 -281.103)" fill="#65617d"/>
      <path id="Path_1745" data-name="Path 1745" d="M928.947,802.612c-1.958,2.586-13.469,1.491-15.432.686-1.2-.476-1.1-2.748-.781-5.068.2-1.472.5-2.977.629-4.072.31-2.82-.953-8.54-.953-8.54s2.581,2.743,3.205,0a2.987,2.987,0,0,1,2.239-2.124,5.849,5.849,0,0,1,4.068.253c2.034.886,5.425,2.767,4.82,5.311-.862,3.6,2.191,8.7,2.191,8.7a3.965,3.965,0,0,1,.572.981,3.758,3.758,0,0,1-.557,3.872Z" transform="translate(-492.688 -419.785)" fill="#a27772"/>
      <path id="Path_1746" data-name="Path 1746" d="M929.072,819.092c-1.958,2.586-13.469,1.491-15.432.686-1.2-.476-1.1-2.748-.781-5.068,1.238.581,3.334,1.062,6.844.738a19.293,19.293,0,0,1,2.462-.076,57.281,57.281,0,0,0,7.478-.152A3.758,3.758,0,0,1,929.072,819.092Z" transform="translate(-492.813 -436.264)" opacity="0.1"/>
      <path id="Path_1747" data-name="Path 1747" d="M851.866,632.5c.781,10.178-.162,25.843-3.291,34.293a42.389,42.389,0,0,0-2.348,16.756,5.1,5.1,0,0,1-4.287.819c.953-6.606,4.972-35.069,7.549-57.559a94.187,94.187,0,0,1,16.67-43.228l2.739,3.015C861.42,590.52,851.866,632.5,851.866,632.5Z" transform="translate(-455.782 -315.219)" opacity="0.1"/>
      <path id="Path_1748" data-name="Path 1748" d="M902.16,319.984l-1.905,9.4-9.369,15.741-11.55-4.934s-15.718-16.446-5.834-18.794a8.745,8.745,0,0,0,3.277-1.457,6.776,6.776,0,0,0,2.558-5.668,17.373,17.373,0,0,0-1.591-6.735l20.2-6.344a32.431,32.431,0,0,0-1.429,8.183c-.157,5.506,1.905,8.216,3.567,9.526A6.068,6.068,0,0,0,902.16,319.984Z" transform="translate(-470.603 -167.327)" fill="#fbbebe"/>
      <path id="Path_1749" data-name="Path 1749" d="M906.185,301.19a32.431,32.431,0,0,0-1.429,8.183,15.363,15.363,0,0,1-1.176,1.253,15.984,15.984,0,0,1-15.975,3.644A17.375,17.375,0,0,0,886,307.534Z" transform="translate(-478.857 -167.327)" opacity="0.1"/>
      <path id="Path_1750" data-name="Path 1750" d="M898.109,278.194a15.9,15.9,0,1,1-4.659-11.318A15.979,15.979,0,0,1,898.109,278.194Z" transform="translate(-468.462 -146.918)" fill="#fbbebe"/>
      <path id="Path_1751" data-name="Path 1751" d="M902.16,339.44l-1.905,9.4-9.369,15.741-11.55-4.934S863.619,343.2,873.5,340.85a8.745,8.745,0,0,0,3.277-1.457c-1.781,4.9,5.573,15.084,5.573,15.084.857,1.262,2.82.476,2.82.476,4.739-.719,13.46-14.346,14.884-16.613A6.068,6.068,0,0,0,902.16,339.44Z" transform="translate(-470.603 -186.783)" opacity="0.1"/>
      <path id="Path_1752" data-name="Path 1752" d="M897.636,524.854c-2.781.633-18.17,4.039-24,3.186-6.42-.953-18.9-1.562-18.9-1.562s-7.949.429-10.4-.691v-.476l4.534-5.43s43.857-3.291,47.152,0C896.841,520.706,897.341,522.544,897.636,524.854Z" transform="translate(-457.034 -281.093)" opacity="0.1"/>
      <path id="Path_1753" data-name="Path 1753" d="M856.8,355.11s-8.264-11.431-5.149-15.908l-13.96,5.715s-8.4-1.019-11.431,11.521a21.818,21.818,0,0,0-.519,6.363,18.825,18.825,0,0,1-2.3,9.526c-3.444,6.892-2.662,22.714,4.387,24.291s9.55.781,9.55.781-.953,28.663-5.011,31.954,10.383,2.505,10.383,2.505,12.483.629,18.909,1.567,24.434-3.291,24.434-3.291-2.662-12.06-3.605-19.733-3.139-24.019-3.139-24.019l15.975-21.643s2.82-13.079-7.049-18.875-13.579-7.216-13.579-7.216-9.916,16.146-15.084,16.927C859.617,355.577,857.655,356.368,856.8,355.11Z" transform="translate(-445.054 -186.946)" fill="#4d8af0"/>
      <path id="Path_1754" data-name="Path 1754" d="M854.253,382.74s-.152,5.172.786,7.206,4.387,13.336,4.387,13.336H851.59s4.229-4.544,3.92-6.739S854.253,382.74,854.253,382.74Z" transform="translate(-460.836 -210.036)" opacity="0.1"/>
      <path id="Path_1755" data-name="Path 1755" d="M878.412,440.492s-17.3-4.229-18.909-7.83S853.45,421,853.45,421l1.824-2.458,8.411,6.6s10,7.987,14.727,8.773S878.412,440.492,878.412,440.492Z" transform="translate(-461.81 -228.785)" fill="#fbbebe"/>
      <path id="Path_1756" data-name="Path 1756" d="M878.412,440.492s-17.3-4.229-18.909-7.83S853.45,421,853.45,421l1.824-2.458,8.411,6.6s10,7.987,14.727,8.773S878.412,440.492,878.412,440.492Z" transform="translate(-461.81 -228.785)" opacity="0.05"/>
      <path id="Path_1757" data-name="Path 1757" d="M902.9,421.765v9.383h-1.505a43.86,43.86,0,0,0-21.307,5.52l-2.821,1.563-.757.424L871.65,427.7l4.544-4.072h.233c1.11.109,5.915.51,7.954-.176,1.934-.657,4.334-2.739,10.031-1.286,2.805.719,5.206,3.863,7.925,2.882Z" transform="translate(-471.342 -230.42)" fill="#fbbebe"/>
      <path id="Path_1758" data-name="Path 1758" d="M931.5,374.293l3.129,3.525v8.54s-2.663,26.939-11.117,29.916-23.557-1.724-23.557-1.724-3.9-10.335-2.077-10.955,16.122-4.4,16.122-4.4-.2-15.8,2.929-20.5c0,0-2.034-14.722,5.015-15.036S931.5,374.293,931.5,374.293Z" transform="translate(-484.822 -200.036)" opacity="0.1"/>
      <path id="Path_1759" data-name="Path 1759" d="M932.5,374.293l3.134,3.525v8.54s-2.662,26.939-11.121,29.916-23.557-1.724-23.557-1.724-3.9-10.335-2.072-10.955,16.122-4.4,16.122-4.4-.2-15.8,2.929-20.5c0,0-2.039-14.722,5.011-15.036S932.5,374.293,932.5,374.293Z" transform="translate(-485.349 -200.036)" fill="#4d8af0"/>
      <path id="Path_1760" data-name="Path 1760" d="M897.32,284.914a6.3,6.3,0,0,0-.357-3.053,2.324,2.324,0,0,0-2.486-1.429c-1.338.314-1.905,2.058-3.229,2.477a2.581,2.581,0,0,1-2.858-1.467,7.306,7.306,0,0,1-.543-3.41v-3.925a6.5,6.5,0,0,0-.924-4.082c-1.091-1.391-3.658-2-5.373-1.943a4.558,4.558,0,0,0-3.067,1.234,3.948,3.948,0,0,1-3.224,1.148,2.777,2.777,0,0,1-2.248-1.943v-.048a15.975,15.975,0,1,1,23.748,21.2,43.065,43.065,0,0,0,.562-4.763Z" transform="translate(-472.054 -146.855)" opacity="0.1"/>
      <path id="Path_1761" data-name="Path 1761" d="M870.7,259.344a2.8,2.8,0,0,1-2.253-1.948c-.129-.5-.1-1.043-.243-1.543-.367-1.234-1.681-1.872-2.562-2.81-1.762-1.872-1.648-4.949-.4-7.2,1.01-1.815,2.962-3.334,5.01-2.991,1.267.219,2.381,1.119,3.648,1.205a7.361,7.361,0,0,0,3.491-1.129,13.155,13.155,0,0,1,8.678-.772,5,5,0,0,1,2.381,1.205,20.836,20.836,0,0,1,1.272,1.786c1.457,1.858,4.072,2.224,6.4,2.643s4.963,1.343,5.716,3.582c.51,1.486,0,3.1-.276,4.639a1.4,1.4,0,0,0,.062.953c.367.6,1.276.348,1.962.476,1.319.281,1.658,1.981,1.71,3.334q.081,2.315.124,4.634a5.9,5.9,0,0,1-.138,1.715,6.052,6.052,0,0,1-1.329,2.158l-5.172,6.216c-2.3,2.753-4.729,5.963-4.287,9.526a2.219,2.219,0,0,1-2.734-1.591,7.115,7.115,0,0,1,.171-3.529,43.269,43.269,0,0,0,.829-6.12,6.278,6.278,0,0,0-.357-3.048,2.324,2.324,0,0,0-2.486-1.429c-1.343.314-1.905,2.058-3.229,2.477a2.581,2.581,0,0,1-2.858-1.467,7.287,7.287,0,0,1-.543-3.405v-3.929a6.5,6.5,0,0,0-.924-4.082c-1.091-1.391-3.658-2-5.373-1.943a4.558,4.558,0,0,0-3.063,1.234A3.955,3.955,0,0,1,870.7,259.344Z" transform="translate(-467.5 -136.198)" fill="#7c5c5c"/>
      <path id="Path_1762" data-name="Path 1762" d="M885.3,381.92l4.906,20.152S894.073,402.048,885.3,381.92Z" transform="translate(-478.491 -209.607)" opacity="0.1"/>
      <path id="Path_1763" data-name="Path 1763" d="M915.547,374.85s-6.42,10.516-3.915,21.395l1.2.086S910.694,391.3,915.547,374.85Z" transform="translate(-491.977 -205.904)" opacity="0.1"/>
      <path id="Path_1764" data-name="Path 1764" d="M929,499.2s7.887-2.61,8.459,3.444C937.478,502.648,935.992,498.5,929,499.2Z" transform="translate(-501.377 -270.737)" opacity="0.1"/>
      <path id="Path_1765" data-name="Path 1765" d="M866.364,426.81s-1.567,10.955,1.253,15.351a34.353,34.353,0,0,1-13.784,1.881l-.953-17.232Z" transform="translate(-461.512 -233.116)" opacity="0.1"/>
      <path id="Path_1766" data-name="Path 1766" d="M877.265,440.393l-.757.424-4.858-10.955,4.544-4.072h.233C876.356,426.333,875.089,435.749,877.265,440.393Z" transform="translate(-471.342 -232.582)" opacity="0.1"/>
      <path id="Path_1767" data-name="Path 1767" d="M861.383,425.83s-1.567,10.955,1.253,15.346a34.251,34.251,0,0,1-13.784,1.881L843.37,425.83Z" transform="translate(-456.531 -232.603)" fill="#4d8af0"/>
      <path id="Path_1768" data-name="Path 1768" d="M811.91,795.5a3.548,3.548,0,0,1-3.044,3.105c-4.253.633-14.5,2.253-17.084,3.486-3.291,1.567-16.289.476-16.918-1.1a2.486,2.486,0,0,1,.224-1.905,5.019,5.019,0,0,1,2.1-2.257,5.564,5.564,0,0,1,.953-.419c2.448-.814,7.073-2.548,8.321-4.367,0,0,5.768-5.044,7.411-7.768a3.763,3.763,0,0,1,3.01-1.877c1.372-.062,2.9.629,3.529,3.634,0,0,7.511,4.287,9.526.529,0,0,.314,5.773,1.562,7.354h0a2.1,2.1,0,0,1,.41,1.581Z" transform="translate(-420.604 -419.344)" fill="#a27772"/>
      <path id="Path_1769" data-name="Path 1769" d="M811.91,808.171a3.548,3.548,0,0,1-3.044,3.105c-4.253.633-14.5,2.253-17.084,3.487-3.291,1.567-16.289.476-16.918-1.1a2.486,2.486,0,0,1,.224-1.905,5.02,5.02,0,0,1,2.1-2.258c2.12,1.429,6.825,2.782,17.175,1.167,9.873-1.543,14.765-3.053,17.146-4.082h0a2.1,2.1,0,0,1,.4,1.581Z" transform="translate(-420.604 -432.012)" opacity="0.1"/>
      <g id="Group_25" data-name="Group 25" transform="translate(396.8 112.958)" opacity="0.1">
        <path id="Path_1770" data-name="Path 1770" d="M942.432,268.154v-.076a14.026,14.026,0,0,0,.476-3.558,23.484,23.484,0,0,1-.476,2.858A1.731,1.731,0,0,0,942.432,268.154Z" transform="translate(-905.188 -261.081)"/>
        <path id="Path_1771" data-name="Path 1771" d="M892.388,279.033a4.529,4.529,0,0,1,.386,1.791,5.4,5.4,0,0,0-.386-2.5,2.315,2.315,0,0,0-2.481-1.429c-1.343.314-1.905,2.058-3.234,2.477a2.586,2.586,0,0,1-2.858-1.467,7.247,7.247,0,0,1-.543-3.41v-3.925a6.5,6.5,0,0,0-.924-4.082c-1.1-1.4-3.658-2-5.372-1.948a4.563,4.563,0,0,0-3.067,1.238,3.957,3.957,0,0,1-3.229,1.148,2.791,2.791,0,0,1-2.248-1.943c-.129-.5-.1-1.048-.243-1.548-.367-1.229-1.681-1.872-2.562-2.805a5.129,5.129,0,0,1-1.319-3.334,5.339,5.339,0,0,0,1.319,4.015c.881.953,2.2,1.577,2.562,2.805.148.476.114,1.043.243,1.548a2.791,2.791,0,0,0,2.248,1.943,3.957,3.957,0,0,0,3.229-1.148,4.563,4.563,0,0,1,3.067-1.238c1.715-.052,4.287.552,5.372,1.948a6.534,6.534,0,0,1,.924,4.082v3.925a7.208,7.208,0,0,0,.543,3.405,2.593,2.593,0,0,0,2.858,1.472c1.315-.419,1.905-2.162,3.234-2.477A2.406,2.406,0,0,1,892.388,279.033Z" transform="translate(-864.285 -257.3)"/>
        <path id="Path_1772" data-name="Path 1772" d="M938.441,292.764a6.021,6.021,0,0,1-1.334,2.153l-5.172,6.216c-2.177,2.615-4.477,5.644-4.287,8.983.157-3.062,2.291-5.849,4.287-8.278l5.172-6.216a6.02,6.02,0,0,0,1.334-2.153,5.945,5.945,0,0,0,.138-1.719A4.524,4.524,0,0,1,938.441,292.764Z" transform="translate(-897.463 -275.342)"/>
        <path id="Path_1773" data-name="Path 1773" d="M921.811,327.188a3.662,3.662,0,0,1-.157-.838,4.224,4.224,0,0,0,.157,1.543c.352,1.134,1.643,2.072,2.734,1.586a6.682,6.682,0,0,1-.057-.686A2.214,2.214,0,0,1,921.811,327.188Z" transform="translate(-894.322 -293.462)"/>
      </g>
      <path id="Path_1774" data-name="Path 1774" d="M812.69,789.36s1.638,2.858,7.573.343" transform="translate(-440.464 -422.988)" opacity="0.1"/>
      <path id="Path_1775" data-name="Path 1775" d="M918,790.82s5.115,6.025,11.564,1.977" transform="translate(-495.616 -423.753)" opacity="0.1"/>
      <path id="Path_1776" data-name="Path 1776" d="M945.154,641.23s-3.615,2.258-3.729,3.548,1.867-.953,1.867-.953Z" transform="translate(-507.881 -345.411)" opacity="0.1"/>
      <path id="Path_1777" data-name="Path 1777" d="M945.124,677.59a7.558,7.558,0,0,1-4.453,1.738c-2.705.119-2.477,3.644-.71,2.586A44.323,44.323,0,0,0,945.124,677.59Z" transform="translate(-506.422 -364.453)" opacity="0.1"/>
      <path id="Path_1778" data-name="Path 1778" d="M950.244,682.34s-1.734,8.521-3.143,6.878" transform="translate(-510.856 -366.94)" opacity="0.1"/>
      <path id="Path_1779" data-name="Path 1779" d="M244.743,509.25s10.883,2.986,16.122-.986,7.511-2.7,7.511-2.7,12.493-.691,13.522-3.644-4.791-13.679-4.791-13.679c-.414-.953-1.019-2.162-1.291-2.162l.057-4.525h0l1.81-18.932c4.177-10.712.076-24.553.076-24.553l-.748-3.434a8.687,8.687,0,0,1,.71-5.715l7.587-15.241a22.811,22.811,0,0,1,1.429-2.924c.476-.872,1.11-1.948,1.905-3.239.233-.372.476-.757.743-1.162.919-1.429,2.034-3.048,3.382-4.915,3.358-4.653,5.125-10.478,6.039-14.765l.4,1.343h.09l.11.024h.181l.2.033h.071l2.334,29.7c.143,11.583,4.4,17.994,4.4,17.994L306,461.345c.8,6.158-.953,14.37-1.758,17.646l-1.838,4.148a4.987,4.987,0,0,0-2.71,3.772c-.362,3.063-3.586,9.664-3.586,9.664-1.248,1.581-3.958,5.854-3.958,5.854s-1.276,4.125-.486,5.668,7.4,1.386,7.4,1.386c7.549,1.672,13.336-2.381,12.969-5.172s1.176-3.5,1.176-3.5c3-.953,2.71-2.986,2.71-2.986a18.689,18.689,0,0,0-2.272-12.164l-.476,1.1a16.751,16.751,0,0,1,.9-6.492l-.276.19-.086.052h-.029c.476-4.177,4.863-11.907,4.863-11.907,8.059-14.136,5.13-33.292,5.13-33.292l-1.248-5.973-.071-2.253a75.19,75.19,0,0,1,1.215-16.051c.433-2.343.881-5.172,1.224-8.292a73.291,73.291,0,0,1,4.134-16.275l.319-.057h.038c.438-.076.881-.152,1.329-.238h.086s.257-1.391.476-3.758c.129-1.51.233-3.425.233-5.625a63.283,63.283,0,0,0-3.005-19.58l.243-.348s.576-.781,1.629-2.134h0c1.934-2.458,4.944-6.192,8.654-10.4,6.644-7.578,4.691-15.241,4.691-15.241s-4.811-17.627-6.954-28.211a32.08,32.08,0,0,0-5.277-12.55,24.976,24.976,0,0,0,.667-5.087c.143-3.134.033-6.4-1.376-9.216s-4.41-5.039-7.544-4.663a2.886,2.886,0,0,1-1.353,0,2.057,2.057,0,0,1-.891-.776c-1.834-2.529-1.953-5.93-1.381-9s1.743-6,2.267-9.078.286-6.492-1.672-8.93c-2.3-2.858-6.311-3.663-9.3-5.811-2.1-1.51-3.677-3.677-5.892-5.015s-4.287-.829-6.692-.324c-4.044.853-7.887,1.243-11.712,2.982a31.192,31.192,0,0,0-10.207,7.425,9.689,9.689,0,0,0-2.277,3.591c-.953,3.148.91,6.5.519,9.759-.276,2.31-1.638,4.32-2.72,6.382s-1.905,4.51-1.057,6.668c1.334,3.372,5.682,4.087,8.845,5.882a2.7,2.7,0,0,1,1.048.91c.781,1.362-.814,2.777-1.819,3.987a6.006,6.006,0,0,0-1.191,2.42,8.63,8.63,0,0,0-5.177,6.249c-1.072,4.8.576,10.85,2.029,14.851-1.586,8.911.476,12.426,2,13.774a7.644,7.644,0,0,1,2.648,5.211v.167c.1,1.619.271,3.234.5,4.844h0c-.052-.376-.1-.776-.133-.953-1.243,2.3-3.61,8.178-4.944,18.066a54.3,54.3,0,0,1-1.205,6.292,34.408,34.408,0,0,0-1.01,11.25l.238,3.205a1.01,1.01,0,0,1-.648-.214l1.672,3.063V371.4a19.053,19.053,0,0,1-1.267,6.816c-.119.314-.248.629-.386.953a5.545,5.545,0,0,0-.562,2.805c-3.6,5.511-11.84,36.393-11.84,36.393-4.472,10.126.367,16.67.367,16.67s2.343,28.191,2.782,29.649,1.41,18.642,1.41,18.642h0V484.7a3.2,3.2,0,0,0-.814-.233c-3.92-.219-4.982,5.973-4.982,5.973l-8.021,7.659s-3.663-.619-9.049,3.425S244.743,509.25,244.743,509.25ZM324.83,346.316l-.024-.086-.219.129h0l-.09.052-.043.029h0l-3.7-13.046a21.661,21.661,0,0,1-.271-10.731l2.858-12.517h0v-3.01l9.083,24.2C333.008,334.6,327.612,342.506,324.83,346.316Z" transform="translate(-140.29 -129.989)" fill="url(#linear-gradient-4)"/>
      <path id="Path_1780" data-name="Path 1780" d="M394.87,557a75.01,75.01,0,0,0-4.6,17.48c-.338,3.086-.776,5.877-1.205,8.192a74.864,74.864,0,0,0-1.172,15.846l.071,2.224,1.191,5.892s2.858,18.923-5.034,32.864c0,0-4.677,8.349-4.82,12.3l-3.167,1.224-6.4-1.8s3.091-11.083,2.086-18.851l.576-25.243s-4.158-6.316-4.3-17.747l-2.443-31.368Z" transform="translate(-206.343 -301.298)" fill="#fdc2cc"/>
      <path id="Path_1781" data-name="Path 1781" d="M320.245,547.62s-.786,12.231-6.835,20.661-7.335,12.088-7.335,12.088l-7.449,15.06a8.625,8.625,0,0,0-.7,5.635l.733,3.391s4.029,13.669-.071,24.248l-1.943,20.433H285.281s-.953-16.98-1.367-18.418-2.734-29.282-2.734-29.282-4.763-6.477-.362-16.475c0,0,9.931-37.412,12.588-36.765S320.245,547.62,320.245,547.62Z" transform="translate(-160.938 -296.386)" fill="#fdc2cc"/>
      <g id="Group_26" data-name="Group 26" transform="translate(134.554 251.234)" opacity="0.1">
        <path id="Path_1782" data-name="Path 1782" d="M315.695,604.479l-.729-3.391a8.573,8.573,0,0,1,.7-5.658l7.449-15.075s1.291-3.667,7.335-12.088c5.806-8.1,6.763-19.7,6.83-20.59l1.157-.057s-.786,12.231-6.835,20.661-7.335,12.088-7.335,12.088l-7.449,15.06a8.625,8.625,0,0,0-.7,5.635l.733,3.391s4.029,13.669-.071,24.248l-1.943,20.433H313.68l1.943-20.433C319.724,618.125,315.695,604.479,315.695,604.479Z" transform="translate(-313.68 -547.62)"/>
      </g>
      <path id="Path_1783" data-name="Path 1783" d="M388.961,651.815c.143-3.953,4.82-12.3,4.82-12.3,7.916-13.955,5.034-32.864,5.034-32.864l-1.219-5.9-.071-2.224a74.862,74.862,0,0,1,1.172-15.846c.424-2.315.862-5.106,1.2-8.192a75,75,0,0,1,4.587-17.442l1.181-.048a75.011,75.011,0,0,0-4.6,17.48c-.338,3.086-.776,5.877-1.205,8.192a74.864,74.864,0,0,0-1.172,15.846l.071,2.224,1.191,5.892s2.858,18.923-5.034,32.864c0,0-4.677,8.349-4.82,12.3l-3.167,1.224-.667-.186Z" transform="translate(-217.137 -301.298)" opacity="0.1"/>
      <path id="Path_1784" data-name="Path 1784" d="M376.228,753.733a5.506,5.506,0,0,0,5.239-.648,16.908,16.908,0,0,0-.429,9.5c1.3,5.182-12.088-4.172-12.088-4.172l2.858-6.53S372.918,753.947,376.228,753.733Z" transform="translate(-208.072 -403.359)" fill="#d39999"/>
      <path id="Path_1785" data-name="Path 1785" d="M377.234,754.008a5.348,5.348,0,0,0,4.253-.953,16.908,16.908,0,0,0-.429,9.5c1.3,5.182-12.088-4.172-12.088-4.172l2.858-6.53a4.083,4.083,0,0,0,3.263,1.839C375.829,753.774,376.533,753.874,377.234,754.008Z" transform="translate(-208.082 -403.344)" opacity="0.1"/>
      <path id="Path_1786" data-name="Path 1786" d="M289.32,445.788h5.592V414.063l-4.2-.753Z" transform="translate(-151.527 -216.454)" fill="#fdc2cc"/>
      <path id="Path_1787" data-name="Path 1787" d="M289.32,445.788h5.592V414.063l-4.2-.753Z" transform="translate(-151.527 -216.454)" opacity="0.05"/>
      <path id="Path_1788" data-name="Path 1788" d="M362.331,760.284a5.575,5.575,0,0,1,5.106,2.948l1.943,1.51.953-2.229a18.575,18.575,0,0,1,2.2,12.017s.286,2.01-2.662,2.948c0,0-1.51.719-1.153,3.453s-5.32,6.763-12.731,5.106c0,0-6.478.148-7.268-1.367s.5-5.539.5-5.539,2.662-4.22,3.882-5.777c0,0,3.167-6.525,3.529-9.526S360.459,758.627,362.331,760.284Z" transform="translate(-197.342 -407.463)" fill="#7e5659"/>
      <path id="Path_1789" data-name="Path 1789" d="M303.154,761.315l.057-4.472s-6.435,1.853-11.645-.243c0,0,.438,4.5-.286,5.111s2.41,6.4,2.41,6.4l3.5,3.667,6.02-2.191,1.634-5.144S303.583,761.315,303.154,761.315Z" transform="translate(-167.338 -405.831)" fill="#d39999"/>
      <path id="Path_1790" data-name="Path 1790" d="M303.154,761.315l.057-4.472s-6.435,1.853-11.645-.243c0,0,.438,4.5-.286,5.111s2.41,6.4,2.41,6.4l3.5,3.667,6.02-2.191,1.634-5.144S303.583,761.315,303.154,761.315Z" transform="translate(-167.338 -405.831)" opacity="0.1"/>
      <path id="Path_1791" data-name="Path 1791" d="M264.886,763.094s3.42.4,2.986,4.763.181,0,.181,0,3.634,1.472,4.93,3.525,3.634-1.834,3.81-2.948,1.634-1.577,1.634-1.577,5.715,10.6,4.706,13.512-13.279,3.586-13.279,3.586-2.234-1.257-7.378,2.662-15.827.953-15.827.953-8.707-3.634-3.415-7.621,8.883-3.382,8.883-3.382l7.878-7.592S261.038,762.875,264.886,763.094Z" transform="translate(-141.339 -409.229)" fill="#7e5659"/>
      <path id="Path_1792" data-name="Path 1792" d="M339.084,236.149c2.177,1.319,3.725,3.463,5.787,4.953,2.934,2.119,6.873,2.91,9.13,5.739,1.905,2.41,2.153,5.777,1.638,8.816s-1.667,5.939-2.224,8.968-.443,6.387,1.357,8.883a2.015,2.015,0,0,0,.872.767,2.858,2.858,0,0,0,1.329,0c3.077-.371,6.03,1.829,7.411,4.606s1.491,6.006,1.348,9.1a18.811,18.811,0,0,1-1.519,7.416c-1.905,3.887-5.868,6.287-9.778,8.125a75.726,75.726,0,0,1-7.806,3.153,11.748,11.748,0,0,1-5.658.853c-3.253-.562-5.558-3.52-8.645-4.677-2.529-.953-5.334-.61-8.025-.371-2.3.2-4.92.2-6.5-1.481-2.029-2.153-1.115-5.625-.076-8.4a5.977,5.977,0,0,1-4.229-9.773c.981-1.2,2.548-2.591,1.781-3.939a2.61,2.61,0,0,0-1.029-.9c-3.1-1.772-7.373-2.481-8.678-5.806-.838-2.139-.029-4.558,1.034-6.592s2.381-4.025,2.672-6.3c.381-3.22-1.429-6.53-.51-9.635A9.659,9.659,0,0,1,311,246.108a30.654,30.654,0,0,1,10-7.33c3.758-1.719,7.525-2.105,11.5-2.943C334.879,235.329,336.85,234.8,339.084,236.149Z" transform="translate(-174.696 -132.816)" fill="#865a61"/>
      <path id="Path_1793" data-name="Path 1793" d="M319.926,337.754s-9.111-.476-10.836,7.292,3.739,18.894,3.739,18.894Z" transform="translate(-176.546 -186.473)" fill="#fdc2cc"/>
      <path id="Path_1794" data-name="Path 1794" d="M319.926,337.754s-9.111-.476-10.836,7.292,3.739,18.894,3.739,18.894Z" transform="translate(-176.546 -186.473)" opacity="0.05"/>
      <path id="Path_1795" data-name="Path 1795" d="M320,340.164l3.453,2.734,16.113.719,10.059-6.906,10.231-17.556a12.648,12.648,0,0,1-9.726-9.954,21.8,21.8,0,0,1-.2-8.316s-16.4-8.492-14.389,4.763a18,18,0,0,1,.152,4.925c-.953,7.764-8.487,6.3-8.487,6.3l-2.891,4.458L321,332.286Z" transform="translate(-182.436 -165.764)" fill="#fdc2cc"/>
      <path id="Path_1796" data-name="Path 1796" d="M352.471,305.624a18,18,0,0,1,.152,4.925A14.541,14.541,0,0,0,367.06,309.2a21.794,21.794,0,0,1-.2-8.316S350.457,292.388,352.471,305.624Z" transform="translate(-199.352 -165.761)" opacity="0.1"/>
      <circle id="Ellipse_38" data-name="Ellipse 38" cx="14.532" cy="14.532" r="14.532" transform="translate(144.785 116.464)" fill="#fdc2cc"/>
      <path id="Path_1797" data-name="Path 1797" d="M327.55,357.625c.352,0,.7.052,1.048.086,1.905.191,9.864.619,14.4-4.8,5.072-6.058,11.826-13.541,12.1-13.846l6.873,2.077s-5.439-1.934-9.049,8.183a10.478,10.478,0,0,0,3.539,12.055,10.889,10.889,0,0,0,4.5,1.905.024.024,0,0,1,0,.024v4.439h0l-2.81,12.383a21.465,21.465,0,0,0,.267,10.6l4.287,15.151c-.648.448-27.244,18.537-45.009,6.044h0c.067-.543,2.262-18.323.738-27.025a60.112,60.112,0,0,1-.8-6.725v-.167a7.582,7.582,0,0,0-2.605-5.144c-1.6-1.429-3.767-5.239-1.624-15.308a36.987,36.987,0,0,1,2.381-7.254l5.958-13.465h0l5.492.11v.038c-.476.591-6.844,8.545-7.535,13.669C319.024,355.53,318.19,357.025,327.55,357.625Z" transform="translate(-178.512 -185.998)" fill="#4d8af0"/>
      <path id="Path_1798" data-name="Path 1798" d="M396.752,348s5.373,4.606,7.482,15.06,6.811,27.82,6.811,27.82,1.905,7.578-4.606,15.06S395.6,419.28,395.6,419.28l-4.287,6.316a5.377,5.377,0,0,1-3.086,2.181,10.425,10.425,0,0,1-7.554-.538,4.4,4.4,0,0,1-1.905-5.558l.953-2.205s-8.826,5.563-9.592,2.491,10.264-6.139,10.264-6.139,9.111-1.534,10.955-5.849c0,0,9.783-12.569,9.016-16.884l-9.45-25.324s-11.817-1.562-7.787-14.836S396.752,348,396.752,348Z" transform="translate(-208.669 -190.488)" fill="#fdc2cc"/>
      <path id="Path_1799" data-name="Path 1799" d="M307.351,512.214s21.585,4.315,26.672,3.739l.548,1.824s8.192,1.834,26.715-1.1q1.815-.286,3.767-.643l.433-.076s.252-1.372.453-3.71a64.343,64.343,0,0,0-3.139-26.12l-3.115-9.592s-19.251,11.54-32,10.478c-1.138-.1-2.267-.186-3.405-.224-2.615-.1-6.668,0-9.3-2.11l-5.525.953v15.717a18.832,18.832,0,0,1-1.248,6.725c-.119.314-.243.624-.381.953A5,5,0,0,0,307.351,512.214Z" transform="translate(-175.769 -259.155)" fill="#65617d"/>
      <path id="Path_1800" data-name="Path 1800" d="M364.58,552.153v4.891s9.431,2.11,30.916-1.824c0,0,.252-1.372.452-3.71C389.356,552.567,371.177,555.111,364.58,552.153Z" transform="translate(-205.783 -298.423)" opacity="0.1"/>
      <path id="Path_1801" data-name="Path 1801" d="M307.354,546.915s21.585,4.315,26.672,3.739l.548,1.824v-4.891c-2.458,1.019-20-3.21-26.362-4.8-.119.314-.243.624-.381.953a5,5,0,0,0-.476,3.172Z" transform="translate(-175.772 -293.856)" opacity="0.1"/>
      <path id="Path_1802" data-name="Path 1802" d="M417.31,536.627l1.6,9.926q1.815-.286,3.767-.643c-.5-2.9-1.591-9.526-1.291-10.626l-2.015-1.724Z" transform="translate(-233.398 -289.023)" fill="#65617d"/>
      <path id="Path_1803" data-name="Path 1803" d="M417.78,536.177l1.6,9.931q1.815-.29,3.767-.643c-.5-2.9-1.591-9.526-1.291-10.626l-2.015-1.729Z" transform="translate(-233.645 -288.787)" opacity="0.1"/>
      <g id="Group_27" data-name="Group 27" transform="translate(138.283 217.361)" opacity="0.05">
        <path id="Path_1804" data-name="Path 1804" d="M333.989,495.954c-1.134-.1-2.267-.186-3.405-.224-2.543-.1-6.425,0-9.073-1.948l.924-.162c2.648,2.1,6.668,2.01,9.3,2.11,1.138.038,2.267.129,3.405.224.372.033.753.052,1.138.062a21.366,21.366,0,0,1-2.291-.062Z" transform="translate(-321.51 -485.466)"/>
        <path id="Path_1805" data-name="Path 1805" d="M398.155,516.656q1.815-.286,3.767-.638l.438-.081s.252-1.372.448-3.71a64.176,64.176,0,0,0-3.139-26.12l-2.934-9.049c.624-.352.953-.557.953-.557l3.115,9.592a64.343,64.343,0,0,1,3.139,26.12c-.2,2.339-.452,3.71-.452,3.71l-.433.081q-1.948.352-3.767.638a118.645,118.645,0,0,1-19.409,1.667A122.414,122.414,0,0,0,398.155,516.656Z" transform="translate(-352.079 -476.5)"/>
        <path id="Path_1806" data-name="Path 1806" d="M360.319,559.3v.052H359.7Q360.052,559.329,360.319,559.3Z" transform="translate(-341.511 -519.863)"/>
      </g>
      <ellipse id="Ellipse_39" data-name="Ellipse 39" cx="0.814" cy="1.677" rx="0.814" ry="1.677" transform="translate(185.779 246.105)" fill="#d39999"/>
      <path id="Path_1807" data-name="Path 1807" d="M311.307,449.477c1.315-9.764,3.634-15.565,4.858-17.837.048.31.171,1.315.229,1.624a47.157,47.157,0,0,1,.1,5.044l-1.219,22.081,1.634,6.906c1.534,5.468-4.148,1.148-4.148,1.148a3.382,3.382,0,0,1-3.334,2.305l-.3-3.963a34.228,34.228,0,0,1,.991-11.112,52.951,52.951,0,0,0,1.181-6.2Z" transform="translate(-176.696 -235.646)" fill="#fdc2cc"/>
      <path id="Path_1808" data-name="Path 1808" d="M311.307,449.477c1.315-9.764,3.634-15.565,4.858-17.837.048.31.171,1.315.229,1.624a47.157,47.157,0,0,1,.1,5.044l-1.219,22.081,1.634,6.906c1.534,5.468-4.148,1.148-4.148,1.148a3.382,3.382,0,0,1-3.334,2.305l-.3-3.963a34.228,34.228,0,0,1,.991-11.112,52.951,52.951,0,0,0,1.181-6.2Z" transform="translate(-176.696 -235.646)" opacity="0.05"/>
      <path id="Path_1809" data-name="Path 1809" d="M398.77,483.343c-1.034,1.338-1.6,2.105-1.6,2.105l-4.287,6.311a5.353,5.353,0,0,1-3.086,2.181,10.4,10.4,0,0,1-7.554-.538,4.391,4.391,0,0,1-1.905-5.554l.953-2.21s-8.826,5.563-9.592,2.5,10.264-6.139,10.264-6.139,9.111-1.534,10.955-5.854c0,0,.8-1.019,1.905-2.581" transform="translate(-209.491 -257.6)" fill="#fdc2cc"/>
      <path id="Path_1810" data-name="Path 1810" d="M400.535,508.632s-10.435-1.015-13.741-6.982l-1.515,4.93s10.955,7.563,13.455,6.582Z" transform="translate(-216.624 -272.311)" fill="#65617d"/>
      <path id="Path_1811" data-name="Path 1811" d="M399.761,508.527s-10.431-1.014-13.741-6.987l-1.51,4.915s10.955,7.563,13.45,6.582Z" transform="translate(-216.221 -272.253)" opacity="0.1"/>
      <path id="Path_1812" data-name="Path 1812" d="M312.772,510.46s-3.653,1.3-4.372.576l1.643,3.024,3.105-2.381Z" transform="translate(-176.361 -276.925)" fill="#65617d"/>
      <path id="Path_1813" data-name="Path 1813" d="M312.772,510.46s-3.653,1.3-4.372.576l1.643,3.024,3.105-2.381Z" transform="translate(-176.361 -276.925)" opacity="0.1"/>
      <path id="Path_1814" data-name="Path 1814" d="M331.77,525.781V519.47l-1.5,6.463Z" transform="translate(-172.973 -272.051)" opacity="0.1"/>
      <path id="Path_1815" data-name="Path 1815" d="M359.4,264.033a5.6,5.6,0,0,1-3.915,2.062,30.851,30.851,0,0,1-4.549,0,11.408,11.408,0,0,0-6.863,1.729,17.449,17.449,0,0,0-3.148,3.334c-2.943,3.6-7.03,6.963-11.669,6.587a3.025,3.025,0,0,1-2.167-.915,3.477,3.477,0,0,1-.552-1.972,45.077,45.077,0,0,1,.281-8.887,18.737,18.737,0,0,1,1.343-5.3,18.1,18.1,0,0,1,3.229-4.61,19.751,19.751,0,0,1,5.634-4.515,10.107,10.107,0,0,1,7.049-.91c2.777.757,4.939,2.929,7.587,4.048C354.687,255.955,362.717,259.351,359.4,264.033Z" transform="translate(-185.807 -140.711)" opacity="0.1"/>
      <path id="Path_1816" data-name="Path 1816" d="M359.4,262.818a5.605,5.605,0,0,1-3.915,2.062,30.854,30.854,0,0,1-4.549,0,11.371,11.371,0,0,0-6.863,1.724,17.45,17.45,0,0,0-3.148,3.334c-2.943,3.6-7.03,6.963-11.669,6.587a3.005,3.005,0,0,1-2.167-.914,3.463,3.463,0,0,1-.553-1.972,45.077,45.077,0,0,1,.281-8.888,18.738,18.738,0,0,1,1.343-5.3,17.974,17.974,0,0,1,3.229-4.606,19.684,19.684,0,0,1,5.634-4.52,10.107,10.107,0,0,1,7.049-.91c2.777.757,4.939,2.929,7.587,4.048C354.687,254.74,362.717,258.126,359.4,262.818Z" transform="translate(-185.807 -140.072)" fill="#865a61"/>
      <path id="Path_1817" data-name="Path 1817" d="M291.829,473.47l-.038,1.738-.391-1.662Z" transform="translate(-152.617 -247.96)" fill="#fdc2cc"/>
      <path id="Path_1818" data-name="Path 1818" d="M291.829,473.47l-.038,1.738-.391-1.662Z" transform="translate(-152.617 -247.96)" opacity="0.05"/>
      <g id="Group_28" data-name="Group 28" transform="translate(173.373 155.334)" opacity="0.05">
        <path id="Path_1819" data-name="Path 1819" d="M397.754,352.471c-4.034,13.274,7.725,14.832,7.725,14.832l9.45,25.324c.767,4.315-9.021,16.884-9.021,16.884-.681,1.61-2.381,2.834-4.239,3.739a6.64,6.64,0,0,0,2.515-2.762s9.783-12.564,9.016-16.88l-9.45-25.329s-11.755-1.557-7.725-14.832c1.348-4.434,3.334-6.454,5.344-7.178C399.983,347.385,398.711,349.313,397.754,352.471Z" transform="translate(-395.184 -346.27)"/>
      </g>
      <g id="Group_29" data-name="Group 29" transform="translate(134.029 150.837)" opacity="0.1">
        <path id="Path_1820" data-name="Path 1820" d="M401,384.61a9.925,9.925,0,0,0,1.905,1.805,10.826,10.826,0,0,0,4.5,1.905v.5a10.794,10.794,0,0,1-4.077-1.805A9.884,9.884,0,0,1,401,384.61Z" transform="translate(-358.885 -361.853)"/>
        <path id="Path_1821" data-name="Path 1821" d="M322.41,419.887v.167a61.524,61.524,0,0,0,.819,6.749c1.429,8.211-.443,24.514-.71,26.767-.152-.1-.3-.2-.476-.3.071-.543,2.267-18.323.743-27.02a60.359,60.359,0,0,1-.8-6.725v-.167a7.349,7.349,0,0,0-1.281-3.644,7.406,7.406,0,0,1,1.7,4.177Z" transform="translate(-316.837 -378.14)"/>
        <path id="Path_1822" data-name="Path 1822" d="M326.92,337.483l-4.658-.091a.024.024,0,0,0-.024,0l-5.954,13.46a37.109,37.109,0,0,0-2.381,7.254c-1.734,8.144-.643,12.2.681,14.208-1.491-1.758-3.029-5.763-1.11-14.765a36.715,36.715,0,0,1,2.358-7.259l6-13.46h0l5.492.11v.033C327.277,337.03,327.129,337.211,326.92,337.483Z" transform="translate(-312.577 -336.83)"/>
        <path id="Path_1823" data-name="Path 1823" d="M416.39,345.87l.081.024Z" transform="translate(-366.945 -341.564)"/>
        <path id="Path_1824" data-name="Path 1824" d="M368.625,343.531l-4.668-1.405h-.024c-.276.3-7.025,7.787-12.1,13.846-4.534,5.415-12.483,4.991-14.4,4.8-.348-.038-.7-.067-1.048-.091-5.206-.333-7.254-.953-7.94-2.267.976.953,3.124,1.429,7.506,1.7.352,0,.7.052,1.048.086,1.905.191,9.864.614,14.4-4.8,5.072-6.063,11.826-13.546,12.1-13.85h0l6.792,2.058a4.243,4.243,0,0,0-1.672-.076Z" transform="translate(-320.89 -339.302)"/>
      </g>
      <path id="Path_1825" data-name="Path 1825" d="M288.144,776.5s-6.573,1.8-7.844-1.024" transform="translate(-161.645 -415.719)" opacity="0.1"/>
      <path id="Path_1826" data-name="Path 1826" d="M374.063,773.616s-7.621,1.967-9.383-1.076" transform="translate(-205.835 -414.179)" opacity="0.1"/>
      <path id="Path_1827" data-name="Path 1827" d="M558.455,751.155c.11-.953.267-1.905.438-2.858a19.918,19.918,0,0,0-.953-9.659h0c-.176-.5-.3-.781-.3-.781-3.034-.829-14.994,8.449-19.352,11.945-1.51,0-3.148.067-4.939.186-.781.057-1.562.076-2.343.062h-2.858c-4.044-3.258-16.561-13.055-19.675-12.207,0,0-.129.281-.3.781h0a19.57,19.57,0,0,0-.976,9.659c.171.953.329,1.905.438,2.858.233,2.091,1.11,6.106,4.287,8.816.681,4.953,3.229,11.464,5.192,15.417a11.034,11.034,0,0,0,.667,2.177c-.81,3.125-1.743,7.2-1.477,8.573,0,0-4.229-1.024-4.658,4.067v.157c-1.529.7-3.439,2.305-1.291,5.668a2.205,2.205,0,0,0,1.1.9c.381.133.753.133.714-.4l2.643,2.977s4.791.552,4.849-2.229l.281.043c.643.1,1.315.176,2.005.248l.333,1.1s-3.6-.076-2.615,2.139c0,0,.9.838,1.214.534,0,0-.476,1.453,1.4,1.453,0,0,2.015,1.067,2.8.3s2.415-1.905,2.567-2.381c.043-.129.062-1.257.071-2.82h.31c4.015.1,8.278-.033,12.155-.243h.314c0,1.691.024,2.939.067,3.072.157.476,1.791,1.6,2.572,2.381s2.8-.3,2.8-.3c1.867,0,1.4-1.453,1.4-1.453.314.3,1.219-.533,1.219-.533.981-2.215-2.62-2.138-2.62-2.138l.429-1.429,1.986-.167.314-.029c-.191,3.024,4.844,2.443,4.844,2.443l2.648-2.977c-.043.533.329.533.71.4a2.186,2.186,0,0,0,1.072-.91c3.244-5.072-2.748-6.149-2.748-6.149a2.938,2.938,0,0,0-.567-.09.977.977,0,0,1,.024-.262h0a10.457,10.457,0,0,0,.038-2.01,4.422,4.422,0,0,0-3.567-2.6c-1.219-.152-1.243-5.754-1.119-9.635a11.09,11.09,0,0,0,.19-2.21,11.656,11.656,0,0,0-.476-3.539c2.381-4.039,4.287-8.273,4.5-9.526A13.858,13.858,0,0,0,558.455,751.155Z" transform="translate(-280.339 -395.981)" fill="url(#linear-gradient-5)"/>
      <path id="Path_1828" data-name="Path 1828" d="M559.784,827.685h0c-.191,2.639-.7,6.873-.7,6.873s-2.12.257-5.4.552l-2.224.191c-1.705.138-3.62.271-5.644.386-3.739.2-7.844.333-11.717.238-1.934-.043-3.81-.143-5.549-.314-.776-.076-1.529-.167-2.243-.271-4.439-.662-7.621-1.929-7.892-4.153a12.864,12.864,0,0,1-.1-2.858c.414-5,4.487-3.991,4.487-3.991-.262-1.381.724-5.673,1.524-8.778.5-1.958.953-3.443.953-3.443l28.634-1.905h.1a1.4,1.4,0,0,1,1.4,1.472c-.172,3.434-.414,11.3.991,11.474a4.317,4.317,0,0,1,3.444,2.548A10.694,10.694,0,0,1,559.784,827.685Z" transform="translate(-286.278 -433.908)" fill="#4d8af0"/>
      <path id="Path_1829" data-name="Path 1829" d="M530.528,753.412s-10.8,13-16,9.4c-.124-.086-.243-.172-.357-.262-3.5-2.648-4.415-6.916-4.658-9.083-.1-.953-.257-1.872-.424-2.8a19.447,19.447,0,0,1,.953-9.483h0c.171-.476.291-.767.291-.767C513.929,739.414,530.528,753.412,530.528,753.412Z" transform="translate(-281.341 -397.328)" fill="#4d8af0"/>
      <path id="Path_1830" data-name="Path 1830" d="M524.7,755.511s-3.4,2.381-8.2,6.3a17.319,17.319,0,0,1-2.382,1.638c-3.5-2.648-4.415-6.916-4.658-9.083-.1-.953-.257-1.872-.424-2.8a19.448,19.448,0,0,1,.953-9.483h0C516.718,742.547,524.7,755.511,524.7,755.511Z" transform="translate(-281.315 -398.227)" fill="#4d8af0"/>
      <path id="Path_1831" data-name="Path 1831" d="M524.7,755.511s-3.4,2.381-8.2,6.3a17.319,17.319,0,0,1-2.382,1.638c-3.5-2.648-4.415-6.916-4.658-9.083-.1-.953-.257-1.872-.424-2.8a19.448,19.448,0,0,1,.953-9.483h0C516.718,742.547,524.7,755.511,524.7,755.511Z" transform="translate(-281.315 -398.227)" fill="#fff" opacity="0.5"/>
      <path id="Path_1832" data-name="Path 1832" d="M525.118,759.708s-1.815,1.281-4.377,3.363a9.218,9.218,0,0,1-1.257.872A7.011,7.011,0,0,1,517,759.1c-.052-.5-.133-1-.224-1.5a10.413,10.413,0,0,1,.529-5.058h0C520.86,752.788,525.118,759.708,525.118,759.708Z" transform="translate(-285.434 -403.705)" opacity="0.1"/>
      <path id="Path_1833" data-name="Path 1833" d="M569.05,753.412s10.8,13,16,9.4c.119-.086.243-.172.357-.262,3.5-2.648,4.415-6.916,4.658-9.083.1-.953.257-1.872.419-2.8a19.39,19.39,0,0,0-.953-9.483h0c-.172-.476-.3-.767-.3-.767C585.649,739.414,569.05,753.412,569.05,753.412Z" transform="translate(-312.867 -397.328)" fill="#4d8af0"/>
      <path id="Path_1834" data-name="Path 1834" d="M581.22,755.511s3.405,2.381,8.2,6.3a17.312,17.312,0,0,0,2.358,1.638c3.5-2.648,4.415-6.916,4.658-9.083.1-.953.257-1.872.419-2.8a19.389,19.389,0,0,0-.953-9.483h0C589.212,742.547,581.22,755.511,581.22,755.511Z" transform="translate(-319.24 -398.227)" fill="#4d8af0"/>
      <path id="Path_1835" data-name="Path 1835" d="M581.22,755.511s3.405,2.381,8.2,6.3a17.312,17.312,0,0,0,2.358,1.638c3.5-2.648,4.415-6.916,4.658-9.083.1-.953.257-1.872.419-2.8a19.389,19.389,0,0,0-.953-9.483h0C589.212,742.547,581.22,755.511,581.22,755.511Z" transform="translate(-319.24 -398.227)" fill="#fff" opacity="0.5"/>
      <path id="Path_1836" data-name="Path 1836" d="M589.05,759.725s1.805,1.276,4.349,3.334a8.717,8.717,0,0,0,1.253.867,7.034,7.034,0,0,0,2.472-4.815c.052-.476.133-1,.224-1.491a10.43,10.43,0,0,0-.5-5.03h0C593.284,752.847,589.05,759.725,589.05,759.725Z" transform="translate(-323.341 -403.731)" opacity="0.1"/>
      <path id="Path_1837" data-name="Path 1837" d="M560.558,810.23a25.867,25.867,0,0,1-4.134,5.268c-4.287,3.81-22.8,2.3-24,2.1-.252-.043-.776-.791-1.429-2.005.5-1.957.953-3.443.953-3.443Z" transform="translate(-292.939 -433.918)" opacity="0.1"/>
      <path id="Path_1838" data-name="Path 1838" d="M539.4,765.264c-.753.052-1.505.071-2.262.057-3.863-.067-16.875.1-18.318,5.358-1.7,6.192,5.9,22.771,7.1,22.971s19.7,1.7,24-2.1,9.9-15.717,9.6-16.8C559.513,774.752,564.847,763.5,539.4,765.264Z" transform="translate(-286.43 -410.271)" fill="#4d8af0"/>
      <path id="Path_1839" data-name="Path 1839" d="M544.765,786.458a13.663,13.663,0,0,0-13.993,7.906,11.431,11.431,0,0,0,.843,11.521c1.486,2.091,3.667,3.648,6.7,2.382C545.06,805.491,544.765,786.458,544.765,786.458Z" transform="translate(-292.206 -421.425)" opacity="0.1"/>
      <path id="Path_1840" data-name="Path 1840" d="M544.135,785.2a13.663,13.663,0,0,0-13.993,7.906,11.431,11.431,0,0,0,.843,11.521c1.486,2.091,3.667,3.648,6.7,2.381C544.43,804.231,544.135,785.2,544.135,785.2Z" transform="translate(-291.876 -420.765)" opacity="0.1"/>
      <path id="Path_1841" data-name="Path 1841" d="M544.135,785.828a13.663,13.663,0,0,0-13.993,7.906,11.431,11.431,0,0,0,.843,11.521c1.486,2.091,3.667,3.648,6.7,2.381C544.43,804.861,544.135,785.828,544.135,785.828Z" transform="translate(-291.876 -421.095)" fill="#4d8af0"/>
      <path id="Path_1842" data-name="Path 1842" d="M544.135,785.828a13.663,13.663,0,0,0-13.993,7.906,11.431,11.431,0,0,0,.843,11.521c1.486,2.091,3.667,3.648,6.7,2.381C544.43,804.861,544.135,785.828,544.135,785.828Z" transform="translate(-291.876 -421.095)" fill="#fff" opacity="0.5"/>
      <path id="Path_1843" data-name="Path 1843" d="M538.234,803.13s-1.3,1.2-.8,1.5S538.234,803.13,538.234,803.13Z" transform="translate(-296.249 -430.2)" fill="#3f2b3b"/>
      <path id="Path_1844" data-name="Path 1844" d="M541.755,806.35s-.71,1.567-.2,1.738.8-1.124.8-1.124Z" transform="translate(-298.37 -431.886)" fill="#3f2b3b"/>
      <path id="Path_1845" data-name="Path 1845" d="M535.25,811.32s-.7,1.848,0,1.848S535.25,811.32,535.25,811.32Z" transform="translate(-295.003 -434.489)" fill="#3f2b3b"/>
      <path id="Path_1846" data-name="Path 1846" d="M533.78,821.71s1.391,3.553,5.011,3.3" transform="translate(-294.395 -439.93)" fill="none" stroke="#3f2b3b" stroke-miterlimit="10" stroke-width="1"/>
      <path id="Path_1847" data-name="Path 1847" d="M540.61,823.91a2.506,2.506,0,0,0,3,.4" transform="translate(-297.972 -441.082)" fill="none" stroke="#3f2b3b" stroke-miterlimit="10" stroke-width="1"/>
      <path id="Path_1848" data-name="Path 1848" d="M564,786.458a13.663,13.663,0,0,1,13.993,7.906,11.431,11.431,0,0,1-.843,11.521c-1.481,2.091-3.667,3.648-6.7,2.382C563.683,805.491,564,786.458,564,786.458Z" transform="translate(-310.219 -421.425)" opacity="0.1"/>
      <path id="Path_1849" data-name="Path 1849" d="M564.588,785.2a13.663,13.663,0,0,1,13.993,7.906,11.431,11.431,0,0,1-.843,11.521c-1.481,2.091-3.667,3.648-6.7,2.381C564.307,804.231,564.588,785.2,564.588,785.2Z" transform="translate(-310.529 -420.765)" opacity="0.1"/>
      <path id="Path_1850" data-name="Path 1850" d="M564.588,785.828a13.663,13.663,0,0,1,13.993,7.906,11.431,11.431,0,0,1-.843,11.521c-1.481,2.091-3.667,3.648-6.7,2.381C564.307,804.861,564.588,785.828,564.588,785.828Z" transform="translate(-310.529 -421.095)" fill="#4d8af0"/>
      <path id="Path_1851" data-name="Path 1851" d="M564.588,785.828a13.663,13.663,0,0,1,13.993,7.906,11.431,11.431,0,0,1-.843,11.521c-1.481,2.091-3.667,3.648-6.7,2.381C564.307,804.861,564.588,785.828,564.588,785.828Z" transform="translate(-310.529 -421.095)" fill="#fff" opacity="0.5"/>
      <path id="Path_1852" data-name="Path 1852" d="M586.16,803.13s1.3,1.2.8,1.5S586.16,803.13,586.16,803.13Z" transform="translate(-321.827 -430.2)" fill="#3f2b3b"/>
      <path id="Path_1853" data-name="Path 1853" d="M582.56,806.35s.71,1.567.2,1.738-.8-1.124-.8-1.124Z" transform="translate(-319.628 -431.886)" fill="#3f2b3b"/>
      <path id="Path_1854" data-name="Path 1854" d="M589.482,811.32s.691,1.848,0,1.848S589.482,811.32,589.482,811.32Z" transform="translate(-323.407 -434.489)" fill="#3f2b3b"/>
      <path id="Path_1855" data-name="Path 1855" d="M586.111,821.71s-1.391,3.553-5.011,3.3" transform="translate(-319.177 -439.93)" fill="none" stroke="#3f2b3b" stroke-miterlimit="10" stroke-width="1"/>
      <path id="Path_1856" data-name="Path 1856" d="M581.5,823.91a2.512,2.512,0,0,1-3,.4" transform="translate(-317.816 -441.082)" fill="none" stroke="#3f2b3b" stroke-miterlimit="10" stroke-width="1"/>
      <path id="Path_1857" data-name="Path 1857" d="M553.2,841.872a13.831,13.831,0,0,1,9.9,0Z" transform="translate(-304.566 -449.995)" fill="#3f2b3b"/>
      <path id="Path_1858" data-name="Path 1858" d="M526.311,854.5c-4.439-.662-7.621-1.929-7.892-4.153a12.864,12.864,0,0,1-.1-2.858,6.409,6.409,0,0,1,1.7-.619c.8-.224,1.8-.071,3.9.529s1.948,3.072,2.381,6.3A2.662,2.662,0,0,1,526.311,854.5Z" transform="translate(-286.278 -453.057)" opacity="0.1"/>
      <path id="Path_1859" data-name="Path 1859" d="M517.358,847.526s-5.773,1.057-2.648,6.039a2.128,2.128,0,0,0,1.067.881c.367.129.719.129.681-.4l2.553,2.924s5.1.6,4.649-2.624-.3-5.715-2.381-6.3S518.173,847.3,517.358,847.526Z" transform="translate(-283.923 -453.401)" fill="#4d8af0"/>
      <path id="Path_1860" data-name="Path 1860" d="M524.18,854.67s1.224,2.8,2.924.448" transform="translate(-289.368 -457.192)" fill="none" stroke="#3f2b3b" stroke-miterlimit="10" stroke-width="1"/>
      <path id="Path_1861" data-name="Path 1861" d="M518.28,857s.633,2.648,3.034.676" transform="translate(-286.278 -458.412)" fill="none" stroke="#3f2b3b" stroke-miterlimit="10" stroke-width="1"/>
      <path id="Path_1862" data-name="Path 1862" d="M598.7,846.847h0c-.19,2.639-.7,6.873-.7,6.873s-2.12.257-5.4.552a2.775,2.775,0,0,1,0-.552c.448-3.224.3-5.716,2.382-6.3A9.16,9.16,0,0,1,598.7,846.847Z" transform="translate(-325.195 -453.07)" opacity="0.1"/>
      <path id="Path_1863" data-name="Path 1863" d="M599.565,847.526s5.777,1.057,2.653,6.039a2.149,2.149,0,0,1-1.067.881c-.367.129-.724.129-.686-.4l-2.548,2.924s-5.1.6-4.649-2.624.3-5.715,2.381-6.3S598.765,847.3,599.565,847.526Z" transform="translate(-325.535 -453.401)" fill="#4d8af0"/>
      <path id="Path_1864" data-name="Path 1864" d="M600.424,854.67s-1.229,2.8-2.924.448" transform="translate(-327.766 -457.192)" fill="none" stroke="#3f2b3b" stroke-miterlimit="10" stroke-width="1"/>
      <path id="Path_1865" data-name="Path 1865" d="M606.2,857s-.638,2.648-3.039.676" transform="translate(-330.73 -458.412)" fill="none" stroke="#3f2b3b" stroke-miterlimit="10" stroke-width="1"/>
      <path id="Path_1866" data-name="Path 1866" d="M543.325,852.344c-1.934-.043-3.81-.143-5.549-.314l-1.729-5.82a3.778,3.778,0,0,1-.157-1.062,3.706,3.706,0,0,1,7.406-.024C543.315,847.391,543.334,850.263,543.325,852.344Z" transform="translate(-295.5 -450.327)" opacity="0.1"/>
      <path id="Path_1867" data-name="Path 1867" d="M534.881,846.072l2.039,6.868s-3.467-.076-2.52,2.1c0,0,.872.824,1.172.524,0,0-.452,1.429,1.348,1.429,0,0,1.943,1.053,2.7.3s2.329-1.877,2.481-2.324c.1-.3.067-6.039.033-10a3.7,3.7,0,0,0-3.7-3.667h0a3.7,3.7,0,0,0-3.548,4.772Z" transform="translate(-294.634 -450.19)" fill="#4d8af0"/>
      <path id="Path_1868" data-name="Path 1868" d="M540.328,869.47s-1.515,1.429-.714,2.272" transform="translate(-297.328 -464.943)" fill="none" stroke="#3f2b3b" stroke-miterlimit="10" stroke-width="1"/>
      <path id="Path_1869" data-name="Path 1869" d="M538.46,867.56a2.057,2.057,0,0,0-1.4,1.758" transform="translate(-296.113 -463.943)" fill="none" stroke="#3f2b3b" stroke-miterlimit="10" stroke-width="1"/>
      <path id="Path_1870" data-name="Path 1870" d="M583.561,845.008a3.766,3.766,0,0,1-.152,1.062l-1.615,5.511c-1.705.138-3.62.271-5.644.386,0-2.058,0-4.8.033-6.982a3.7,3.7,0,0,1,7.4.024Z" transform="translate(-316.585 -450.187)" opacity="0.1"/>
      <path id="Path_1871" data-name="Path 1871" d="M584,846.072l-2.039,6.868s3.472-.076,2.524,2.1c0,0-.872.824-1.172.524,0,0,.448,1.429-1.353,1.429,0,0-1.943,1.053-2.7.3s-2.324-1.877-2.477-2.324c-.1-.3-.067-6.039-.033-10a3.7,3.7,0,0,1,3.7-3.667h0A3.7,3.7,0,0,1,584,846.072Z" transform="translate(-316.885 -450.19)" fill="#4d8af0"/>
      <path id="Path_1872" data-name="Path 1872" d="M586.23,869.47s1.515,1.429.714,2.272" transform="translate(-321.864 -464.943)" fill="none" stroke="#3f2b3b" stroke-miterlimit="10" stroke-width="1"/>
      <path id="Path_1873" data-name="Path 1873" d="M587.63,867.56a2.057,2.057,0,0,1,1.4,1.758" transform="translate(-322.597 -463.943)" fill="none" stroke="#3f2b3b" stroke-miterlimit="10" stroke-width="1"/>
      <path id="Path_1874" data-name="Path 1874" d="M552.814,782.769s-7.054-.224-7.278,5.239,11.021,3.148,11.021,3.148,4.725-.633,3.9-3.953S557.915,783.069,552.814,782.769Z" transform="translate(-300.55 -419.535)" opacity="0.1"/>
      <path id="Path_1875" data-name="Path 1875" d="M552.814,781.509s-7.054-.224-7.278,5.239,11.021,3.148,11.021,3.148,4.725-.633,3.9-3.953S557.915,781.809,552.814,781.509Z" transform="translate(-300.55 -418.876)" opacity="0.1"/>
      <path id="Path_1876" data-name="Path 1876" d="M552.814,782.139s-7.054-.224-7.278,5.239,11.021,3.148,11.021,3.148,4.725-.634,3.9-3.953S557.915,782.439,552.814,782.139Z" transform="translate(-300.55 -419.206)" fill="#3f2b3b"/>
      <path id="Path_1877" data-name="Path 1877" d="M527.78,839.92s2.381.848,2.858,2.472" transform="translate(-291.253 -449.467)" opacity="0.1"/>
      <path id="Path_1878" data-name="Path 1878" d="M596.545,837.4s-1.691.71-1.572,3.672" transform="translate(-326.44 -448.147)" opacity="0.1"/>
      <ellipse id="Ellipse_40" data-name="Ellipse 40" cx="1.104" cy="1.83" rx="1.104" ry="1.83" transform="translate(235.66 401.798) rotate(-29.887)" fill="#4d8af0"/>
      <ellipse id="Ellipse_41" data-name="Ellipse 41" cx="1.824" cy="1.1" rx="1.824" ry="1.1" transform="translate(269.182 402.228) rotate(-60)" fill="#4d8af0"/>
      <ellipse id="Ellipse_42" data-name="Ellipse 42" cx="1.104" cy="1.83" rx="1.104" ry="1.83" transform="translate(235.66 401.798) rotate(-29.887)" fill="#fff" opacity="0.5"/>
      <ellipse id="Ellipse_43" data-name="Ellipse 43" cx="1.824" cy="1.1" rx="1.824" ry="1.1" transform="translate(269.182 402.228) rotate(-60)" fill="#fff" opacity="0.5"/>
      <ellipse id="Ellipse_44" data-name="Ellipse 44" cx="12.826" cy="2.167" rx="12.826" ry="2.167" transform="translate(78.9 338.885)" fill="#4d8af0" opacity="0.1"/>
      <ellipse id="Ellipse_45" data-name="Ellipse 45" cx="12.826" cy="2.167" rx="12.826" ry="2.167" transform="translate(28.37 369.62)" fill="#4d8af0" opacity="0.1"/>
      <ellipse id="Ellipse_46" data-name="Ellipse 46" cx="19.152" cy="3.239" rx="19.152" ry="3.239" transform="translate(8.69 341.052)" fill="#4d8af0"/>
      <path id="Path_1879" data-name="Path 1879" d="M70.924,722.176a5.54,5.54,0,0,1-1.829-2.753,2.455,2.455,0,0,1,1.276-2.805c1.172-.448,2.424.362,3.372,1.181s2.039,1.758,3.282,1.586a5,5,0,0,1-1.543-4.677,1.905,1.905,0,0,1,.429-.953c.648-.7,1.829-.4,2.61.152,2.472,1.743,3.167,5.106,3.177,8.135a15,15,0,0,0,.048-3.334A3.43,3.43,0,0,1,83,715.746a3.811,3.811,0,0,1,1.905-.476,3.984,3.984,0,0,1,3.115.886,3.063,3.063,0,0,1-.124,3.81,12.451,12.451,0,0,1-3.22,2.581,7.107,7.107,0,0,0-2.305,2.2,2.248,2.248,0,0,0-.171.391H75.244a19.265,19.265,0,0,1-4.32-2.958Z" transform="translate(-51.003 -383.181)" fill="#4d8af0"/>
      <ellipse id="Ellipse_47" data-name="Ellipse 47" cx="12.826" cy="2.167" rx="12.826" ry="2.167" transform="translate(477.662 357.013)" fill="#4d8af0" opacity="0.1"/>
      <path id="Path_1880" data-name="Path 1880" d="M1042.91,748.764s7.316-.224,9.526-1.8,11.25-3.444,11.8-.924,11,12.522,2.734,12.588-19.19-1.286-21.39-2.629S1042.91,748.764,1042.91,748.764Z" transform="translate(-561.033 -399.657)" fill="#a8a8a8"/>
      <path id="Path_1881" data-name="Path 1881" d="M1067.11,762.1c-8.259.067-19.19-1.286-21.39-2.629-1.677-1.019-2.343-4.682-2.567-6.373h-.243s.476,5.9,2.662,7.24,13.131,2.7,21.39,2.629c2.381,0,3.21-.867,3.162-2.124C1069.8,761.625,1068.887,762.1,1067.11,762.1Z" transform="translate(-561.033 -403.998)" opacity="0.2"/>
    </g>
  </g>
</svg>
