<?xml version="1.0" standalone="no"?>
<!DOCTYPE svg PUBLIC "-//W3C//DTD SVG 20010904//EN"
 "http://www.w3.org/TR/2001/REC-SVG-20010904/DTD/svg10.dtd">
<svg version="1.0" xmlns="http://www.w3.org/2000/svg"
 width="788.000000pt" height="838.000000pt" viewBox="0 0 788.000000 838.000000"
 preserveAspectRatio="xMidYMid meet">

<g transform="translate(0.000000,838.000000) scale(0.100000,-0.100000)"
fill="#ffffff" stroke="none">
<path d="M2638 8156 c-45 -19 -78 -57 -78 -88 0 -58 75 -254 298 -781 93 -221
123 -271 178 -303 57 -34 75 -30 123 21 35 39 41 51 41 90 0 56 -23 125 -96
292 -31 70 -107 251 -170 400 -117 281 -130 309 -173 356 -27 30 -74 35 -123
13z"/>
<path d="M3573 8001 c-75 -35 -87 -73 -104 -327 -13 -177 -2 -453 22 -555 12
-54 65 -122 108 -137 40 -14 103 15 119 54 23 58 35 225 36 499 1 337 -5 405
-42 446 -35 39 -83 46 -139 20z"/>
<path d="M6640 7734 c-43 -39 -101 -123 -235 -344 -135 -222 -215 -380 -215
-424 0 -69 37 -112 114 -130 24 -6 33 -1 66 34 79 86 293 418 390 607 75 145
74 224 -5 273 -46 28 -69 25 -115 -16z"/>
<path d="M7559 7583 c-239 -212 -653 -634 -784 -798 -40 -51 -55 -78 -55 -101
0 -51 80 -144 124 -144 22 0 360 326 618 596 291 307 298 315 305 359 5 33 2
39 -49 90 -30 31 -64 55 -75 55 -11 0 -49 -25 -84 -57z"/>
<path d="M1929 7581 c-46 -45 -49 -73 -17 -138 50 -101 431 -577 556 -695 73
-69 95 -73 151 -23 45 41 66 84 57 118 -7 29 -107 169 -242 337 -55 69 -135
171 -178 228 -43 56 -105 127 -138 157 -54 50 -63 55 -105 55 -39 0 -50 -5
-84 -39z"/>
<path d="M7568 6516 c-37 -13 -129 -56 -205 -96 -299 -156 -373 -211 -373
-279 0 -49 35 -102 75 -113 47 -13 148 23 350 123 346 173 409 242 312 344
-43 45 -77 50 -159 21z"/>
<path d="M5845 6044 c-11 -2 -45 -9 -75 -15 -62 -13 -133 -47 -234 -112 l-69
-44 -86 43 c-116 60 -192 78 -321 77 -161 0 -236 -35 -416 -191 -117 -100
-203 -162 -228 -162 -21 0 -29 9 -100 122 -69 111 -159 177 -296 219 -93 28
-210 30 -292 6 -122 -37 -219 -122 -858 -751 -301 -297 -385 -376 -399 -376
-6 0 -36 51 -67 113 -91 182 -184 295 -288 350 -56 29 -225 31 -304 3 -74 -25
-220 -162 -635 -594 -513 -533 -666 -707 -803 -907 -114 -170 -236 -450 -300
-692 -51 -196 -57 -808 -8 -1033 29 -139 114 -373 188 -525 148 -302 347 -559
591 -763 270 -227 634 -402 965 -465 108 -20 144 -21 565 -21 914 0 1304 58
1698 255 205 103 277 160 681 547 462 444 1475 1473 1719 1747 108 122 127
160 147 290 37 246 -58 457 -260 575 -36 21 -75 49 -88 63 l-23 25 47 58 c26
33 68 82 94 109 103 111 186 244 217 349 20 67 19 189 -2 262 -46 159 -152
291 -292 364 -96 49 -101 62 -48 121 41 46 93 147 126 244 30 92 33 243 5 325
-60 177 -177 301 -334 356 -66 22 -177 37 -217 28z m175 -286 c56 -38 118
-123 136 -186 28 -94 0 -186 -96 -318 -56 -77 -279 -315 -345 -370 l-45 -36
-77 42 c-95 51 -143 94 -143 130 0 15 21 54 50 93 76 105 110 212 110 351 0
39 5 100 10 136 8 60 13 68 54 107 61 55 111 71 222 72 79 1 96 -2 124 -21z
m-2038 -18 c60 -17 95 -55 145 -157 57 -117 62 -178 22 -239 -53 -80 -254
-292 -1005 -1059 -215 -220 -439 -452 -498 -515 -101 -108 -107 -117 -102
-149 7 -47 48 -105 84 -120 26 -11 36 -10 69 4 26 12 354 334 1053 1034 992
993 1157 1153 1243 1199 48 26 72 27 145 8 182 -49 289 -223 221 -359 -70
-139 -182 -260 -1153 -1252 -727 -742 -1041 -1077 -1053 -1123 -13 -51 44
-122 98 -122 50 0 186 129 1179 1115 558 555 705 691 777 722 87 36 195 1 281
-91 73 -77 96 -132 89 -211 -10 -134 -19 -144 -787 -925 -572 -582 -834 -853
-948 -980 l-84 -94 6 -49 c12 -105 55 -122 152 -59 90 59 224 183 629 582 375
369 546 530 643 603 50 38 55 40 110 34 73 -6 163 -51 219 -109 49 -50 73
-124 73 -225 0 -61 -1 -63 -62 -140 -129 -160 -608 -661 -1273 -1332 -504
-508 -772 -765 -862 -824 -193 -128 -484 -252 -713 -305 -219 -51 -700 -38
-945 24 -101 26 -284 103 -405 171 -383 214 -655 500 -845 888 -41 83 -90 200
-110 260 -64 197 -69 245 -70 665 0 423 0 425 82 665 101 297 226 496 501 795
192 208 601 626 810 826 204 195 216 204 253 204 51 0 86 -19 132 -69 95 -106
134 -286 88 -415 -39 -112 -165 -266 -495 -605 -495 -507 -536 -554 -536 -613
0 -32 7 -47 34 -74 20 -20 44 -34 58 -34 58 0 306 238 1393 1335 887 895 1066
1068 1150 1111 43 22 58 25 110 20 33 -4 77 -11 97 -16z m2202 -991 c74 -27
146 -105 171 -184 34 -108 5 -220 -82 -324 -68 -81 -585 -601 -597 -601 -15 0
-175 106 -208 137 -16 15 -28 32 -28 39 0 7 34 40 75 74 94 77 193 198 241
296 36 72 37 76 45 238 5 123 12 174 25 201 19 41 105 111 161 131 56 19 134
17 197 -7z m32 -1209 c97 -47 165 -155 171 -270 4 -69 2 -78 -25 -120 -69
-107 -398 -458 -1154 -1230 -798 -817 -1012 -1003 -1305 -1141 -196 -91 -363
-135 -363 -96 0 15 56 68 211 204 112 98 927 916 1338 1342 326 339 618 654
662 714 46 64 69 154 78 314 10 164 28 217 87 254 85 52 224 65 300 29z"/>
</g>
</svg>
