<?xml version="1.0" standalone="no"?>
<!DOCTYPE svg PUBLIC "-//W3C//DTD SVG 20010904//EN"
 "http://www.w3.org/TR/2001/REC-SVG-20010904/DTD/svg10.dtd">
<svg version="1.0" xmlns="http://www.w3.org/2000/svg"
 width="1876.000000pt" height="332.000000pt" viewBox="0 0 1876.000000 332.000000"
 preserveAspectRatio="xMidYMid meet">
<g transform="translate(0.000000,332.000000) scale(0.100000,-0.100000)"
fill="#000000" stroke="none">
<path d="M1023 2827 c-12 -5 -24 -15 -27 -23 -5 -12 38 -127 89 -239 12 -27
28 -67 36 -88 7 -20 24 -44 37 -53 22 -14 25 -14 43 2 29 26 26 43 -31 169
 -10 22 -32 75 -49 117 -48 121 -58 133 -98 115z"/>
<path d="M1326 2758 c-23 -32 -23 -266 -1 -308 18 -34 50 -40 71 -12 17 21 20
293 4 323 -14 26 -55 24 -74 -3z"/>
<path d="M2402 2682 c-23 -20 -146 -227 -154 -259 -7 -26 22 -56 49 -51 16 3
98 125 154 231 22 42 18 71 -11 87 -13 7 -23 5 -38 -8z"/>
<path d="M4875 2666 c-54 -24 -61 -37 -200 -376 -49 -119 -69 -167 -203 -485
-44 -104 -103 -246 -132 -315 -130 -311 -392 -933 -423 -1000 -36 -80 -45
-121 -34 -158 16 -50 59 -82 113 -82 73 0 90 25 188 270 48 118 96 235 109
260 l22 45 600 0 600 0 21 -45 c24 -50 93 -215 150 -360 45 -115 59 -137 95
-156 49 -25 97 -18 135 20 27 27 34 42 34 74 0 35 -46 157 -121 319 -10 24
-19 45 -19 48 0 2 -13 34 -30 70 -16 36 -30 68 -30 70 0 3 -9 24 -19 48 -10
23 -36 83 -56 132 -21 50 -48 114 -61 143 -13 29 -24 55 -24 57 0 3 -9 24 -19
48 -10 23 -36 83 -56 132 -21 50 -50 119 -65 155 -16 36 -44 103 -63 150 -19
47 -53 128 -75 180 -22 52 -92 221 -157 375 -139 334 -150 355 -195 377 -42
21 -47 21 -85 4z m70 -443 c10 -27 30 -75 45 -108 15 -33 42 -98 60 -145 18
-47 37 -89 42 -95 4 -5 8 -15 8 -22 0 -7 11 -36 24 -65 13 -29 39 -89 56 -133
17 -44 39 -96 47 -115 34 -77 43 -99 83 -200 42 -107 52 -130 88 -211 12 -26
24 -58 28 -73 l6 -26 -498 -2 c-275 -2 -507 -1 -516 1 -23 4 -22 12 1 64 11
23 34 78 51 122 17 44 43 104 56 133 13 29 24 58 24 65 0 7 4 17 8 22 5 6 24
48 42 95 18 47 36 90 40 95 4 6 17 37 30 70 12 33 28 74 35 90 7 17 36 86 65
155 29 69 67 161 86 205 19 45 34 85 34 91 0 11 20 34 31 34 3 0 14 -21 24
-47z"/>
<path d="M10183 2664 c-18 -7 -40 -26 -50 -41 -17 -26 -18 -88 -15 -1168 l3
-1140 34 -33 35 -32 715 2 715 3 25 26 c50 50 42 133 -17 169 -32 19 -51 20
-650 20 -385 0 -619 4 -623 10 -3 5 -5 477 -5 1050 0 1161 5 1092 -69 1129
-46 24 -54 24 -98 5z"/>
<path d="M12835 2668 c-54 -13 -81 -56 -160 -248 -42 -102 -82 -198 -89 -215
 -8 -16 -30 -70 -51 -120 -20 -49 -42 -103 -49 -120 -8 -16 -37 -86 -66 -155
 -29 -69 -87 -208 -130 -310 -43 -102 -108 -257 -145 -345 -36 -88 -72 -173
 -80 -190 -7 -16 -36 -86 -65 -155 -29 -69 -75 -179 -103 -245 -65 -156 -76
 -193 -66 -231 27 -97 169 -112 212 -22 8 18 38 89 66 158 28 69 72 177 99 240
l48 115 601 3 c473 2 602 -1 610 -10 5 -7 45 -100 87 -207 136 -337 142 -348
214 -358 75 -10 143 56 129 126 -5 24 -102 261 -147 358 -11 24 -20 45 -20 48
0 5 -8 24 -59 137 -11 26 -21 50 -21 53 0 2 -11 28 -24 57 -14 30 -34 78 -46
108 -21 53 -30 75 -63 150 -9 19 -25 60 -37 90 -12 30 -32 78 -46 108 -13 29
 -24 55 -24 57 0 3 -9 24 -19 48 -10 23 -36 83 -56 132 -21 50 -43 104 -51 120
 -7 17 -32 75 -54 130 -220 528 -273 652 -285 665 -22 24 -75 38 -110 28z m80
 -508 c25 -58 49 -113 55 -122 5 -10 10 -22 10 -28 0 -6 9 -29 19 -53 10 -23
36 -82 56 -132 21 -49 43 -103 51 -119 8 -16 14 -33 14 -37 0 -5 11 -32 24
 -61 13 -29 39 -89 56 -133 17 -44 39 -96 47 -115 33 -75 43 -98 79 -190 20
 -52 41 -100 46 -107 6 -7 7 -17 3 -23 -4 -7 -173 -10 -516 -10 -441 0 -509 2
 -509 15 0 12 45 126 95 240 7 17 28 66 45 110 17 44 43 104 56 133 13 29 24
58 24 65 0 7 4 17 8 23 5 5 24 47 42 94 18 47 43 108 56 135 12 28 42 100 67
160 93 228 110 266 119 263 5 -2 29 -50 53 -108z"/>
<path d="M14233 2662 c-72 -39 -68 16 -71 -807 -4 -849 2 -949 62 -1113 68
 -187 265 -381 466 -460 135 -52 292 -82 437 -82 277 0 530 93 698 257 129 125
179 212 233 403 13 47 16 180 19 890 l4 835 -23 34 c-13 19 -40 40 -62 49 -35
14 -41 14 -80 -6 -80 -38 -76 15 -76 -904 0 -669 -3 -822 -14 -866 -46 -171
 -177 -321 -348 -400 -107 -49 -193 -65 -353 -65 -159 0 -222 11 -338 58 -65
27 -164 91 -215 138 -46 44 -106 140 -139 222 l-28 70 -5 846 c-5 829 -5 847
 -25 869 -24 27 -68 50 -92 50 -10 -1 -33 -9 -50 -18z"/>
<path d="M6373 2660 c-12 -5 -30 -21 -39 -35 -16 -25 -17 -104 -15 -1167 2
 -1240 -2 -1170 57 -1196 62 -29 136 -3 161 56 13 31 15 90 13 387 -2 193 -2
362 -2 376 l2 27 328 5 c299 4 333 6 402 26 388 114 589 444 536 880 -33 268
 -208 495 -456 594 -132 52 -183 57 -590 56 -206 0 -385 -4 -397 -9z m838 -236
c187 -56 325 -198 374 -388 34 -129 15 -299 -48 -426 -32 -65 -131 -166 -202
 -205 -114 -64 -183 -75 -496 -75 -188 0 -279 4 -286 11 -8 8 -10 162 -6 543 2
292 6 537 8 544 3 9 73 12 303 12 245 0 308 -3 353 -16z"/>
<path d="M8268 2654 c-15 -8 -32 -22 -37 -32 -14 -27 -18 -2292 -4 -2318 29
 -52 117 -71 170 -37 51 34 54 56 53 421 -1 185 -1 356 0 380 l0 42 268 0 c375
0 471 14 609 86 217 114 343 292 388 549 18 101 18 168 0 275 -27 164 -75 274
 -168 387 -101 124 -253 211 -432 248 -103 22 -807 21 -847 -1z m837 -228 c176
 -47 312 -180 372 -366 26 -80 25 -273 -1 -355 -59 -181 -197 -308 -385 -356
 -66 -16 -114 -19 -352 -19 -223 0 -279 3 -288 14 -11 13 -14 769 -4 999 l5 97
301 0 c220 0 316 -4 352 -14z"/>
<path d="M16745 2637 l-35 -35 2 -1146 3 -1146 28 -27 27 -28 388 0 c389 0
432 3 577 40 190 49 396 167 527 302 272 282 385 719 297 1153 -55 271 -209
520 -418 678 -83 62 -244 149 -326 176 -185 59 -181 59 -623 63 l-412 5 -35
 -35z m855 -197 c175 -36 347 -128 474 -254 381 -376 381 -1073 -1 -1452 -130
 -128 -279 -209 -473 -255 -39 -10 -141 -14 -355 -14 l-300 0 -3 989 c-2 785 0
992 10 998 18 13 582 2 648 -12z"/>
<path d="M779 2629 c-25 -25 -18 -40 61 -141 86 -109 140 -168 155 -168 15 0
45 33 45 50 0 7 -26 45 -57 84 -32 39 -77 96 -100 127 -49 64 -75 77 -104 48z"/>
<path d="M2582 2497 c-95 -96 -152 -161 -152 -174 0 -20 28 -53 46 -53 13 0
299 290 313 316 8 17 6 25 -10 43 -11 11 -25 21 -32 21 -7 0 -81 -69 -165
 -153z"/>
<path d="M2647 2226 c-122 -65 -134 -77 -119 -111 16 -36 38 -32 152 25 103
52 125 72 109 102 -21 39 -41 37 -142 -16z"/>
<path d="M2047 2070 l-48 -30 -42 22 c-51 26 -129 29 -173 5 -18 -9 -56 -39
 -86 -66 -30 -27 -59 -46 -65 -43 -5 4 -18 22 -27 40 -34 66 -127 103 -207 82
 -38 -10 -72 -39 -235 -201 -104 -104 -193 -189 -197 -189 -4 0 -18 24 -30 53
 -13 28 -40 67 -61 85 -30 26 -45 32 -84 32 -30 0 -58 -7 -76 -19 -16 -11 -122
 -116 -235 -234 -226 -235 -266 -291 -323 -453 -28 -82 -31 -100 -32 -229 -1
 -107 3 -157 17 -210 63 -237 220 -430 429 -524 114 -51 173 -64 298 -64 403 0
524 20 687 109 57 31 127 96 438 408 218 218 378 386 388 408 10 22 17 59 17
95 -1 70 -34 126 -93 158 -20 11 -37 24 -37 29 0 4 24 34 53 65 74 81 93 152
61 229 -19 46 -57 87 -95 102 -32 14 -36 22 -15 39 8 6 24 35 36 63 75 175
 -106 338 -263 238z m167 -91 c53 -63 31 -123 -87 -238 l-56 -55 -37 20 c-43
23 -52 39 -31 62 32 36 47 82 47 141 0 52 3 62 26 80 18 14 41 21 69 21 36 0
48 -5 69 -31z m-712 10 c11 -6 28 -30 39 -54 15 -35 17 -49 8 -72 -6 -15 -134
 -152 -285 -304 -151 -152 -274 -281 -274 -288 0 -24 21 -51 40 -51 11 0 36 17
57 38 21 21 195 196 388 390 322 324 352 352 383 352 44 0 88 -27 103 -62 27
 -66 23 -71 -381 -481 -240 -243 -380 -393 -380 -405 0 -24 23 -45 45 -40 9 2
159 146 333 321 306 306 318 317 356 317 30 0 45 -7 72 -34 42 -42 44 -82 9
 -134 -14 -20 -155 -167 -315 -327 -159 -160 -290 -298 -290 -307 0 -9 3 -23 6
 -32 15 -40 51 -13 264 198 131 131 225 217 241 221 29 7 73 -11 101 -41 16
 -18 21 -45 19 -92 -1 -16 -106 -130 -343 -372 -189 -192 -364 -365 -390 -385
 -67 -51 -179 -102 -266 -121 -100 -22 -271 -15 -356 15 -225 80 -389 253 -453
481 -11 38 -16 98 -16 195 0 126 3 148 27 219 49 143 91 202 310 424 110 112
209 208 218 213 42 23 98 -47 98 -122 0 -61 -26 -96 -210 -284 -81 -82 -150
 -157 -152 -165 -8 -23 10 -50 35 -50 16 0 137 116 442 425 409 415 421 426
458 425 21 0 47 -5 59 -11z m779 -358 c33 -33 39 -83 15 -129 -8 -15 -62 -74
 -119 -130 l-104 -104 -42 26 c-22 15 -41 30 -41 35 0 6 13 19 30 31 16 12 44
42 62 68 27 40 32 55 33 115 1 65 4 72 31 93 42 35 97 32 135 -5z m6 -417 c28
 -30 37 -65 29 -100 -4 -16 -104 -127 -246 -273 -444 -458 -508 -516 -635 -568
 -111 -46 -133 -35 -52 26 66 49 700 699 721 740 13 24 20 56 20 97 1 69 13 90
60 103 43 12 77 4 103 -25z"/>
</g>
</svg>
